*
*
G04 PADS VX.2.11 Build Number: 20124196 generated Gerber (RS-274-X) file*
G04 PC Version=2.1*
*
%IN "Eago tracker.pcb"*%
*
%MOIN*%
*
%FSLAX35Y35*%
*
*
*
*
G04 PC Standard Apertures*
*
*
G04 Thermal Relief Aperture macro.*
%AMTER*
1,1,$1,0,0*
1,0,$1-$2,0,0*
21,0,$3,$4,0,0,45*
21,0,$3,$4,0,0,135*
%
*
*
G04 Annular Aperture macro.*
%AMANN*
1,1,$1,0,0*
1,0,$2,0,0*
%
*
*
G04 Odd Aperture macro.*
%AMODD*
1,1,$1,0,0*
1,0,$1-0.005,0,0*
%
*
*
G04 PC Custom Aperture Macros*
*
*
*
*
*
*
G04 PC Aperture Table*
*
%ADD010C,0.001*%
%ADD011R,0.0374X0.03937*%
%ADD016R,0.07874X0.07874*%
%ADD021C,0.07087*%
%ADD022C,0.18898*%
%ADD028R,0.06496X0.06496*%
%ADD029C,0.06496*%
%ADD041C,0.01*%
%ADD042R,0.05906X0.05906*%
%ADD043C,0.05906*%
%ADD044R,0.04331X0.04331*%
%ADD045C,0.04331*%
%ADD046R,0.06791X0.06791*%
%ADD047C,0.06791*%
%ADD068C,0.08858*%
%ADD069C,0.10039*%
%ADD096R,0.02559X0.06004*%
%ADD097R,0.03937X0.05512*%
%ADD098R,0.04528X0.02953*%
%ADD168C,0.005*%
%ADD169C,0.008*%
%ADD170C,0.00394*%
%ADD171C,0.00591*%
*
*
*
*
G04 PC Circuitry*
G04 Layer Name Eago tracker.pcb - circuitry*
%LPD*%
*
G54D10*
G01X2061343Y1471960D02*
X2061310Y1472025D01*
X2061246Y1472057*
X2060675*
X2060363Y1472013*
X2060103Y1471969*
X2059673Y1471711*
X2059457Y1471281*
X2059369Y1470706*
Y1470401*
X2059456Y1470095*
X2059543Y1469879*
X2059715Y1469664*
X2059888Y1469534*
X2060105Y1469404*
X2060408Y1469317*
X2061246*
X2061310Y1469350*
X2061343Y1469414*
Y1471960*
X2061172Y1471882D02*
Y1469493D01*
X2061122Y1469443*
X2060401*
X2060382Y1469446*
X2060157Y1469536*
X2060153Y1469538*
X2059973Y1469628*
X2059967Y1469631*
X2059832Y1469722*
X2059816Y1469739*
X2059591Y1470145*
X2059585Y1470159*
X2059540Y1470384*
X2059539Y1470394*
Y1470710*
X2059540Y1470715*
X2059585Y1471166*
X2059591Y1471185*
X2059816Y1471591*
X2059831Y1471607*
X2060146Y1471832*
X2060166Y1471841*
X2060391Y1471886*
X2060393*
X2060663Y1471931*
X2060671Y1471932*
X2061122*
X2061172Y1471882*
X2060472Y1534040D02*
X2060429Y1534381D01*
X2060262Y1534632*
X2059965Y1534801*
X2059573Y1534845*
X2059315*
X2059098Y1534758*
X2059095Y1534757*
X2058963Y1534714*
X2058904Y1534684*
Y1534670*
X2058859Y1534620*
Y1534510*
X2058864Y1534505*
X2058919Y1534533*
X2059052Y1534621*
X2059070Y1534629*
X2059295Y1534674*
X2059298*
X2059613Y1534719*
X2059629*
X2059899Y1534674*
X2059921Y1534665*
X2060101Y1534529*
X2060111Y1534519*
X2060247Y1534339*
X2060256Y1534319*
X2060301Y1534093*
X2060302Y1534084*
X2060301Y1534074*
X2060256Y1533848*
X2060242Y1533823*
X2060062Y1533643*
X2060052Y1533635*
X2059827Y1533500*
X2059808Y1533493*
X2059492Y1533448*
X2059485*
X2059190*
X2059175Y1533432*
Y1533367*
X2059219Y1533322*
X2059440*
X2059448Y1533321*
X2059719Y1533276*
X2059736Y1533270*
X2059962Y1533135*
X2059976Y1533122*
X2060111Y1532941*
X2060120Y1532921*
X2060165Y1532696*
X2060166Y1532686*
X2060165Y1532674*
X2060120Y1532494*
X2060116Y1532483*
X2060026Y1532303*
X2060009Y1532284*
X2059874Y1532194*
X2059856Y1532186*
X2059630Y1532141*
X2059612*
X2059342Y1532186*
X2059328Y1532191*
X2059147Y1532281*
X2059142Y1532284*
X2059009Y1532372*
X2058949Y1532402*
Y1532301*
X2058980Y1532271*
X2058994Y1532235*
Y1532221*
X2059057Y1532190*
X2059062Y1532187*
X2059189Y1532102*
X2059622Y1532015*
X2059964Y1532058*
X2060170Y1532182*
X2060294Y1532388*
X2060336Y1532641*
X2060293Y1532898*
X2060210Y1533105*
X2060047Y1533228*
X2059827Y1533316*
X2059796Y1533362*
X2059830Y1533410*
X2060095Y1533498*
X2060305Y1533624*
X2060430Y1533831*
X2060472Y1534040*
X2058593Y1471562D02*
X2058548Y1471611D01*
Y1471628*
X2057896Y1472019*
X2057886Y1472027*
X2057856Y1472057*
X2057717*
X2057701Y1472042*
Y1469493*
X2057651Y1469443*
X2057085*
X2057070Y1469427*
Y1469333*
X2057085Y1469317*
X2058577*
X2058593Y1469333*
Y1469382*
X2058562Y1469412*
X2058548Y1469443*
X2057921*
X2057871Y1469493*
Y1471792*
X2057948Y1471834*
X2058532Y1471475*
X2058588Y1471447*
X2058593Y1471452*
Y1471562*
X2056519Y1470663D02*
X2056474Y1471240D01*
X2056301Y1471717*
X2056000Y1471975*
X2055832Y1472059*
X2055578Y1472102*
X2055151Y1472016*
X2054899Y1471764*
X2054725Y1471285*
X2054680Y1470710*
X2054725Y1470090*
X2054900Y1469653*
X2055027Y1469483*
X2055193Y1469358*
X2055362Y1469316*
X2055626Y1469272*
X2055838*
X2056045Y1469355*
X2056301Y1469611*
X2056475Y1470047*
X2056519Y1470353*
Y1470663*
X2056348Y1470710D02*
Y1470394D01*
Y1470386*
X2056303Y1470116*
X2056302Y1470114*
X2056257Y1469889*
X2056250Y1469871*
X2056160Y1469735*
X2056157Y1469732*
X2055977Y1469506*
X2055951Y1469490*
X2055636Y1469399*
X2055614Y1469398*
X2055343Y1469443*
X2055322Y1469453*
X2055141Y1469588*
X2055131Y1469598*
X2054996Y1469778*
X2054989Y1469792*
X2054898Y1470063*
X2054897Y1470070*
X2054851Y1470341*
X2054851D02*
Y1470349D01*
Y1471070*
X2054853Y1471084*
X2054943Y1471400*
X2054945Y1471405*
X2055035Y1471630*
X2055036Y1471634*
X2055127Y1471814*
X2055149Y1471837*
X2055329Y1471927*
X2055342Y1471931*
X2055567Y1471976*
X2055587*
X2055812Y1471931*
X2055818Y1471929*
X2055954Y1471884*
X2055976Y1471869*
X2056202Y1471598*
X2056212Y1471577*
X2056302Y1471172*
X2056303Y1471166*
X2056348Y1470715*
Y1470710*
X2058353Y1534098D02*
X2058301Y1534124D01*
X2057952*
X2057902Y1534174*
Y1534784*
X2057887Y1534800*
X2057748*
X2057732Y1534784*
Y1534174*
X2057682Y1534124*
X2056440*
X2056425Y1534108*
Y1534014*
X2056455Y1533984*
X2056470Y1533948*
Y1533917*
X2057586Y1532086*
X2057613Y1532060*
X2057887*
X2057902Y1532076*
Y1533948*
X2057952Y1533998*
X2058301*
X2058353Y1534024*
Y1534098*
X2057732Y1533948D02*
Y1532235D01*
X2057639Y1532209*
X2056602Y1533922*
X2056595Y1533948*
X2056645Y1533998*
X2057682*
X2057732Y1533948*
X2056009Y1534784D02*
X2055993Y1534800D01*
X2055854*
X2055839Y1534784*
Y1534760*
X2055835Y1534741*
X2055474Y1533840*
X2055468Y1533828*
X2055333Y1533648*
X2055318Y1533635*
X2055093Y1533500*
X2055077Y1533494*
X2054852Y1533449*
X2054842Y1533448*
X2054526*
X2054476Y1533498*
Y1534784*
X2054460Y1534800*
X2054322*
X2054306Y1534784*
Y1532157*
X2054338Y1532092*
X2054403Y1532060*
X2055236*
X2055494Y1532189*
X2055703Y1532315*
X2055785Y1532520*
X2055828Y1532732*
X2055786Y1532986*
X2055704Y1533149*
X2055538Y1533273*
X2055319Y1533361*
X2055288Y1533407*
X2055310Y1533449*
X2055437Y1533534*
X2055609Y1533791*
X2055697Y1534012*
Y1534013*
X2055967Y1534642*
X2056009Y1534768*
Y1534784*
X2055656Y1532762D02*
X2055566Y1532447D01*
X2055560Y1532433*
X2055469Y1532298*
X2055440Y1532277*
X2055262Y1532232*
X2055128Y1532188*
X2055112Y1532185*
X2054526*
X2054476Y1532235*
Y1533272*
X2054526Y1533322*
X2054932*
X2054939*
X2055255Y1533277*
X2055266Y1533273*
X2055492Y1533183*
X2055518Y1533159*
X2055608Y1532979*
X2055612Y1532969*
X2055657Y1532788*
X2055656Y1532762*
X2048994Y1517443D02*
X2048962Y1517508D01*
X2048897Y1517540*
X2048064*
X2047806Y1517411*
X2047597Y1517285*
X2047515Y1517080*
X2047472Y1516868*
X2047514Y1516614*
X2047596Y1516451*
X2047762Y1516327*
X2047981Y1516239*
X2048012Y1516193*
X2047990Y1516151*
X2047863Y1516066*
X2047691Y1515809*
X2047603Y1515588*
Y1515587*
X2047333Y1514958*
X2047291Y1514832*
Y1514816*
X2047307Y1514800*
X2047446*
X2047461Y1514816*
Y1514840*
X2047465Y1514859*
X2047826Y1515760*
X2047832Y1515772*
X2047967Y1515952*
X2047982Y1515965*
X2048207Y1516100*
X2048223Y1516106*
X2048448Y1516151*
X2048458Y1516152*
X2048774*
X2048824Y1516102*
Y1514816*
X2048840Y1514800*
X2048978*
X2048994Y1514816*
Y1517443*
X2048824Y1517365D02*
Y1516328D01*
X2048774Y1516278*
X2048368*
X2048361*
X2048045Y1516323*
X2048034Y1516327*
X2047808Y1516417*
X2047782Y1516441*
X2047692Y1516621*
X2047688Y1516631*
X2047643Y1516812*
X2047642Y1516824*
X2047644Y1516838*
X2047734Y1517153*
X2047740Y1517167*
X2047831Y1517302*
X2047860Y1517323*
X2048038Y1517368*
X2048172Y1517412*
X2048188Y1517415*
X2048774*
X2048824Y1517365*
X2046875Y1515586D02*
X2046845Y1515616D01*
X2046830Y1515652*
Y1515683*
X2045714Y1517514*
X2045687Y1517540*
X2045413*
X2045398Y1517524*
Y1515652*
X2045348Y1515602*
X2044999*
X2044947Y1515576*
Y1515502*
X2044999Y1515476*
X2045348*
X2045398Y1515426*
Y1514816*
X2045413Y1514800*
X2045552*
X2045568Y1514816*
Y1515426*
X2045618Y1515476*
X2046860*
X2046875Y1515492*
Y1515586*
X2046655Y1515602D02*
X2045618D01*
X2045568Y1515652*
Y1517365*
X2045661Y1517391*
X2046698Y1515678*
X2046655Y1515602*
X2044441Y1514910D02*
X2044411Y1514940D01*
X2044396Y1514975*
Y1515001*
X2043826Y1515615*
X2043603Y1515793*
X2043592Y1515806*
X2043457Y1516030*
X2043233Y1516344*
X2043226Y1516357*
X2043136Y1516628*
X2043134Y1516643*
Y1516869*
X2043135Y1516879*
X2043180Y1517104*
X2043187Y1517122*
X2043277Y1517257*
X2043289Y1517270*
X2043469Y1517405*
X2043489Y1517414*
X2043715Y1517459*
X2043734*
X2043960Y1517414*
X2043969Y1517411*
X2044194Y1517321*
X2044203Y1517316*
X2044336Y1517228*
X2044391Y1517200*
X2044396Y1517205*
Y1517344*
X2044371Y1517369*
X2044113Y1517498*
X2043939Y1517541*
X2043723Y1517585*
X2043382Y1517542*
X2043131Y1517374*
X2043006Y1517167*
X2042963Y1516910*
Y1516654*
X2043093Y1516351*
X2043316Y1515994*
X2043317Y1515993*
X2043449Y1515773*
X2044211Y1515011*
X2044225Y1514975*
X2044175Y1514925*
X2042844*
X2042828Y1514910*
Y1514816*
X2042844Y1514800*
X2044425*
X2044441Y1514816*
Y1514910*
X2039390Y1422206D02*
X2039302Y1422822D01*
X2039084Y1423258*
X2039084D02*
X2038914Y1423429D01*
X2038701Y1423556*
X2038485Y1423600*
X2038225Y1423643*
X2037789Y1423556*
X2037615Y1423469*
X2037608Y1423466*
X2037484Y1423425*
X2037462Y1423403*
Y1423264*
X2037467Y1423259*
X2037706Y1423378*
X2037709Y1423380*
X2037935Y1423470*
X2037946Y1423473*
X2038262Y1423518*
X2038281Y1423517*
X2038642Y1423427*
X2038662Y1423417*
X2038932Y1423191*
X2038946Y1423173*
X2039126Y1422767*
X2039130Y1422755*
X2039220Y1422214*
Y1422206*
Y1422202*
X2039175Y1421661*
X2039170Y1421643*
X2038990Y1421282*
X2038974Y1421264*
X2038659Y1421038*
X2038652Y1421034*
X2038472Y1420944*
X2038449Y1420939*
X2038269*
X2038262*
X2037946Y1420985*
X2037935Y1420988*
X2037709Y1421078*
X2037706Y1421079*
X2037467Y1421199*
X2037462Y1421194*
Y1421055*
X2037487Y1421030*
X2037744Y1420901*
X2037962Y1420858*
X2038272Y1420814*
X2038530*
X2038740Y1420898*
X2039088Y1421158*
X2039216Y1421372*
X2039302Y1421588*
X2039390Y1422206*
X2039462Y1426215D02*
X2039432Y1426245D01*
X2039417Y1426280*
Y1426315*
X2038343Y1428731*
X2038305Y1428770*
X2038290Y1428800*
X2038145*
X2038150Y1428795*
X2038161Y1428780*
X2039243Y1426255*
X2039247Y1426235*
X2039197Y1426185*
X2037775*
X2037714Y1426124*
Y1426105*
X2037759Y1426060*
X2039417*
X2039462Y1426105*
Y1426215*
X2039262Y1432649D02*
X2039219Y1432991D01*
X2039049Y1433246*
X2038790Y1433461*
X2038581Y1433545*
X2038370*
X2038113Y1433502*
X2037901Y1433375*
X2037733Y1433207*
X2037647Y1432949*
X2037559Y1432641*
Y1432245*
X2037604Y1431843*
X2037648Y1431489*
X2037778Y1431187*
X2037992Y1430929*
X2038292Y1430758*
X2038639Y1430715*
X2038808*
X2039071Y1430802*
X2039087Y1430805*
X2039111*
X2039127Y1430821*
Y1430930*
X2039054*
X2038974Y1430891*
X2038967Y1430888*
X2038832Y1430843*
X2038816Y1430840*
X2038636*
X2038626Y1430841*
X2038401Y1430886*
X2038399Y1430887*
X2038218Y1430932*
X2038192Y1430948*
X2037967Y1431219*
X2037960Y1431228*
X2037780Y1431589*
X2037775Y1431606*
X2037730Y1432012*
Y1432017*
X2037795Y1432065*
X2037931Y1432020*
X2037937Y1432017*
X2038113Y1431929*
X2038282Y1431887*
X2038495*
X2038844Y1431974*
X2039095Y1432100*
X2039219Y1432348*
X2039262Y1432649*
X2039092Y1432693D02*
X2039091Y1432685D01*
X2039046Y1432415*
X2039041Y1432401*
X2038951Y1432220*
X2038937Y1432203*
X2038756Y1432067*
X2038734Y1432058*
X2038464Y1432013*
X2038456Y1432012*
X2038275*
X2038263Y1432014*
X2038083Y1432059*
X2038073Y1432063*
X2037892Y1432153*
X2037887Y1432156*
X2037752Y1432246*
X2037730Y1432288*
Y1432558*
Y1432568*
X2037776Y1432793*
Y1432796*
X2037821Y1432976*
X2037825Y1432986*
X2037915Y1433167*
X2037924Y1433180*
X2038105Y1433360*
X2038132Y1433374*
X2038402Y1433419*
X2038419*
X2038689Y1433374*
X2038712Y1433364*
X2038938Y1433183*
X2038953Y1433163*
X2039043Y1432937*
X2039046Y1432929*
X2039091Y1432703*
X2039092Y1432693*
X2036911Y1421149D02*
X2036907Y1421154D01*
X2036851Y1421126*
X2036719Y1421037*
X2036701Y1421030*
X2036475Y1420985*
X2036473*
X2036157Y1420939*
X2036142Y1420940*
X2035871Y1420985*
X2035850Y1420994*
X2035669Y1421129*
X2035659Y1421139*
X2035524Y1421320*
X2035515Y1421340*
X2035470Y1421565*
X2035469Y1421575*
X2035470Y1421585*
X2035515Y1421810*
X2035529Y1421836*
X2035709Y1422016*
X2035719Y1422024*
X2035944Y1422159*
X2035963Y1422165*
X2036278Y1422211*
X2036285*
X2036580*
X2036596Y1422227*
Y1422292*
X2036551Y1422336*
X2036330*
X2036322Y1422337*
X2036052Y1422382*
X2036034Y1422389*
X2035809Y1422524*
X2035794Y1422537*
X2035659Y1422717*
X2035650Y1422737*
X2035605Y1422963*
X2035604Y1422973*
X2035606Y1422985*
X2035651Y1423165*
X2035654Y1423175*
X2035745Y1423356*
X2035762Y1423375*
X2035897Y1423465*
X2035915Y1423472*
X2036140Y1423517*
X2036158Y1423518*
X2036429Y1423473*
X2036443Y1423468*
X2036623Y1423378*
X2036629Y1423375*
X2036761Y1423286*
X2036821Y1423256*
Y1423358*
X2036791Y1423388*
X2036776Y1423423*
Y1423438*
X2036714Y1423469*
X2036708Y1423472*
X2036581Y1423557*
X2036148Y1423643*
X2035806Y1423600*
X2035600Y1423477*
X2035476Y1423271*
X2035434Y1423018*
X2035477Y1422761*
X2035560Y1422553*
X2035724Y1422430*
X2035943Y1422343*
X2035975Y1422296*
X2035940Y1422249*
X2035675Y1422160*
X2035465Y1422034*
X2035341Y1421827*
X2035299Y1421618*
X2035342Y1421277*
X2035509Y1421026*
X2035805Y1420857*
X2036198Y1420814*
X2036456*
X2036672Y1420900*
X2036675Y1420901*
X2036807Y1420945*
X2036866Y1420975*
Y1420989*
X2036911Y1421039*
Y1421149*
X2037253Y1428098D02*
X2037201Y1428124D01*
X2036852*
X2036802Y1428174*
Y1428784*
X2036787Y1428800*
X2036648*
X2036632Y1428784*
Y1428174*
X2036582Y1428124*
X2035340*
X2035325Y1428108*
Y1428014*
X2035355Y1427984*
X2035370Y1427948*
Y1427917*
X2036486Y1426086*
X2036513Y1426060*
X2036787*
X2036802Y1426076*
Y1427948*
X2036852Y1427998*
X2037201*
X2037253Y1428024*
Y1428098*
X2036632Y1427948D02*
Y1426235D01*
X2036539Y1426209*
X2035502Y1427922*
X2035495Y1427948*
X2035545Y1427998*
X2036582*
X2036632Y1427948*
X2037053Y1432798D02*
X2037001Y1432824D01*
X2036652*
X2036602Y1432874*
Y1433484*
X2036587Y1433500*
X2036448*
X2036432Y1433484*
Y1432874*
X2036382Y1432824*
X2035140*
X2035125Y1432808*
Y1432714*
X2035155Y1432684*
X2035170Y1432648*
Y1432617*
X2036286Y1430786*
X2036313Y1430760*
X2036587*
X2036602Y1430776*
Y1432648*
X2036652Y1432698*
X2037001*
X2037053Y1432724*
Y1432798*
X2036432Y1432648D02*
Y1430935D01*
X2036339Y1430909*
X2035302Y1432622*
X2035295Y1432648*
X2035345Y1432698*
X2036382*
X2036432Y1432648*
X2034748Y1421644D02*
X2034717Y1421675D01*
X2034702Y1421710*
Y1421741*
X2033586Y1423573*
X2033560Y1423599*
X2033285*
X2033270Y1423583*
Y1421710*
X2033220Y1421660*
X2032871*
X2032819Y1421634*
Y1421561*
X2032871Y1421535*
X2033220*
X2033270Y1421485*
Y1420874*
X2033285Y1420859*
X2033424*
X2033440Y1420874*
Y1421485*
X2033490Y1421535*
X2034732*
X2034748Y1421551*
Y1421644*
X2034527Y1421660D02*
X2033490D01*
X2033440Y1421710*
Y1423423*
X2033533Y1423449*
X2034570Y1421736*
X2034527Y1421660*
X2034909Y1428784D02*
X2034893Y1428800D01*
X2034754*
X2034739Y1428784*
Y1428760*
X2034735Y1428741*
X2034374Y1427840*
X2034368Y1427828*
X2034233Y1427648*
X2034218Y1427635*
X2033993Y1427500*
X2033977Y1427494*
X2033752Y1427449*
X2033742Y1427448*
X2033426*
X2033376Y1427498*
Y1428784*
X2033360Y1428800*
X2033222*
X2033206Y1428784*
Y1426157*
X2033238Y1426092*
X2033303Y1426060*
X2034136*
X2034394Y1426189*
X2034603Y1426315*
X2034685Y1426520*
X2034728Y1426732*
X2034686Y1426986*
X2034604Y1427149*
X2034438Y1427273*
X2034219Y1427361*
X2034188Y1427407*
X2034210Y1427449*
X2034337Y1427534*
X2034509Y1427791*
X2034597Y1428012*
Y1428013*
X2034867Y1428642*
X2034909Y1428768*
Y1428784*
X2034556Y1426762D02*
X2034466Y1426447D01*
X2034460Y1426433*
X2034369Y1426298*
X2034340Y1426277*
X2034162Y1426232*
X2034028Y1426188*
X2034012Y1426185*
X2033426*
X2033376Y1426235*
Y1427272*
X2033426Y1427322*
X2033832*
X2033839*
X2034155Y1427277*
X2034166Y1427273*
X2034392Y1427183*
X2034418Y1427159*
X2034508Y1426979*
X2034512Y1426969*
X2034557Y1426788*
X2034556Y1426762*
X2034709Y1433484D02*
X2034693Y1433500D01*
X2034554*
X2034539Y1433484*
Y1433460*
X2034535Y1433441*
X2034174Y1432540*
X2034168Y1432528*
X2034033Y1432348*
X2034018Y1432335*
X2033793Y1432200*
X2033777Y1432194*
X2033552Y1432149*
X2033542Y1432148*
X2033226*
X2033176Y1432198*
Y1433484*
X2033160Y1433500*
X2033022*
X2033006Y1433484*
Y1430857*
X2033038Y1430792*
X2033103Y1430760*
X2033936*
X2034194Y1430889*
X2034403Y1431015*
X2034485Y1431220*
X2034528Y1431432*
X2034486Y1431686*
X2034404Y1431849*
X2034238Y1431973*
X2034019Y1432061*
X2033988Y1432107*
X2034010Y1432149*
X2034137Y1432234*
X2034309Y1432491*
X2034397Y1432712*
Y1432713*
X2034667Y1433342*
X2034709Y1433468*
Y1433484*
X2034356Y1431462D02*
X2034266Y1431147D01*
X2034260Y1431133*
X2034169Y1430998*
X2034140Y1430977*
X2033962Y1430932*
X2033828Y1430888*
X2033812Y1430885*
X2033226*
X2033176Y1430935*
Y1431972*
X2033226Y1432022*
X2033632*
X2033639*
X2033955Y1431977*
X2033966Y1431973*
X2034192Y1431883*
X2034218Y1431859*
X2034308Y1431679*
X2034312Y1431669*
X2034357Y1431488*
X2034356Y1431462*
X2030953Y1507598D02*
X2030919Y1507702D01*
X2030830Y1507925*
X2030698Y1508188*
X2030476Y1508454*
X2030465Y1508486*
X2030469Y1508506*
X2030601Y1508815*
X2030645Y1509210*
Y1509513*
X2030560Y1509726*
X2030428Y1509946*
X2030303Y1510112*
X2029826Y1510286*
X2029252Y1510374*
X2028636Y1510286*
X2028203Y1510069*
X2027902Y1509683*
X2027815Y1509162*
X2027902Y1508644*
X2028202Y1508301*
X2028637Y1508083*
X2029211Y1507995*
X2029516*
X2029824Y1508083*
X2030085Y1508170*
X2030303Y1508345*
X2030375Y1508335*
X2030601Y1508019*
X2030606Y1508009*
X2030694Y1507788*
X2030782Y1507657*
X2030790Y1507630*
Y1507615*
X2030842Y1507589*
X2030945*
X2030953Y1507598*
X2030520Y1509433D02*
Y1508937D01*
X2030516Y1508918*
X2030426Y1508693*
X2030415Y1508676*
X2030144Y1508406*
X2030129Y1508395*
X2029724Y1508215*
X2029708Y1508211*
X2029212Y1508166*
X2029202*
X2028752Y1508211*
X2028736Y1508215*
X2028331Y1508395*
X2028315Y1508406*
X2028045Y1508676*
X2028031Y1508702*
X2027941Y1509152*
X2027940Y1509162*
X2027941Y1509171*
X2027986Y1509441*
X2027987Y1509445*
X2028032Y1509625*
X2028042Y1509646*
X2028313Y1509961*
X2028331Y1509974*
X2028736Y1510155*
X2028752Y1510159*
X2029202Y1510204*
X2029212*
X2029708Y1510159*
X2029724Y1510155*
X2030129Y1509974*
X2030144Y1509964*
X2030415Y1509694*
X2030426Y1509677*
X2030516Y1509451*
X2030520Y1509433*
X2030600Y1507293D02*
X2030584Y1507309D01*
X2030490*
X2030460Y1507279*
X2030425Y1507264*
X2030399*
X2029785Y1506694*
X2029607Y1506471*
X2029594Y1506460*
X2029370Y1506325*
X2029056Y1506101*
X2029043Y1506094*
X2028772Y1506004*
X2028757Y1506002*
X2028531*
X2028521Y1506003*
X2028296Y1506048*
X2028278Y1506055*
X2028143Y1506145*
X2028130Y1506157*
X2027995Y1506337*
X2027986Y1506357*
X2027941Y1506583*
X2027940Y1506593*
X2027941Y1506602*
X2027986Y1506828*
X2027989Y1506837*
X2028079Y1507062*
X2028084Y1507071*
X2028172Y1507204*
X2028200Y1507259*
X2028195Y1507264*
X2028056*
X2028031Y1507239*
X2027902Y1506981*
X2027859Y1506807*
X2027815Y1506591*
X2027858Y1506250*
X2028026Y1505999*
X2028233Y1505874*
X2028490Y1505831*
X2028746*
X2029049Y1505961*
X2029406Y1506184*
X2029407Y1506185*
X2029627Y1506317*
X2030389Y1507079*
X2030475Y1507043*
Y1505712*
X2030490Y1505696*
X2030584*
X2030600Y1505712*
Y1507293*
X2020672Y1430540D02*
X2020629Y1430881D01*
X2020462Y1431132*
X2020165Y1431301*
X2019773Y1431345*
X2019515*
X2019298Y1431258*
X2019295Y1431257*
X2019163Y1431214*
X2019104Y1431184*
Y1431170*
X2019059Y1431120*
Y1431010*
X2019064Y1431005*
X2019119Y1431033*
X2019252Y1431121*
X2019270Y1431129*
X2019495Y1431174*
X2019498*
X2019813Y1431219*
X2019829*
X2020099Y1431174*
X2020121Y1431165*
X2020301Y1431029*
X2020311Y1431019*
X2020447Y1430839*
X2020456Y1430819*
X2020501Y1430593*
X2020502Y1430584*
X2020501Y1430574*
X2020456Y1430348*
X2020442Y1430323*
X2020262Y1430143*
X2020252Y1430135*
X2020027Y1430000*
X2020008Y1429993*
X2019692Y1429948*
X2019685*
X2019390*
X2019375Y1429932*
Y1429867*
X2019419Y1429822*
X2019640*
X2019648Y1429821*
X2019919Y1429776*
X2019936Y1429770*
X2020162Y1429635*
X2020176Y1429622*
X2020311Y1429441*
X2020320Y1429421*
X2020365Y1429196*
X2020366Y1429186*
X2020365Y1429174*
X2020320Y1428994*
X2020316Y1428983*
X2020226Y1428803*
X2020209Y1428784*
X2020074Y1428694*
X2020056Y1428686*
X2019830Y1428641*
X2019812*
X2019542Y1428686*
X2019528Y1428691*
X2019347Y1428781*
X2019342Y1428784*
X2019209Y1428872*
X2019149Y1428902*
Y1428801*
X2019180Y1428771*
X2019194Y1428735*
Y1428721*
X2019257Y1428690*
X2019262Y1428687*
X2019389Y1428602*
X2019822Y1428515*
X2020164Y1428558*
X2020370Y1428682*
X2020494Y1428888*
X2020536Y1429141*
X2020493Y1429398*
X2020410Y1429605*
X2020247Y1429728*
X2020027Y1429816*
X2019996Y1429862*
X2020030Y1429910*
X2020295Y1429998*
X2020505Y1430124*
X2020630Y1430331*
X2020672Y1430540*
X2018894Y1530343D02*
X2018862Y1530408D01*
X2018797Y1530440*
X2017964*
X2017706Y1530311*
X2017497Y1530185*
X2017415Y1529980*
X2017372Y1529768*
X2017414Y1529514*
X2017496Y1529351*
X2017662Y1529227*
X2017881Y1529139*
X2017912Y1529093*
X2017890Y1529051*
X2017763Y1528966*
X2017591Y1528709*
X2017503Y1528488*
Y1528487*
X2017233Y1527858*
X2017191Y1527732*
Y1527716*
X2017207Y1527700*
X2017346*
X2017361Y1527716*
Y1527740*
X2017365Y1527759*
X2017726Y1528660*
X2017732Y1528672*
X2017867Y1528852*
X2017882Y1528865*
X2018107Y1529000*
X2018123Y1529006*
X2018348Y1529051*
X2018358Y1529052*
X2018674*
X2018724Y1529002*
Y1527716*
X2018740Y1527700*
X2018878*
X2018894Y1527716*
Y1530343*
X2018724Y1530265D02*
Y1529228D01*
X2018674Y1529178*
X2018268*
X2018261*
X2017945Y1529223*
X2017934Y1529227*
X2017708Y1529317*
X2017682Y1529341*
X2017592Y1529521*
X2017588Y1529531*
X2017543Y1529712*
X2017542Y1529724*
X2017544Y1529738*
X2017634Y1530053*
X2017640Y1530067*
X2017731Y1530202*
X2017760Y1530223*
X2017938Y1530268*
X2018072Y1530312*
X2018088Y1530315*
X2018674*
X2018724Y1530265*
X2018372Y1430446D02*
X2018286Y1430836D01*
X2018117Y1431132*
X2017777Y1431301*
X2017383Y1431345*
X2017166*
X2016955Y1431303*
X2016828Y1431218*
X2016822Y1431215*
X2016732Y1431170*
X2016715Y1431165*
Y1431055*
X2016720Y1431050*
X2016778Y1431079*
X2016784Y1431082*
X2016919Y1431127*
X2016923Y1431128*
X2017103Y1431173*
X2017109Y1431174*
X2017424Y1431219*
X2017439*
X2017710Y1431174*
X2017720Y1431171*
X2017946Y1431081*
X2017966Y1431066*
X2018146Y1430840*
X2018157Y1430816*
X2018202Y1430501*
Y1430493*
Y1430485*
X2018157Y1430215*
X2018150Y1430197*
X2018015Y1429972*
X2017988Y1429950*
X2017717Y1429860*
X2017708Y1429858*
X2017347Y1429813*
X2017341Y1429812*
X2017116*
X2017103Y1429814*
X2016951Y1429852*
X2016931Y1429833*
X2016895Y1429760*
Y1428657*
X2016927Y1428592*
X2016992Y1428560*
X2018177*
X2018193Y1428576*
Y1428659*
X2018141Y1428685*
X2017116*
X2017066Y1428735*
Y1429637*
X2017116Y1429687*
X2017473*
X2017866Y1429731*
X2018162Y1429900*
X2018330Y1430151*
X2018372Y1430446*
X2016209Y1431284D02*
X2016193Y1431300D01*
X2016054*
X2016039Y1431284*
Y1431260*
X2016035Y1431241*
X2015674Y1430340*
X2015668Y1430328*
X2015533Y1430148*
X2015518Y1430135*
X2015293Y1430000*
X2015277Y1429994*
X2015052Y1429949*
X2015042Y1429948*
X2014726*
X2014676Y1429998*
Y1431284*
X2014660Y1431300*
X2014522*
X2014506Y1431284*
Y1428657*
X2014538Y1428592*
X2014603Y1428560*
X2015436*
X2015694Y1428689*
X2015903Y1428815*
X2015985Y1429020*
X2016028Y1429232*
X2015986Y1429486*
X2015904Y1429649*
X2015738Y1429773*
X2015519Y1429861*
X2015488Y1429907*
X2015510Y1429949*
X2015637Y1430034*
X2015809Y1430291*
X2015897Y1430512*
Y1430513*
X2016167Y1431142*
X2016209Y1431268*
Y1431284*
X2015856Y1429262D02*
X2015766Y1428947D01*
X2015760Y1428933*
X2015669Y1428798*
X2015640Y1428777*
X2015462Y1428732*
X2015328Y1428688*
X2015312Y1428685*
X2014726*
X2014676Y1428735*
Y1429772*
X2014726Y1429822*
X2015132*
X2015139*
X2015455Y1429777*
X2015466Y1429773*
X2015692Y1429683*
X2015718Y1429659*
X2015808Y1429479*
X2015812Y1429469*
X2015857Y1429288*
X2015856Y1429262*
X2016775Y1528486D02*
X2016745Y1528516D01*
X2016730Y1528552*
Y1528583*
X2015614Y1530414*
X2015587Y1530440*
X2015313*
X2015298Y1530424*
Y1528552*
X2015248Y1528502*
X2014899*
X2014847Y1528476*
Y1528402*
X2014899Y1528376*
X2015248*
X2015298Y1528326*
Y1527716*
X2015313Y1527700*
X2015452*
X2015468Y1527716*
Y1528326*
X2015518Y1528376*
X2016760*
X2016775Y1528392*
Y1528486*
X2016555Y1528502D02*
X2015518D01*
X2015468Y1528552*
Y1530265*
X2015561Y1530291*
X2016598Y1528578*
X2016555Y1528502*
X2014431Y1529589D02*
X2014388Y1529931D01*
X2014218Y1530186*
X2013963Y1530399*
X2013578Y1530484*
X2013281Y1530442*
X2013070Y1530315*
X2012903Y1530148*
X2012728Y1529536*
Y1528783*
X2012816Y1528432*
X2012946Y1528127*
X2013161Y1527869*
X2013460Y1527699*
X2013853Y1527655*
X2014022*
X2014285Y1527743*
X2014301Y1527745*
X2014325*
X2014341Y1527761*
Y1527870*
X2014268*
X2014188Y1527831*
X2014181Y1527828*
X2014046Y1527783*
X2014030Y1527780*
X2013625*
X2013602Y1527786*
X2013422Y1527876*
X2013412Y1527882*
X2013142Y1528107*
X2013129Y1528124*
X2012949Y1528484*
X2012944Y1528502*
X2012899Y1528952*
X2012898Y1528957*
X2012971Y1529002*
X2013233Y1528871*
X2013625Y1528827*
X2014013Y1528870*
X2014262Y1529037*
X2014388Y1529288*
X2014431Y1529589*
X2014261Y1529634D02*
X2014260Y1529625D01*
X2014215Y1529355*
X2014210Y1529341*
X2014120Y1529160*
X2014105Y1529143*
X2013925Y1529008*
X2013903Y1528998*
X2013633Y1528953*
X2013618*
X2013258Y1528998*
X2013244Y1529002*
X2012929Y1529137*
X2012898Y1529183*
Y1529498*
X2012899Y1529508*
X2012944Y1529734*
X2012947Y1529743*
X2013083Y1530059*
X2013090Y1530071*
X2013270Y1530296*
X2013301Y1530314*
X2013571Y1530359*
X2013587*
X2013902Y1530314*
X2013930Y1530300*
X2014111Y1530120*
X2014122Y1530103*
X2014212Y1529878*
X2014215Y1529869*
X2014260Y1529643*
X2014261Y1529634*
X2010407Y1426708D02*
X2010363Y1427327D01*
X2010188Y1427765*
X2010061Y1427934*
X2009894Y1428059*
X2009726Y1428101*
X2009461Y1428145*
X2009250*
X2009043Y1428062*
X2008787Y1427806*
X2008613Y1427371*
X2008569Y1427064*
Y1426754*
X2008613Y1426177*
X2008787Y1425700*
X2009088Y1425442*
X2009256Y1425358*
X2009510Y1425316*
X2009937Y1425401*
X2010189Y1425653*
X2010363Y1426132*
X2010407Y1426708*
X2010237Y1427068D02*
Y1426347D01*
X2010235Y1426333*
X2010145Y1426017*
X2010143Y1426013*
X2010053Y1425787*
X2010051Y1425783*
X2009961Y1425603*
X2009939Y1425581*
X2009758Y1425491*
X2009746Y1425486*
X2009520Y1425441*
X2009501*
X2009275Y1425486*
X2009269Y1425488*
X2009134Y1425533*
X2009112Y1425548*
X2008886Y1425819*
X2008876Y1425840*
X2008786Y1426246*
X2008785Y1426252*
X2008740Y1426702*
X2008739Y1426707*
Y1427023*
X2008740Y1427031*
X2008785Y1427302*
Y1427303*
X2008830Y1427529*
X2008838Y1427547*
X2008928Y1427682*
X2008931Y1427685*
X2009111Y1427911*
X2009136Y1427928*
X2009452Y1428018*
X2009474Y1428019*
X2009744Y1427974*
X2009766Y1427965*
X2009946Y1427829*
X2009956Y1427819*
X2010092Y1427639*
X2010099Y1427625*
X2010189Y1427354*
X2010191Y1427347*
X2010236Y1427076*
X2010237Y1427068*
X2008694Y1436343D02*
X2008662Y1436408D01*
X2008597Y1436440*
X2007764*
X2007506Y1436311*
X2007297Y1436185*
X2007215Y1435980*
X2007172Y1435768*
X2007214Y1435514*
X2007296Y1435351*
X2007462Y1435227*
X2007681Y1435139*
X2007712Y1435093*
X2007690Y1435051*
X2007563Y1434966*
X2007391Y1434709*
X2007303Y1434488*
Y1434487*
X2007033Y1433858*
X2006991Y1433732*
Y1433716*
X2007007Y1433700*
X2007146*
X2007161Y1433716*
Y1433740*
X2007165Y1433759*
X2007526Y1434660*
X2007532Y1434672*
X2007667Y1434852*
X2007682Y1434865*
X2007907Y1435000*
X2007923Y1435006*
X2008148Y1435051*
X2008158Y1435052*
X2008474*
X2008524Y1435002*
Y1433716*
X2008540Y1433700*
X2008678*
X2008694Y1433716*
Y1436343*
X2008524Y1436265D02*
Y1435228D01*
X2008474Y1435178*
X2008068*
X2008061*
X2007745Y1435223*
X2007734Y1435227*
X2007508Y1435317*
X2007482Y1435341*
X2007392Y1435521*
X2007388Y1435531*
X2007343Y1435712*
X2007342Y1435724*
X2007344Y1435738*
X2007434Y1436053*
X2007440Y1436067*
X2007531Y1436202*
X2007560Y1436223*
X2007738Y1436268*
X2007872Y1436312*
X2007888Y1436315*
X2008474*
X2008524Y1436265*
X2008290Y1421506D02*
X2008202Y1422122D01*
X2007984Y1422558*
X2007984D02*
X2007814Y1422729D01*
X2007601Y1422856*
X2007385Y1422900*
X2007125Y1422943*
X2006689Y1422856*
X2006515Y1422769*
X2006508Y1422766*
X2006384Y1422725*
X2006362Y1422703*
Y1422564*
X2006367Y1422559*
X2006606Y1422678*
X2006609Y1422680*
X2006835Y1422770*
X2006846Y1422773*
X2007162Y1422818*
X2007181Y1422817*
X2007542Y1422727*
X2007562Y1422717*
X2007832Y1422491*
X2007846Y1422473*
X2008026Y1422067*
X2008030Y1422055*
X2008120Y1421514*
Y1421506*
Y1421502*
X2008075Y1420961*
X2008070Y1420943*
X2007890Y1420582*
X2007874Y1420564*
X2007559Y1420338*
X2007552Y1420334*
X2007372Y1420244*
X2007349Y1420239*
X2007169*
X2007162*
X2006846Y1420285*
X2006835Y1420288*
X2006609Y1420378*
X2006606Y1420379*
X2006367Y1420499*
X2006362Y1420494*
Y1420355*
X2006387Y1420330*
X2006644Y1420201*
X2006862Y1420158*
X2007172Y1420114*
X2007430*
X2007640Y1420198*
X2007988Y1420458*
X2008116Y1420672*
X2008202Y1420888*
X2008290Y1421506*
X2007972Y1427246D02*
X2007886Y1427636D01*
X2007717Y1427932*
X2007377Y1428101*
X2006983Y1428145*
X2006766*
X2006555Y1428103*
X2006428Y1428018*
X2006422Y1428015*
X2006332Y1427970*
X2006315Y1427965*
Y1427855*
X2006320Y1427850*
X2006378Y1427879*
X2006384Y1427882*
X2006519Y1427927*
X2006523Y1427928*
X2006703Y1427973*
X2006709Y1427974*
X2007024Y1428019*
X2007039*
X2007310Y1427974*
X2007320Y1427971*
X2007546Y1427881*
X2007566Y1427866*
X2007746Y1427640*
X2007757Y1427616*
X2007802Y1427301*
Y1427293*
Y1427285*
X2007757Y1427015*
X2007750Y1426997*
X2007615Y1426772*
X2007588Y1426750*
X2007317Y1426660*
X2007308Y1426658*
X2006947Y1426613*
X2006941Y1426612*
X2006716*
X2006703Y1426614*
X2006551Y1426652*
X2006531Y1426633*
X2006495Y1426560*
Y1425457*
X2006527Y1425392*
X2006592Y1425360*
X2007777*
X2007793Y1425376*
Y1425459*
X2007741Y1425485*
X2006716*
X2006666Y1425535*
Y1426437*
X2006716Y1426487*
X2007073*
X2007466Y1426531*
X2007762Y1426700*
X2007930Y1426951*
X2007972Y1427246*
X2006953Y1502698D02*
X2006919Y1502802D01*
X2006830Y1503025*
X2006698Y1503288*
X2006476Y1503554*
X2006465Y1503586*
X2006469Y1503606*
X2006601Y1503915*
X2006645Y1504310*
Y1504613*
X2006560Y1504826*
X2006428Y1505046*
X2006303Y1505212*
X2005826Y1505386*
X2005252Y1505474*
X2004636Y1505386*
X2004203Y1505169*
X2003902Y1504783*
X2003815Y1504262*
X2003902Y1503744*
X2004202Y1503401*
X2004637Y1503183*
X2005211Y1503095*
X2005516*
X2005824Y1503183*
X2006085Y1503270*
X2006303Y1503445*
X2006375Y1503435*
X2006601Y1503119*
X2006606Y1503109*
X2006694Y1502888*
X2006782Y1502757*
X2006790Y1502730*
Y1502715*
X2006842Y1502689*
X2006945*
X2006953Y1502698*
X2006520Y1504533D02*
Y1504037D01*
X2006516Y1504018*
X2006426Y1503793*
X2006415Y1503776*
X2006144Y1503506*
X2006129Y1503495*
X2005724Y1503315*
X2005708Y1503311*
X2005212Y1503266*
X2005202*
X2004752Y1503311*
X2004736Y1503315*
X2004331Y1503495*
X2004315Y1503506*
X2004045Y1503776*
X2004031Y1503802*
X2003941Y1504252*
X2003940Y1504262*
X2003941Y1504271*
X2003986Y1504541*
X2003987Y1504545*
X2004032Y1504725*
X2004042Y1504746*
X2004313Y1505061*
X2004331Y1505074*
X2004736Y1505255*
X2004752Y1505259*
X2005202Y1505304*
X2005212*
X2005708Y1505259*
X2005724Y1505255*
X2006129Y1505074*
X2006144Y1505064*
X2006415Y1504794*
X2006426Y1504777*
X2006516Y1504551*
X2006520Y1504533*
X2005811Y1420449D02*
X2005807Y1420454D01*
X2005751Y1420426*
X2005619Y1420337*
X2005601Y1420330*
X2005375Y1420285*
X2005373*
X2005057Y1420239*
X2005042Y1420240*
X2004771Y1420285*
X2004750Y1420294*
X2004569Y1420429*
X2004559Y1420439*
X2004424Y1420620*
X2004415Y1420640*
X2004370Y1420865*
X2004369Y1420875*
X2004370Y1420885*
X2004415Y1421110*
X2004429Y1421136*
X2004609Y1421316*
X2004619Y1421324*
X2004844Y1421459*
X2004863Y1421465*
X2005178Y1421511*
X2005185*
X2005480*
X2005496Y1421527*
Y1421592*
X2005451Y1421636*
X2005230*
X2005222Y1421637*
X2004952Y1421682*
X2004934Y1421689*
X2004709Y1421824*
X2004694Y1421837*
X2004559Y1422017*
X2004550Y1422037*
X2004505Y1422263*
X2004504Y1422273*
X2004506Y1422285*
X2004551Y1422465*
X2004554Y1422475*
X2004645Y1422656*
X2004662Y1422675*
X2004797Y1422765*
X2004815Y1422772*
X2005040Y1422817*
X2005058Y1422818*
X2005329Y1422773*
X2005343Y1422768*
X2005523Y1422678*
X2005529Y1422675*
X2005661Y1422586*
X2005721Y1422556*
Y1422658*
X2005691Y1422688*
X2005676Y1422723*
Y1422738*
X2005614Y1422769*
X2005608Y1422772*
X2005481Y1422857*
X2005048Y1422943*
X2004706Y1422900*
X2004500Y1422777*
X2004376Y1422571*
X2004334Y1422318*
X2004377Y1422061*
X2004460Y1421853*
X2004624Y1421730*
X2004843Y1421643*
X2004875Y1421596*
X2004840Y1421549*
X2004575Y1421460*
X2004365Y1421334*
X2004241Y1421127*
X2004199Y1420918*
X2004242Y1420577*
X2004409Y1420326*
X2004705Y1420157*
X2005098Y1420114*
X2005356*
X2005572Y1420200*
X2005575Y1420201*
X2005707Y1420245*
X2005766Y1420275*
Y1420289*
X2005811Y1420339*
Y1420449*
X2005809Y1428084D02*
X2005793Y1428100D01*
X2005654*
X2005639Y1428084*
Y1428060*
X2005635Y1428041*
X2005274Y1427140*
X2005268Y1427128*
X2005133Y1426948*
X2005118Y1426935*
X2004893Y1426800*
X2004877Y1426794*
X2004652Y1426749*
X2004642Y1426748*
X2004326*
X2004276Y1426798*
Y1428084*
X2004260Y1428100*
X2004122*
X2004106Y1428084*
Y1425457*
X2004138Y1425392*
X2004203Y1425360*
X2005036*
X2005294Y1425489*
X2005503Y1425615*
X2005585Y1425820*
X2005628Y1426032*
X2005586Y1426286*
X2005504Y1426449*
X2005338Y1426573*
X2005119Y1426661*
X2005088Y1426707*
X2005110Y1426749*
X2005237Y1426834*
X2005409Y1427091*
X2005497Y1427312*
Y1427313*
X2005767Y1427942*
X2005809Y1428068*
Y1428084*
X2005456Y1426062D02*
X2005366Y1425747D01*
X2005360Y1425733*
X2005269Y1425598*
X2005240Y1425577*
X2005062Y1425532*
X2004928Y1425488*
X2004912Y1425485*
X2004326*
X2004276Y1425535*
Y1426572*
X2004326Y1426622*
X2004732*
X2004739*
X2005055Y1426577*
X2005066Y1426573*
X2005292Y1426483*
X2005318Y1426459*
X2005408Y1426279*
X2005412Y1426269*
X2005457Y1426088*
X2005456Y1426062*
X2006485Y1433945D02*
X2006480Y1433950D01*
X2006422Y1433921*
X2006416Y1433918*
X2006281Y1433873*
X2006277Y1433872*
X2006097Y1433827*
X2006091Y1433826*
X2005776Y1433781*
X2005761*
X2005490Y1433826*
X2005480Y1433829*
X2005254Y1433919*
X2005234Y1433934*
X2005054Y1434160*
X2005043Y1434184*
X2004998Y1434499*
Y1434507*
Y1434515*
X2005043Y1434785*
X2005050Y1434803*
X2005185Y1435028*
X2005212Y1435050*
X2005483Y1435140*
X2005492Y1435142*
X2005853Y1435187*
X2005859Y1435188*
X2006084*
X2006097Y1435186*
X2006249Y1435148*
X2006269Y1435167*
X2006305Y1435240*
Y1436343*
X2006273Y1436408*
X2006208Y1436440*
X2005023*
X2005007Y1436424*
Y1436341*
X2005059Y1436315*
X2006084*
X2006134Y1436265*
Y1435363*
X2006084Y1435313*
X2005727*
X2005334Y1435269*
X2005038Y1435100*
X2004870Y1434849*
X2004828Y1434554*
X2004914Y1434164*
X2005083Y1433868*
X2005423Y1433699*
X2005817Y1433655*
X2006034*
X2006245Y1433697*
X2006372Y1433782*
X2006378Y1433785*
X2006468Y1433830*
X2006485Y1433835*
Y1433945*
X2003512Y1421413D02*
X2003468Y1421816D01*
X2003423Y1422169*
X2003294Y1422472*
X2003079Y1422730*
X2002780Y1422900*
X2002432Y1422944*
X2002263*
X2002000Y1422856*
X2001984Y1422854*
X2001960*
X2001944Y1422838*
Y1422728*
X2002018*
X2002097Y1422768*
X2002104Y1422771*
X2002239Y1422816*
X2002255Y1422818*
X2002435*
X2002445Y1422817*
X2002670Y1422772*
X2002673*
X2002853Y1422727*
X2002879Y1422710*
X2003105Y1422440*
X2003111Y1422430*
X2003291Y1422069*
X2003296Y1422053*
X2003341Y1421647*
X2003342Y1421641*
X2003276Y1421594*
X2003141Y1421639*
X2003134Y1421642*
X2002959Y1421729*
X2002790Y1421772*
X2002577*
X2002227Y1421684*
X2001977Y1421559*
X2001852Y1421311*
X2001809Y1421010*
X2001852Y1420668*
X2002022Y1420413*
X2002281Y1420197*
X2002490Y1420114*
X2002702*
X2002959Y1420156*
X2003171Y1420284*
X2003338Y1420451*
X2003424Y1420709*
X2003512Y1421017*
Y1421413*
X2003342Y1421371D02*
Y1421100D01*
X2003341Y1421091*
X2003296Y1420865*
X2003295Y1420863*
X2003250Y1420683*
X2003246Y1420672*
X2003156Y1420492*
X2003147Y1420479*
X2002967Y1420299*
X2002967D02*
X2002939Y1420285D01*
X2002669Y1420240*
X2002652*
X2002382Y1420285*
X2002359Y1420295*
X2002134Y1420475*
X2002118Y1420496*
X2002028Y1420721*
X2002026Y1420730*
X2001980Y1420955*
Y1420965*
Y1420973*
X2002025Y1421244*
X2002030Y1421258*
X2002120Y1421438*
X2002135Y1421456*
X2002315Y1421591*
X2002337Y1421601*
X2002607Y1421646*
X2002616*
X2002796*
X2002808Y1421645*
X2002988Y1421600*
X2002999Y1421596*
X2003179Y1421506*
X2003184Y1421503*
X2003320Y1421413*
X2003342Y1421371*
X2004141Y1433810D02*
X2004111Y1433840D01*
X2004096Y1433875*
Y1433901*
X2003526Y1434515*
X2003303Y1434693*
X2003292Y1434706*
X2003157Y1434930*
X2002933Y1435244*
X2002926Y1435257*
X2002836Y1435528*
X2002834Y1435543*
Y1435769*
X2002835Y1435779*
X2002880Y1436004*
X2002887Y1436022*
X2002977Y1436157*
X2002989Y1436170*
X2003169Y1436305*
X2003189Y1436314*
X2003415Y1436359*
X2003434*
X2003660Y1436314*
X2003669Y1436311*
X2003894Y1436221*
X2003903Y1436216*
X2004036Y1436128*
X2004091Y1436100*
X2004096Y1436105*
Y1436244*
X2004071Y1436269*
X2003813Y1436398*
X2003639Y1436441*
X2003423Y1436485*
X2003082Y1436442*
X2002831Y1436274*
X2002706Y1436067*
X2002663Y1435810*
Y1435554*
X2002793Y1435251*
X2003016Y1434894*
X2003017Y1434893*
X2003149Y1434673*
X2003911Y1433911*
X2003925Y1433875*
X2003875Y1433825*
X2002544*
X2002528Y1433810*
Y1433716*
X2002544Y1433700*
X2004125*
X2004141Y1433716*
Y1433810*
X2005333Y1473184D02*
X2005317Y1473200D01*
X2003735*
X2003720Y1473184*
Y1473090*
X2003750Y1473060*
X2003765Y1473025*
Y1472999*
X2004335Y1472385*
X2004557Y1472207*
X2004569Y1472194*
X2004703Y1471970*
X2004928Y1471656*
X2004934Y1471643*
X2005024Y1471372*
X2005027Y1471357*
Y1471131*
X2005026Y1471121*
X2004981Y1470896*
X2004974Y1470878*
X2004883Y1470743*
X2004872Y1470730*
X2004691Y1470595*
X2004671Y1470586*
X2004446Y1470541*
X2004426*
X2004201Y1470586*
X2004192Y1470589*
X2003967Y1470679*
X2003958Y1470684*
X2003825Y1470772*
X2003770Y1470800*
X2003765Y1470795*
Y1470656*
X2003789Y1470631*
X2004048Y1470502*
X2004222Y1470459*
X2004438Y1470415*
X2004779Y1470458*
X2005030Y1470626*
X2005155Y1470833*
X2005198Y1471090*
Y1471346*
X2005068Y1471649*
X2004844Y1472006*
Y1472007*
X2004712Y1472227*
X2003950Y1472989*
X2003935Y1473025*
X2003985Y1473075*
X2005317*
X2005333Y1473090*
Y1473184*
X2006645Y1502003D02*
X2006603Y1502214D01*
X2006518Y1502341*
X2006515Y1502346*
X2006470Y1502437*
X2006465Y1502454*
X2006355*
X2006350Y1502449*
X2006379Y1502391*
X2006382Y1502385*
X2006427Y1502249*
X2006428Y1502246*
X2006473Y1502065*
X2006474Y1502060*
X2006519Y1501745*
X2006520Y1501738*
X2006519Y1501729*
X2006474Y1501459*
X2006471Y1501449*
X2006381Y1501223*
X2006366Y1501203*
X2006140Y1501022*
X2006116Y1501012*
X2005801Y1500967*
X2005785*
X2005515Y1501012*
X2005497Y1501019*
X2005272Y1501154*
X2005250Y1501181*
X2005160Y1501451*
X2005158Y1501461*
X2005113Y1501822*
X2005112Y1501828*
Y1502053*
X2005114Y1502065*
X2005152Y1502218*
X2005133Y1502238*
X2005060Y1502274*
X2003957*
X2003892Y1502241*
X2003860Y1502177*
Y1500992*
X2003876Y1500976*
X2003959*
X2003985Y1501028*
Y1502053*
X2004035Y1502103*
X2004937*
X2004987Y1502053*
Y1501695*
X2005031Y1501303*
X2005200Y1501006*
X2005451Y1500839*
X2005746Y1500797*
X2006136Y1500883*
X2006432Y1501052*
X2006601Y1501391*
X2006645Y1501786*
Y1502003*
X2006862Y1523531D02*
X2006820Y1523866D01*
X2006612Y1524074*
X2006357Y1524201*
X2005966Y1524245*
X2005618Y1524201*
X2005321Y1524074*
X2005156Y1523868*
X2005115Y1523619*
X2005157Y1523366*
X2005283Y1523156*
X2005497Y1522985*
X2005763Y1522852*
X2005790Y1522807*
X2005763Y1522763*
X2005499Y1522631*
X2005332Y1522464*
X2005247Y1522251*
X2005205Y1522084*
X2005246Y1521837*
X2005414Y1521627*
X2005668Y1521458*
X2006011Y1521415*
X2006357Y1521458*
X2006606Y1521583*
X2006730Y1521789*
X2006771Y1521996*
X2006729Y1522207*
X2006645Y1522416*
X2006433Y1522586*
X2006210Y1522719*
X2006186Y1522762*
X2006208Y1522804*
X2006477Y1522983*
X2006696Y1523158*
X2006820Y1523324*
X2006862Y1523531*
X2006690Y1523562D02*
X2006645Y1523381D01*
X2006637Y1523363*
X2006501Y1523183*
X2006491Y1523173*
X2006311Y1523038*
X2006306Y1523034*
X2005990Y1522854*
X2005943Y1522853*
X2005673Y1522988*
X2005664Y1522994*
X2005438Y1523174*
X2005425Y1523191*
X2005335Y1523371*
X2005331Y1523381*
X2005286Y1523562*
X2005284Y1523574*
X2005285Y1523584*
X2005330Y1523809*
X2005344Y1523835*
X2005479Y1523970*
X2005492Y1523979*
X2005673Y1524069*
X2005688Y1524074*
X2006004Y1524119*
X2006019*
X2006289Y1524074*
X2006304Y1524069*
X2006484Y1523979*
X2006497Y1523970*
X2006632Y1523835*
X2006646Y1523809*
X2006691Y1523584*
X2006690Y1523562*
X2006602Y1522041D02*
X2006600Y1522029D01*
X2006555Y1521849*
X2006548Y1521833*
X2006458Y1521698*
X2006439Y1521681*
X2006258Y1521591*
X2006244Y1521586*
X2005974Y1521541*
X2005956*
X2005730Y1521586*
X2005718Y1521591*
X2005537Y1521681*
X2005518Y1521698*
X2005428Y1521833*
X2005421Y1521849*
X2005376Y1522029*
X2005375Y1522041*
X2005376Y1522053*
X2005421Y1522233*
X2005425Y1522244*
X2005515Y1522424*
X2005530Y1522442*
X2005710Y1522577*
X2005718Y1522582*
X2005988Y1522717*
X2006036Y1522715*
X2006262Y1522580*
X2006266Y1522577*
X2006446Y1522442*
X2006461Y1522424*
X2006551Y1522244*
X2006555Y1522233*
X2006600Y1522053*
X2006602Y1522041*
X2003079Y1473184D02*
X2003063Y1473200D01*
X2001572*
X2001556Y1473184*
Y1473135*
X2001586Y1473105*
X2001601Y1473075*
X2002227*
X2002277Y1473025*
Y1470725*
X2002201Y1470683*
X2001617Y1471042*
X2001561Y1471070*
X2001556Y1471065*
Y1470955*
X2001601Y1470906*
Y1470889*
X2002253Y1470498*
X2002262Y1470490*
X2002293Y1470460*
X2002432*
X2002448Y1470476*
Y1473025*
X2002498Y1473075*
X2003063*
X2003079Y1473090*
Y1473184*
X2004653Y1523498D02*
X2004601Y1523524D01*
X2004252*
X2004202Y1523574*
Y1524184*
X2004187Y1524200*
X2004048*
X2004032Y1524184*
Y1523574*
X2003982Y1523524*
X2002740*
X2002725Y1523508*
Y1523414*
X2002755Y1523384*
X2002770Y1523348*
Y1523317*
X2003886Y1521486*
X2003913Y1521460*
X2004187*
X2004202Y1521476*
Y1523348*
X2004252Y1523398*
X2004601*
X2004653Y1523424*
Y1523498*
X2004032Y1523348D02*
Y1521635D01*
X2003939Y1521609*
X2002902Y1523322*
X2002895Y1523348*
X2002945Y1523398*
X2003982*
X2004032Y1523348*
X2000780Y1472116D02*
X2000692Y1472422D01*
X2000606Y1472638*
X2000434Y1472853*
X2000261Y1472983*
X2000043Y1473114*
X1999741Y1473200*
X1998903*
X1998838Y1473168*
X1998806Y1473103*
Y1470557*
X1998838Y1470492*
X1998903Y1470460*
X1999473*
X1999785Y1470504*
X2000046Y1470548*
X2000476Y1470806*
X2000691Y1471237*
X2000780Y1471811*
Y1472116*
X2000609Y1472123D02*
Y1471807D01*
Y1471802*
X2000564Y1471352*
X2000558Y1471332*
X2000332Y1470927*
X2000318Y1470910*
X2000002Y1470685*
X1999983Y1470676*
X1999757Y1470631*
X1999756*
X1999485Y1470586*
X1999477Y1470585*
X1999026*
X1998976Y1470635*
Y1473025*
X1999026Y1473075*
X1999748*
X1999766Y1473071*
X1999992Y1472981*
X1999995Y1472979*
X2000176Y1472889*
X2000181Y1472886*
X2000316Y1472796*
X2000332Y1472778*
X2000558Y1472373*
X2000563Y1472358*
X2000608Y1472133*
X2000609Y1472123*
X2002309Y1524184D02*
X2002293Y1524200D01*
X2002154*
X2002139Y1524184*
Y1524160*
X2002135Y1524141*
X2001774Y1523240*
X2001768Y1523228*
X2001633Y1523048*
X2001618Y1523035*
X2001393Y1522900*
X2001377Y1522894*
X2001152Y1522849*
X2001142Y1522848*
X2000826*
X2000776Y1522898*
Y1524184*
X2000760Y1524200*
X2000622*
X2000606Y1524184*
Y1521557*
X2000638Y1521492*
X2000703Y1521460*
X2001536*
X2001794Y1521589*
X2002003Y1521715*
X2002085Y1521920*
X2002128Y1522132*
X2002086Y1522386*
X2002004Y1522549*
X2001838Y1522673*
X2001619Y1522761*
X2001588Y1522807*
X2001610Y1522849*
X2001737Y1522934*
X2001909Y1523191*
X2001997Y1523412*
Y1523413*
X2002267Y1524042*
X2002309Y1524168*
Y1524184*
X2001956Y1522162D02*
X2001866Y1521847D01*
X2001860Y1521833*
X2001769Y1521698*
X2001740Y1521677*
X2001562Y1521632*
X2001428Y1521588*
X2001412Y1521585*
X2000826*
X2000776Y1521635*
Y1522672*
X2000826Y1522722*
X2001232*
X2001239*
X2001555Y1522677*
X2001566Y1522673*
X2001792Y1522583*
X2001818Y1522559*
X2001908Y1522379*
X2001912Y1522369*
X2001957Y1522188*
X2001956Y1522162*
X1986094Y1432643D02*
X1986062Y1432708D01*
X1985997Y1432740*
X1985164*
X1984906Y1432611*
X1984697Y1432485*
X1984615Y1432280*
X1984572Y1432068*
X1984614Y1431814*
X1984696Y1431651*
X1984862Y1431527*
X1985081Y1431439*
X1985112Y1431393*
X1985090Y1431351*
X1984963Y1431266*
X1984791Y1431009*
X1984703Y1430788*
Y1430787*
X1984433Y1430158*
X1984391Y1430032*
Y1430016*
X1984407Y1430000*
X1984546*
X1984561Y1430016*
Y1430040*
X1984565Y1430059*
X1984926Y1430960*
X1984932Y1430972*
X1985067Y1431152*
X1985082Y1431165*
X1985307Y1431300*
X1985323Y1431306*
X1985548Y1431351*
X1985558Y1431352*
X1985874*
X1985924Y1431302*
Y1430016*
X1985940Y1430000*
X1986078*
X1986094Y1430016*
Y1432643*
X1985924Y1432565D02*
Y1431528D01*
X1985874Y1431478*
X1985468*
X1985461*
X1985145Y1431523*
X1985134Y1431527*
X1984908Y1431617*
X1984882Y1431641*
X1984792Y1431821*
X1984788Y1431831*
X1984743Y1432012*
X1984742Y1432024*
X1984744Y1432038*
X1984834Y1432353*
X1984840Y1432367*
X1984931Y1432502*
X1984960Y1432523*
X1985138Y1432568*
X1985272Y1432612*
X1985288Y1432615*
X1985874*
X1985924Y1432565*
X1985890Y1421706D02*
X1985802Y1422322D01*
X1985584Y1422758*
X1985584D02*
X1985414Y1422929D01*
X1985201Y1423056*
X1984985Y1423100*
X1984725Y1423143*
X1984289Y1423056*
X1984115Y1422969*
X1984108Y1422966*
X1983984Y1422925*
X1983962Y1422903*
Y1422764*
X1983967Y1422759*
X1984206Y1422878*
X1984209Y1422880*
X1984435Y1422970*
X1984446Y1422973*
X1984762Y1423018*
X1984781Y1423017*
X1985142Y1422927*
X1985162Y1422917*
X1985432Y1422691*
X1985446Y1422673*
X1985626Y1422267*
X1985630Y1422255*
X1985720Y1421714*
Y1421706*
Y1421702*
X1985675Y1421161*
X1985670Y1421143*
X1985490Y1420782*
X1985474Y1420764*
X1985159Y1420538*
X1985152Y1420534*
X1984972Y1420444*
X1984949Y1420439*
X1984769*
X1984762*
X1984446Y1420485*
X1984435Y1420488*
X1984209Y1420578*
X1984206Y1420579*
X1983967Y1420699*
X1983962Y1420694*
Y1420555*
X1983987Y1420530*
X1984244Y1420401*
X1984462Y1420358*
X1984772Y1420314*
X1985030*
X1985240Y1420398*
X1985588Y1420658*
X1985716Y1420872*
X1985802Y1421088*
X1985890Y1421706*
X1983411Y1420649D02*
X1983407Y1420654D01*
X1983351Y1420626*
X1983219Y1420537*
X1983201Y1420530*
X1982975Y1420485*
X1982973*
X1982657Y1420439*
X1982642Y1420440*
X1982371Y1420485*
X1982350Y1420494*
X1982169Y1420629*
X1982159Y1420639*
X1982024Y1420820*
X1982015Y1420840*
X1981970Y1421065*
X1981969Y1421075*
X1981970Y1421085*
X1982015Y1421310*
X1982029Y1421336*
X1982209Y1421516*
X1982219Y1421524*
X1982444Y1421659*
X1982463Y1421665*
X1982778Y1421711*
X1982785*
X1983080*
X1983096Y1421727*
Y1421792*
X1983051Y1421836*
X1982830*
X1982822Y1421837*
X1982552Y1421882*
X1982534Y1421889*
X1982309Y1422024*
X1982294Y1422037*
X1982159Y1422217*
X1982150Y1422237*
X1982105Y1422463*
X1982104Y1422473*
X1982106Y1422485*
X1982151Y1422665*
X1982154Y1422675*
X1982245Y1422856*
X1982262Y1422875*
X1982397Y1422965*
X1982415Y1422972*
X1982640Y1423017*
X1982658Y1423018*
X1982929Y1422973*
X1982943Y1422968*
X1983123Y1422878*
X1983129Y1422875*
X1983261Y1422786*
X1983321Y1422756*
Y1422858*
X1983291Y1422888*
X1983276Y1422923*
Y1422938*
X1983214Y1422969*
X1983208Y1422972*
X1983081Y1423057*
X1982648Y1423143*
X1982306Y1423100*
X1982100Y1422977*
X1981976Y1422771*
X1981934Y1422518*
X1981977Y1422261*
X1982060Y1422053*
X1982224Y1421930*
X1982443Y1421843*
X1982475Y1421796*
X1982440Y1421749*
X1982175Y1421660*
X1981965Y1421534*
X1981841Y1421327*
X1981799Y1421118*
X1981842Y1420777*
X1982009Y1420526*
X1982305Y1420357*
X1982698Y1420314*
X1982956*
X1983172Y1420400*
X1983175Y1420401*
X1983307Y1420445*
X1983366Y1420475*
Y1420489*
X1983411Y1420539*
Y1420649*
X1983885Y1430245D02*
X1983880Y1430250D01*
X1983822Y1430221*
X1983816Y1430218*
X1983681Y1430173*
X1983677Y1430172*
X1983497Y1430127*
X1983491Y1430126*
X1983176Y1430081*
X1983161*
X1982890Y1430126*
X1982880Y1430129*
X1982654Y1430219*
X1982634Y1430234*
X1982454Y1430460*
X1982443Y1430484*
X1982398Y1430799*
Y1430807*
Y1430815*
X1982443Y1431085*
X1982450Y1431103*
X1982585Y1431328*
X1982612Y1431350*
X1982883Y1431440*
X1982892Y1431442*
X1983253Y1431487*
X1983259Y1431488*
X1983484*
X1983497Y1431486*
X1983649Y1431448*
X1983669Y1431467*
X1983705Y1431540*
Y1432643*
X1983673Y1432708*
X1983608Y1432740*
X1982423*
X1982407Y1432724*
Y1432641*
X1982459Y1432615*
X1983484*
X1983534Y1432565*
Y1431663*
X1983484Y1431613*
X1983127*
X1982734Y1431569*
X1982438Y1431400*
X1982270Y1431149*
X1982228Y1430854*
X1982314Y1430464*
X1982483Y1430168*
X1982823Y1429999*
X1983217Y1429955*
X1983434*
X1983645Y1429997*
X1983772Y1430082*
X1983778Y1430085*
X1983868Y1430130*
X1983885Y1430135*
Y1430245*
X1981157Y1420603D02*
X1981152Y1420608D01*
X1981094Y1420579*
X1981088Y1420577*
X1980953Y1420532*
X1980949Y1420531*
X1980769Y1420486*
X1980764Y1420485*
X1980448Y1420439*
X1980433Y1420440*
X1980162Y1420485*
X1980152Y1420488*
X1979927Y1420578*
X1979906Y1420593*
X1979726Y1420818*
X1979715Y1420843*
X1979670Y1421158*
Y1421165*
Y1421173*
X1979715Y1421444*
X1979722Y1421461*
X1979857Y1421687*
X1979884Y1421708*
X1979884D02*
X1980155Y1421799D01*
X1980164Y1421801*
X1980525Y1421846*
X1980531*
X1980757*
X1980769Y1421845*
X1980922Y1421807*
X1980941Y1421826*
X1980977Y1421898*
Y1423002*
X1980945Y1423066*
X1980880Y1423099*
X1979695*
X1979680Y1423083*
Y1422999*
X1979731Y1422973*
X1980757*
X1980807Y1422923*
Y1422022*
X1980757Y1421972*
X1980399*
X1980006Y1421928*
X1979710Y1421759*
X1979542Y1421508*
X1979500Y1421212*
X1979587Y1420823*
X1979756Y1420527*
X1980095Y1420357*
X1980489Y1420314*
X1980707*
X1980917Y1420356*
X1981044Y1420440*
X1981050Y1420443*
X1981140Y1420489*
X1981157Y1420494*
Y1420603*
X1981406Y1432245D02*
X1981361Y1432294D01*
Y1432311*
X1980709Y1432702*
X1980699Y1432710*
X1980669Y1432740*
X1980530*
X1980514Y1432724*
Y1430175*
X1980464Y1430125*
X1979899*
X1979883Y1430110*
Y1430016*
X1979899Y1430000*
X1981390*
X1981406Y1430016*
Y1430065*
X1981375Y1430095*
X1981361Y1430125*
X1980734*
X1980684Y1430175*
Y1432475*
X1980761Y1432517*
X1981345Y1432158*
X1981401Y1432130*
X1981406Y1432135*
Y1432245*
X1979500Y1421212D02*
X1979500D01*
X1979600Y1420799D02*
Y1421594D01*
X1979700Y1420624D02*
Y1420949D01*
Y1421351D02*
Y1421744D01*
Y1422989D02*
Y1423099D01*
X1979800Y1420505D02*
Y1420725D01*
Y1421592D02*
Y1421810D01*
Y1422973D02*
Y1423099D01*
X1979900Y1420455D02*
Y1420600D01*
Y1421714D02*
Y1421868D01*
Y1422973D02*
Y1423099D01*
Y1430000D02*
Y1430125D01*
X1980000Y1420405D02*
Y1420548D01*
Y1421747D02*
Y1421925D01*
Y1422973D02*
Y1423099D01*
Y1430000D02*
Y1430125D01*
X1980100Y1420357D02*
Y1420508D01*
Y1421780D02*
Y1421939D01*
Y1422973D02*
Y1423099D01*
Y1430000D02*
Y1430125D01*
X1980200Y1420346D02*
Y1420478D01*
Y1421805D02*
Y1421950D01*
Y1422973D02*
Y1423099D01*
Y1430000D02*
Y1430125D01*
X1980300Y1420335D02*
Y1420462D01*
Y1421818D02*
Y1421961D01*
Y1422973D02*
Y1423099D01*
Y1430000D02*
Y1430125D01*
X1980400Y1420323D02*
Y1420445D01*
Y1421830D02*
Y1421972D01*
Y1422973D02*
Y1423099D01*
Y1430000D02*
Y1430125D01*
X1980500Y1420314D02*
Y1420447D01*
Y1421843D02*
Y1421972D01*
Y1422973D02*
Y1423099D01*
Y1430000D02*
Y1430141D01*
X1980600Y1420314D02*
Y1420461D01*
Y1421846D02*
Y1421972D01*
Y1422973D02*
Y1423099D01*
Y1430000D02*
Y1432740D01*
X1980700Y1420314D02*
Y1420475D01*
Y1421846D02*
Y1421972D01*
Y1422973D02*
Y1423099D01*
Y1430000D02*
Y1430139D01*
Y1432511D02*
Y1432709D01*
X1980800Y1420332D02*
Y1420493D01*
Y1421837D02*
Y1421997D01*
Y1422948D02*
Y1423099D01*
Y1430000D02*
Y1430125D01*
Y1432493D02*
Y1432647D01*
X1980900Y1420352D02*
Y1420518D01*
Y1421812D02*
Y1423089D01*
Y1430000D02*
Y1430125D01*
Y1432431D02*
Y1432587D01*
X1981000Y1420411D02*
Y1420547D01*
Y1430000D02*
Y1430125D01*
Y1432370D02*
Y1432527D01*
X1981100Y1420469D02*
Y1420582D01*
Y1430000D02*
Y1430125D01*
Y1432308D02*
Y1432467D01*
X1981200Y1430000D02*
Y1430125D01*
Y1432247D02*
Y1432407D01*
X1981300Y1430000D02*
Y1430125D01*
Y1432185D02*
Y1432347D01*
X1981400Y1430010D02*
Y1430070D01*
Y1432130D02*
Y1432245D01*
X1981800Y1421110D02*
Y1421123D01*
X1981900Y1420690D02*
Y1421426D01*
X1982000Y1420540D02*
Y1420914D01*
Y1421236D02*
Y1421555D01*
Y1422203D02*
Y1422810D01*
X1982100Y1420474D02*
Y1420718D01*
Y1421407D02*
Y1421615D01*
Y1422023D02*
Y1422976D01*
X1982200Y1420417D02*
Y1420606D01*
Y1421507D02*
Y1421669D01*
Y1421948D02*
Y1422163D01*
Y1422766D02*
Y1423037D01*
X1982300Y1420360D02*
Y1420531D01*
Y1421572D02*
Y1421702D01*
Y1421900D02*
Y1422031D01*
Y1422900D02*
Y1423097D01*
Y1430529D02*
Y1431194D01*
X1982400Y1420347D02*
Y1420480D01*
Y1421632D02*
Y1421735D01*
Y1421860D02*
Y1421969D01*
Y1422967D02*
Y1423112D01*
Y1430314D02*
Y1430786D01*
Y1430825D02*
Y1431344D01*
X1982500Y1420336D02*
Y1420463D01*
Y1421671D02*
Y1421909D01*
Y1422989D02*
Y1423125D01*
Y1430160D02*
Y1430402D01*
Y1431187D02*
Y1431436D01*
Y1432615D02*
Y1432740D01*
X1982600Y1420324D02*
Y1420447D01*
Y1421685D02*
Y1421874D01*
Y1423009D02*
Y1423137D01*
Y1430110D02*
Y1430277D01*
Y1431344D02*
Y1431493D01*
Y1432615D02*
Y1432740D01*
X1982700Y1420314D02*
Y1420446D01*
Y1421699D02*
Y1421858D01*
Y1423011D02*
Y1423133D01*
Y1430060D02*
Y1430201D01*
Y1431379D02*
Y1431550D01*
Y1432615D02*
Y1432740D01*
X1982800Y1420314D02*
Y1420460D01*
Y1421711D02*
Y1421841D01*
Y1422994D02*
Y1423113D01*
Y1430010D02*
Y1430161D01*
Y1431413D02*
Y1431577D01*
Y1432615D02*
Y1432740D01*
X1982900Y1420314D02*
Y1420474D01*
Y1421711D02*
Y1421836D01*
Y1422977D02*
Y1423093D01*
Y1429990D02*
Y1430124D01*
Y1431443D02*
Y1431588D01*
Y1432615D02*
Y1432740D01*
X1983000Y1420331D02*
Y1420490D01*
Y1421711D02*
Y1421836D01*
Y1422940D02*
Y1423073D01*
Y1429979D02*
Y1430108D01*
Y1431456D02*
Y1431599D01*
Y1432615D02*
Y1432740D01*
X1983100Y1420371D02*
Y1420510D01*
Y1422890D02*
Y1423044D01*
Y1429968D02*
Y1430091D01*
Y1431468D02*
Y1431610D01*
Y1432615D02*
Y1432740D01*
X1983200Y1420409D02*
Y1420530D01*
Y1422827D02*
Y1422977D01*
Y1429957D02*
Y1430084D01*
Y1431481D02*
Y1431613D01*
Y1432615D02*
Y1432740D01*
X1983300Y1420443D02*
Y1420592D01*
Y1422767D02*
Y1422879D01*
Y1429955D02*
Y1430099D01*
Y1431488D02*
Y1431613D01*
Y1432615D02*
Y1432740D01*
X1983400Y1420536D02*
Y1420650D01*
Y1429955D02*
Y1430113D01*
Y1431488D02*
Y1431613D01*
Y1432615D02*
Y1432740D01*
X1983500Y1429968D02*
Y1430128D01*
Y1431485D02*
Y1431616D01*
Y1432612D02*
Y1432740D01*
X1983600Y1429988D02*
Y1430153D01*
Y1431460D02*
Y1432740D01*
X1983700Y1430034D02*
Y1430180D01*
Y1431530D02*
Y1432653D01*
X1983800Y1430096D02*
Y1430213D01*
X1984000Y1420524D02*
Y1420682D01*
Y1422775D02*
Y1422930D01*
X1984100Y1420474D02*
Y1420632D01*
Y1422825D02*
Y1422963D01*
X1984200Y1420424D02*
Y1420582D01*
Y1422875D02*
Y1423011D01*
X1984300Y1420390D02*
Y1420541D01*
Y1422916D02*
Y1423058D01*
X1984400Y1420370D02*
Y1420501D01*
Y1422956D02*
Y1423078D01*
Y1430007D02*
Y1430059D01*
X1984500Y1420352D02*
Y1420477D01*
Y1422981D02*
Y1423098D01*
Y1430000D02*
Y1430314D01*
X1984600Y1420338D02*
Y1420463D01*
Y1422995D02*
Y1423118D01*
Y1430146D02*
Y1430548D01*
Y1431901D02*
Y1432207D01*
X1984700Y1420324D02*
Y1420448D01*
Y1423009D02*
Y1423138D01*
Y1430396D02*
Y1430781D01*
Y1431648D02*
Y1432487D01*
X1984800Y1420314D02*
Y1420439D01*
Y1423012D02*
Y1423130D01*
Y1430646D02*
Y1431022D01*
Y1431573D02*
Y1431805D01*
Y1432234D02*
Y1432547D01*
X1984900Y1420314D02*
Y1420439D01*
Y1422987D02*
Y1423114D01*
Y1430896D02*
Y1431172D01*
Y1431511D02*
Y1431621D01*
Y1432457D02*
Y1432607D01*
X1985000Y1420314D02*
Y1420458D01*
Y1422962D02*
Y1423097D01*
Y1431062D02*
Y1431291D01*
Y1431471D02*
Y1431580D01*
Y1432533D02*
Y1432658D01*
X1985100Y1420342D02*
Y1420508D01*
Y1422937D02*
Y1423077D01*
Y1431176D02*
Y1431360D01*
Y1431425D02*
Y1431540D01*
Y1432558D02*
Y1432708D01*
X1985200Y1420382D02*
Y1420568D01*
Y1422885D02*
Y1423057D01*
Y1431236D02*
Y1431516D01*
Y1432588D02*
Y1432740D01*
X1985300Y1420443D02*
Y1420639D01*
Y1422801D02*
Y1422997D01*
Y1431296D02*
Y1431501D01*
Y1432615D02*
Y1432740D01*
X1985400Y1420518D02*
Y1420711D01*
Y1422718D02*
Y1422937D01*
Y1431322D02*
Y1431487D01*
Y1432615D02*
Y1432740D01*
X1985500Y1420593D02*
Y1420803D01*
Y1422551D02*
Y1422843D01*
Y1431342D02*
Y1431478D01*
Y1432615D02*
Y1432740D01*
X1985600Y1420679D02*
Y1421003D01*
Y1422326D02*
Y1422727D01*
Y1431352D02*
Y1431478D01*
Y1432615D02*
Y1432740D01*
X1985700Y1420846D02*
Y1421458D01*
Y1421833D02*
Y1422527D01*
Y1431352D02*
Y1431478D01*
Y1432615D02*
Y1432740D01*
X1985800Y1421083D02*
Y1422327D01*
Y1431352D02*
Y1431478D01*
Y1432615D02*
Y1432740D01*
X1985900Y1431345D02*
Y1431485D01*
Y1432607D02*
Y1432740D01*
X1986000Y1430000D02*
Y1432739D01*
X1998900Y1470461D02*
Y1473199D01*
X1999000Y1470460D02*
Y1470593D01*
Y1473067D02*
Y1473200D01*
X1999100Y1470460D02*
Y1470585D01*
Y1473075D02*
Y1473200D01*
X1999200Y1470460D02*
Y1470585D01*
Y1473075D02*
Y1473200D01*
X1999300Y1470460D02*
Y1470585D01*
Y1473075D02*
Y1473200D01*
X1999400Y1470460D02*
Y1470585D01*
Y1473075D02*
Y1473200D01*
X1999500Y1470464D02*
Y1470588D01*
Y1473075D02*
Y1473200D01*
X1999600Y1470478D02*
Y1470605D01*
Y1473075D02*
Y1473200D01*
X1999700Y1470492D02*
Y1470622D01*
Y1473075D02*
Y1473200D01*
X1999800Y1470507D02*
Y1470640D01*
Y1473057D02*
Y1473183D01*
X1999900Y1470524D02*
Y1470660D01*
Y1473017D02*
Y1473154D01*
X2000000Y1470540D02*
Y1470683D01*
Y1472977D02*
Y1473126D01*
X2000100Y1470580D02*
Y1470755D01*
Y1472927D02*
Y1473079D01*
X2000200Y1470640D02*
Y1470826D01*
Y1472873D02*
Y1473019D01*
X2000300Y1470700D02*
Y1470898D01*
Y1472807D02*
Y1472953D01*
X2000400Y1470760D02*
Y1471049D01*
Y1472656D02*
Y1472878D01*
X2000500Y1470854D02*
Y1471229D01*
Y1472476D02*
Y1472770D01*
X2000600Y1471054D02*
Y1471715D01*
Y1472173D02*
Y1472645D01*
X2000700Y1471294D02*
Y1472394D01*
Y1521461D02*
Y1524200D01*
X2000800Y1521460D02*
Y1521593D01*
Y1522715D02*
Y1522855D01*
X2000900Y1521460D02*
Y1521585D01*
Y1522722D02*
Y1522848D01*
X2001000Y1521460D02*
Y1521585D01*
Y1522722D02*
Y1522848D01*
X2001100Y1521460D02*
Y1521585D01*
Y1522722D02*
Y1522848D01*
X2001200Y1521460D02*
Y1521585D01*
Y1522722D02*
Y1522858D01*
X2001300Y1521460D02*
Y1521585D01*
Y1522713D02*
Y1522878D01*
X2001400Y1521460D02*
Y1521585D01*
Y1522699D02*
Y1522904D01*
X2001500Y1521460D02*
Y1521612D01*
Y1522684D02*
Y1522964D01*
X2001600Y1470915D02*
Y1471051D01*
Y1473079D02*
Y1473200D01*
Y1521492D02*
Y1521642D01*
Y1522660D02*
Y1522775D01*
Y1522840D02*
Y1523024D01*
X2001700Y1470829D02*
Y1470991D01*
Y1473075D02*
Y1473200D01*
Y1521542D02*
Y1521667D01*
Y1522620D02*
Y1522729D01*
Y1522909D02*
Y1523138D01*
X2001800Y1470769D02*
Y1470929D01*
Y1473075D02*
Y1473200D01*
Y1521593D02*
Y1521743D01*
Y1522579D02*
Y1522689D01*
Y1523028D02*
Y1523304D01*
X2001900Y1420596D02*
Y1421406D01*
Y1470709D02*
Y1470868D01*
Y1473075D02*
Y1473200D01*
Y1521653D02*
Y1521966D01*
Y1522395D02*
Y1522627D01*
Y1523178D02*
Y1523554D01*
X2002000Y1420446D02*
Y1420858D01*
Y1421092D02*
Y1421571D01*
Y1422728D02*
Y1422856D01*
Y1470649D02*
Y1470806D01*
Y1473075D02*
Y1473200D01*
Y1521713D02*
Y1522552D01*
Y1523419D02*
Y1523804D01*
X2002100Y1420348D02*
Y1420542D01*
Y1421398D02*
Y1421621D01*
Y1422769D02*
Y1422890D01*
Y1470589D02*
Y1470745D01*
Y1473075D02*
Y1473200D01*
Y1521993D02*
Y1522299D01*
Y1523652D02*
Y1524054D01*
X2002200Y1420265D02*
Y1420422D01*
Y1421505D02*
Y1421671D01*
Y1422803D02*
Y1422923D01*
Y1470529D02*
Y1470683D01*
Y1473075D02*
Y1473200D01*
Y1523886D02*
Y1524200D01*
X2002300Y1420190D02*
Y1420342D01*
Y1421580D02*
Y1421703D01*
Y1422818D02*
Y1422944D01*
Y1470460D02*
Y1473200D01*
Y1524141D02*
Y1524193D01*
X2002400Y1420150D02*
Y1420282D01*
Y1421611D02*
Y1421728D01*
Y1422818D02*
Y1422944D01*
Y1470460D02*
Y1473200D01*
X2002500Y1420114D02*
Y1420265D01*
Y1421628D02*
Y1421753D01*
Y1422806D02*
Y1422935D01*
Y1473075D02*
Y1473200D01*
X2002600Y1420114D02*
Y1420248D01*
Y1421644D02*
Y1421772D01*
Y1422786D02*
Y1422923D01*
Y1433700D02*
Y1433825D01*
Y1473075D02*
Y1473200D01*
X2002700Y1420114D02*
Y1420245D01*
Y1421646D02*
Y1421772D01*
Y1422765D02*
Y1422910D01*
Y1433700D02*
Y1433825D01*
Y1435468D02*
Y1436031D01*
Y1473075D02*
Y1473200D01*
X2002800Y1420130D02*
Y1420261D01*
Y1421646D02*
Y1421769D01*
Y1422740D02*
Y1422889D01*
Y1433700D02*
Y1433825D01*
Y1435240D02*
Y1436224D01*
Y1473075D02*
Y1473200D01*
Y1523268D02*
Y1523524D01*
X2002900Y1420147D02*
Y1420278D01*
Y1421622D02*
Y1421744D01*
Y1422686D02*
Y1422832D01*
Y1433700D02*
Y1433825D01*
Y1435080D02*
Y1435336D01*
Y1436041D02*
Y1436321D01*
Y1473075D02*
Y1473200D01*
Y1523104D02*
Y1523327D01*
Y1523370D02*
Y1523524D01*
X2003000Y1420181D02*
Y1420332D01*
Y1421595D02*
Y1421709D01*
Y1422566D02*
Y1422775D01*
Y1433700D02*
Y1433825D01*
Y1434920D02*
Y1435150D01*
Y1436178D02*
Y1436387D01*
Y1473075D02*
Y1473200D01*
Y1522940D02*
Y1523161D01*
Y1523398D02*
Y1523524D01*
X2003100Y1420241D02*
Y1420432D01*
Y1421545D02*
Y1421659D01*
Y1422446D02*
Y1422704D01*
Y1433700D02*
Y1433825D01*
Y1434754D02*
Y1435010D01*
Y1436253D02*
Y1436444D01*
Y1522776D02*
Y1522996D01*
Y1523398D02*
Y1523524D01*
X2003200Y1420313D02*
Y1420580D01*
Y1421492D02*
Y1421619D01*
Y1422252D02*
Y1422584D01*
Y1433700D02*
Y1433825D01*
Y1434622D02*
Y1434859D01*
Y1436316D02*
Y1436457D01*
Y1522612D02*
Y1522831D01*
Y1523398D02*
Y1523524D01*
X2003300Y1420413D02*
Y1420886D01*
Y1421426D02*
Y1421592D01*
Y1422020D02*
Y1422457D01*
Y1433700D02*
Y1433825D01*
Y1434522D02*
Y1434696D01*
Y1436336D02*
Y1436469D01*
Y1522448D02*
Y1522665D01*
Y1523398D02*
Y1523524D01*
X2003400Y1420636D02*
Y1422224D01*
Y1433700D02*
Y1433825D01*
Y1434422D02*
Y1434615D01*
Y1436356D02*
Y1436482D01*
Y1522284D02*
Y1522500D01*
Y1523398D02*
Y1523524D01*
X2003500Y1420974D02*
Y1421524D01*
Y1433700D02*
Y1433825D01*
Y1434322D02*
Y1434535D01*
Y1436346D02*
Y1436469D01*
Y1522120D02*
Y1522335D01*
Y1523398D02*
Y1523524D01*
X2003600Y1433700D02*
Y1433825D01*
Y1434222D02*
Y1434435D01*
Y1436326D02*
Y1436449D01*
Y1521956D02*
Y1522170D01*
Y1523398D02*
Y1523524D01*
X2003700Y1433700D02*
Y1433825D01*
Y1434122D02*
Y1434327D01*
Y1436299D02*
Y1436426D01*
Y1521792D02*
Y1522005D01*
Y1523398D02*
Y1523524D01*
X2003800Y1433700D02*
Y1433825D01*
Y1434022D02*
Y1434220D01*
Y1436259D02*
Y1436401D01*
Y1470626D02*
Y1470785D01*
Y1472961D02*
Y1473200D01*
Y1521628D02*
Y1521839D01*
Y1523398D02*
Y1523524D01*
X2003900Y1433700D02*
Y1433832D01*
Y1433922D02*
Y1434112D01*
Y1436218D02*
Y1436354D01*
Y1470576D02*
Y1470722D01*
Y1472853D02*
Y1473200D01*
Y1500976D02*
Y1502245D01*
Y1503755D02*
Y1504770D01*
Y1521472D02*
Y1521674D01*
Y1523398D02*
Y1523524D01*
X2004000Y1433700D02*
Y1434004D01*
Y1436152D02*
Y1436304D01*
Y1470526D02*
Y1470666D01*
Y1472746D02*
Y1472939D01*
Y1473075D02*
Y1473200D01*
Y1502089D02*
Y1502274D01*
Y1503631D02*
Y1503958D01*
Y1504598D02*
Y1504908D01*
Y1521460D02*
Y1521589D01*
Y1523395D02*
Y1523527D01*
X2004100Y1433700D02*
Y1433856D01*
Y1470489D02*
Y1470626D01*
Y1472638D02*
Y1472839D01*
Y1473075D02*
Y1473200D01*
Y1502103D02*
Y1502274D01*
Y1503517D02*
Y1503721D01*
Y1504813D02*
Y1505037D01*
Y1521460D02*
Y1524200D01*
X2004200Y1420910D02*
Y1420923D01*
Y1425361D02*
Y1428100D01*
Y1470464D02*
Y1470586D01*
Y1472530D02*
Y1472739D01*
Y1473075D02*
Y1473200D01*
Y1502103D02*
Y1502274D01*
Y1503403D02*
Y1503621D01*
Y1504930D02*
Y1505166D01*
Y1521473D02*
Y1524187D01*
X2004300Y1420490D02*
Y1421226D01*
Y1425360D02*
Y1425493D01*
Y1426615D02*
Y1426755D01*
Y1470443D02*
Y1470566D01*
Y1472423D02*
Y1472639D01*
Y1473075D02*
Y1473200D01*
Y1502103D02*
Y1502274D01*
Y1503352D02*
Y1503521D01*
Y1505046D02*
Y1505218D01*
Y1523398D02*
Y1523524D01*
X2004400Y1420340D02*
Y1420714D01*
Y1421036D02*
Y1421355D01*
Y1422003D02*
Y1422610D01*
Y1425360D02*
Y1425485D01*
Y1426622D02*
Y1426748D01*
Y1470423D02*
Y1470546D01*
Y1472333D02*
Y1472539D01*
Y1473075D02*
Y1473200D01*
Y1502103D02*
Y1502274D01*
Y1503302D02*
Y1503464D01*
Y1505105D02*
Y1505268D01*
Y1523398D02*
Y1523524D01*
X2004500Y1420274D02*
Y1420518D01*
Y1421207D02*
Y1421415D01*
Y1421823D02*
Y1422776D01*
Y1425360D02*
Y1425485D01*
Y1426622D02*
Y1426748D01*
Y1470423D02*
Y1470552D01*
Y1472253D02*
Y1472439D01*
Y1473075D02*
Y1473200D01*
Y1502103D02*
Y1502274D01*
Y1503252D02*
Y1503420D01*
Y1505150D02*
Y1505318D01*
Y1523398D02*
Y1523524D01*
X2004600Y1420217D02*
Y1420406D01*
Y1421307D02*
Y1421469D01*
Y1421748D02*
Y1421963D01*
Y1422566D02*
Y1422837D01*
Y1425360D02*
Y1425485D01*
Y1426622D02*
Y1426748D01*
Y1470436D02*
Y1470572D01*
Y1472142D02*
Y1472339D01*
Y1473075D02*
Y1473200D01*
Y1502103D02*
Y1502274D01*
Y1503202D02*
Y1503376D01*
Y1505194D02*
Y1505368D01*
Y1523398D02*
Y1523524D01*
X2004700Y1420160D02*
Y1420331D01*
Y1421372D02*
Y1421502D01*
Y1421700D02*
Y1421831D01*
Y1422700D02*
Y1422897D01*
Y1425360D02*
Y1425485D01*
Y1426622D02*
Y1426758D01*
Y1470448D02*
Y1470602D01*
Y1471976D02*
Y1472239D01*
Y1473075D02*
Y1473200D01*
Y1502103D02*
Y1502274D01*
Y1503174D02*
Y1503331D01*
Y1505239D02*
Y1505395D01*
X2004800Y1420147D02*
Y1420280D01*
Y1421432D02*
Y1421535D01*
Y1421660D02*
Y1421769D01*
Y1422767D02*
Y1422912D01*
Y1425360D02*
Y1425485D01*
Y1426613D02*
Y1426778D01*
Y1470472D02*
Y1470677D01*
Y1471835D02*
Y1472080D01*
Y1473075D02*
Y1473200D01*
Y1502103D02*
Y1502274D01*
Y1503158D02*
Y1503306D01*
Y1505264D02*
Y1505409D01*
X2004900Y1420136D02*
Y1420263D01*
Y1421471D02*
Y1421709D01*
Y1422789D02*
Y1422925D01*
Y1425360D02*
Y1425485D01*
Y1426599D02*
Y1426804D01*
Y1434229D02*
Y1434894D01*
Y1470539D02*
Y1470768D01*
Y1471695D02*
Y1471917D01*
Y1473075D02*
Y1473200D01*
Y1502103D02*
Y1502274D01*
Y1503143D02*
Y1503296D01*
Y1505274D02*
Y1505424D01*
X2005000Y1420124D02*
Y1420247D01*
Y1421485D02*
Y1421674D01*
Y1422809D02*
Y1422937D01*
Y1425360D02*
Y1425512D01*
Y1426584D02*
Y1426864D01*
Y1434014D02*
Y1434486D01*
Y1434525D02*
Y1435044D01*
Y1470605D02*
Y1470991D01*
Y1471446D02*
Y1471757D01*
Y1473075D02*
Y1473200D01*
Y1501577D02*
Y1502274D01*
Y1503128D02*
Y1503286D01*
Y1505284D02*
Y1505438D01*
X2005100Y1420114D02*
Y1420246D01*
Y1421499D02*
Y1421658D01*
Y1422811D02*
Y1422933D01*
Y1425392D02*
Y1425542D01*
Y1426560D02*
Y1426675D01*
Y1426740D02*
Y1426924D01*
Y1433860D02*
Y1434102D01*
Y1434887D02*
Y1435136D01*
Y1436315D02*
Y1436440D01*
Y1470742D02*
Y1471574D01*
Y1473075D02*
Y1473200D01*
Y1501181D02*
Y1502254D01*
Y1503112D02*
Y1503276D01*
Y1505294D02*
Y1505452D01*
X2005200Y1420114D02*
Y1420260D01*
Y1421511D02*
Y1421641D01*
Y1422794D02*
Y1422913D01*
Y1425442D02*
Y1425567D01*
Y1426520D02*
Y1426629D01*
Y1426809D02*
Y1427038D01*
Y1433810D02*
Y1433977D01*
Y1435044D02*
Y1435193D01*
Y1436315D02*
Y1436440D01*
Y1473075D02*
Y1473200D01*
Y1501006D02*
Y1501331D01*
Y1503097D02*
Y1503266D01*
Y1505304D02*
Y1505467D01*
Y1523294D02*
Y1523923D01*
X2005300Y1420114D02*
Y1420274D01*
Y1421511D02*
Y1421636D01*
Y1422777D02*
Y1422893D01*
Y1425493D02*
Y1425643D01*
Y1426479D02*
Y1426589D01*
Y1426928D02*
Y1427204D01*
Y1433760D02*
Y1433901D01*
Y1435079D02*
Y1435250D01*
Y1436315D02*
Y1436440D01*
Y1473075D02*
Y1473200D01*
Y1500940D02*
Y1501137D01*
Y1503095D02*
Y1503274D01*
Y1505296D02*
Y1505467D01*
Y1521770D02*
Y1522384D01*
Y1523142D02*
Y1523505D01*
Y1523657D02*
Y1524048D01*
X2005400Y1420131D02*
Y1420290D01*
Y1421511D02*
Y1421636D01*
Y1422740D02*
Y1422873D01*
Y1425553D02*
Y1425866D01*
Y1426295D02*
Y1426527D01*
Y1427078D02*
Y1427454D01*
Y1433710D02*
Y1433861D01*
Y1435113D02*
Y1435277D01*
Y1436315D02*
Y1436440D01*
Y1500873D02*
Y1501077D01*
Y1503095D02*
Y1503283D01*
Y1505287D02*
Y1505451D01*
Y1521645D02*
Y1521933D01*
Y1522149D02*
Y1522532D01*
Y1523062D02*
Y1523241D01*
Y1523890D02*
Y1524108D01*
X2005500Y1420171D02*
Y1420310D01*
Y1422690D02*
Y1422844D01*
Y1425613D02*
Y1426452D01*
Y1427319D02*
Y1427704D01*
Y1433690D02*
Y1433824D01*
Y1435143D02*
Y1435288D01*
Y1436315D02*
Y1436440D01*
Y1500832D02*
Y1501017D01*
Y1503095D02*
Y1503292D01*
Y1505278D02*
Y1505436D01*
Y1521570D02*
Y1521725D01*
Y1522394D02*
Y1522631D01*
Y1522983D02*
Y1523125D01*
Y1523983D02*
Y1524151D01*
X2005600Y1420209D02*
Y1420330D01*
Y1422627D02*
Y1422777D01*
Y1425893D02*
Y1426199D01*
Y1427552D02*
Y1427954D01*
Y1433679D02*
Y1433808D01*
Y1435156D02*
Y1435299D01*
Y1436315D02*
Y1436440D01*
Y1500818D02*
Y1500998D01*
Y1503119D02*
Y1503301D01*
Y1505269D02*
Y1505421D01*
Y1521503D02*
Y1521649D01*
Y1522494D02*
Y1522681D01*
Y1522933D02*
Y1523045D01*
Y1524033D02*
Y1524193D01*
X2005700Y1420243D02*
Y1420392D01*
Y1422567D02*
Y1422679D01*
Y1427786D02*
Y1428100D01*
Y1433668D02*
Y1433791D01*
Y1435168D02*
Y1435310D01*
Y1436315D02*
Y1436440D01*
Y1500803D02*
Y1500981D01*
Y1503148D02*
Y1503310D01*
Y1505260D02*
Y1505405D01*
Y1521454D02*
Y1521599D01*
Y1522569D02*
Y1522731D01*
Y1522883D02*
Y1522974D01*
Y1524076D02*
Y1524211D01*
X2005800Y1420336D02*
Y1420450D01*
Y1428041D02*
Y1428093D01*
Y1433657D02*
Y1433784D01*
Y1435181D02*
Y1435313D01*
Y1436315D02*
Y1436440D01*
Y1500809D02*
Y1500967D01*
Y1503176D02*
Y1503349D01*
Y1505221D02*
Y1505390D01*
Y1521441D02*
Y1521572D01*
Y1522623D02*
Y1522924D01*
Y1524090D02*
Y1524224D01*
X2005900Y1433655D02*
Y1433799D01*
Y1435188D02*
Y1435313D01*
Y1436315D02*
Y1436440D01*
Y1500831D02*
Y1500981D01*
Y1503208D02*
Y1503393D01*
Y1505176D02*
Y1505359D01*
Y1521429D02*
Y1521552D01*
Y1522673D02*
Y1522874D01*
Y1524104D02*
Y1524236D01*
X2006000Y1433655D02*
Y1433813D01*
Y1435188D02*
Y1435313D01*
Y1436315D02*
Y1436440D01*
Y1500853D02*
Y1500995D01*
Y1503242D02*
Y1503438D01*
Y1505132D02*
Y1505323D01*
Y1521416D02*
Y1521545D01*
Y1522721D02*
Y1522860D01*
Y1524119D02*
Y1524241D01*
X2006100Y1433668D02*
Y1433828D01*
Y1435185D02*
Y1435316D01*
Y1436312D02*
Y1436440D01*
Y1500875D02*
Y1501010D01*
Y1503282D02*
Y1503482D01*
Y1505087D02*
Y1505286D01*
Y1521426D02*
Y1521562D01*
Y1522677D02*
Y1522917D01*
Y1524105D02*
Y1524230D01*
X2006200Y1433688D02*
Y1433853D01*
Y1435160D02*
Y1436440D01*
Y1500920D02*
Y1501070D01*
Y1503362D02*
Y1503561D01*
Y1505008D02*
Y1505250D01*
Y1521439D02*
Y1521579D01*
Y1522617D02*
Y1522728D01*
Y1522797D02*
Y1522974D01*
Y1524089D02*
Y1524219D01*
X2006300Y1433734D02*
Y1433880D01*
Y1435230D02*
Y1436353D01*
Y1500977D02*
Y1501150D01*
Y1503442D02*
Y1503661D01*
Y1504908D02*
Y1505213D01*
Y1521451D02*
Y1521611D01*
Y1522551D02*
Y1522666D01*
Y1522865D02*
Y1523031D01*
Y1524071D02*
Y1524208D01*
X2006400Y1420324D02*
Y1420482D01*
Y1422575D02*
Y1422730D01*
Y1427887D02*
Y1428004D01*
Y1433796D02*
Y1433913D01*
Y1501034D02*
Y1501271D01*
Y1502330D02*
Y1502454D01*
Y1503400D02*
Y1503761D01*
Y1504808D02*
Y1505083D01*
Y1521480D02*
Y1521661D01*
Y1522476D02*
Y1522606D01*
Y1522932D02*
Y1523105D01*
Y1524021D02*
Y1524180D01*
X2006500Y1420274D02*
Y1420432D01*
Y1422625D02*
Y1422763D01*
Y1425447D02*
Y1426570D01*
Y1427920D02*
Y1428066D01*
Y1501189D02*
Y1501616D01*
Y1501879D02*
Y1502377D01*
Y1503260D02*
Y1503526D01*
Y1503679D02*
Y1503978D01*
Y1504592D02*
Y1504926D01*
Y1521530D02*
Y1521761D01*
Y1522346D02*
Y1522532D01*
Y1523001D02*
Y1523181D01*
Y1523967D02*
Y1524130D01*
X2006600Y1420224D02*
Y1420382D01*
Y1422675D02*
Y1422811D01*
Y1425360D02*
Y1426640D01*
Y1427947D02*
Y1428112D01*
Y1501389D02*
Y1502218D01*
Y1503120D02*
Y1503406D01*
Y1503912D02*
Y1504726D01*
Y1521580D02*
Y1522028D01*
Y1522054D02*
Y1522452D01*
Y1523081D02*
Y1523314D01*
Y1523867D02*
Y1524080D01*
X2006700Y1420190D02*
Y1420341D01*
Y1422716D02*
Y1422858D01*
Y1425360D02*
Y1425488D01*
Y1426484D02*
Y1426615D01*
Y1427972D02*
Y1428132D01*
Y1502880D02*
Y1503284D01*
Y1521739D02*
Y1522279D01*
Y1523164D02*
Y1523986D01*
X2006800Y1420170D02*
Y1420301D01*
Y1422756D02*
Y1422878D01*
Y1425360D02*
Y1425485D01*
Y1426487D02*
Y1426612D01*
Y1427987D02*
Y1428145D01*
Y1502710D02*
Y1503084D01*
Y1523297D02*
Y1523886D01*
X2006900Y1420152D02*
Y1420277D01*
Y1422781D02*
Y1422898D01*
Y1425360D02*
Y1425485D01*
Y1426487D02*
Y1426612D01*
Y1428001D02*
Y1428145D01*
Y1502689D02*
Y1502849D01*
X2007000Y1420138D02*
Y1420263D01*
Y1422795D02*
Y1422918D01*
Y1425360D02*
Y1425485D01*
Y1426487D02*
Y1426619D01*
Y1428016D02*
Y1428143D01*
Y1433707D02*
Y1433759D01*
X2007100Y1420124D02*
Y1420248D01*
Y1422809D02*
Y1422938D01*
Y1425360D02*
Y1425485D01*
Y1426490D02*
Y1426632D01*
Y1428009D02*
Y1428132D01*
Y1433700D02*
Y1434014D01*
X2007200Y1420114D02*
Y1420239D01*
Y1422812D02*
Y1422930D01*
Y1425360D02*
Y1425485D01*
Y1426501D02*
Y1426644D01*
Y1427992D02*
Y1428121D01*
Y1433846D02*
Y1434248D01*
Y1435601D02*
Y1435907D01*
X2007300Y1420114D02*
Y1420239D01*
Y1422787D02*
Y1422914D01*
Y1425360D02*
Y1425485D01*
Y1426512D02*
Y1426657D01*
Y1427976D02*
Y1428110D01*
Y1434096D02*
Y1434481D01*
Y1435348D02*
Y1436187D01*
X2007400Y1420114D02*
Y1420258D01*
Y1422762D02*
Y1422897D01*
Y1425360D02*
Y1425485D01*
Y1426523D02*
Y1426687D01*
Y1427939D02*
Y1428090D01*
Y1434346D02*
Y1434722D01*
Y1435273D02*
Y1435505D01*
Y1435934D02*
Y1436247D01*
X2007500Y1420142D02*
Y1420308D01*
Y1422737D02*
Y1422877D01*
Y1425360D02*
Y1425485D01*
Y1426550D02*
Y1426721D01*
Y1427899D02*
Y1428040D01*
Y1434596D02*
Y1434872D01*
Y1435211D02*
Y1435321D01*
Y1436157D02*
Y1436307D01*
X2007600Y1420182D02*
Y1420368D01*
Y1422685D02*
Y1422857D01*
Y1425360D02*
Y1425485D01*
Y1426607D02*
Y1426756D01*
Y1427823D02*
Y1427990D01*
Y1434762D02*
Y1434991D01*
Y1435171D02*
Y1435280D01*
Y1436233D02*
Y1436358D01*
X2007700Y1420243D02*
Y1420439D01*
Y1422601D02*
Y1422797D01*
Y1425360D02*
Y1425485D01*
Y1426664D02*
Y1426913D01*
Y1427698D02*
Y1427940D01*
Y1434876D02*
Y1435060D01*
Y1435125D02*
Y1435240D01*
Y1436258D02*
Y1436408D01*
X2007800Y1420318D02*
Y1420511D01*
Y1422518D02*
Y1422737D01*
Y1426756D02*
Y1427275D01*
Y1427314D02*
Y1427786D01*
Y1434936D02*
Y1435216D01*
Y1436288D02*
Y1436440D01*
X2007900Y1420393D02*
Y1420603D01*
Y1422351D02*
Y1422643D01*
Y1426906D02*
Y1427571D01*
Y1434996D02*
Y1435201D01*
Y1436315D02*
Y1436440D01*
X2008000Y1420479D02*
Y1420803D01*
Y1422126D02*
Y1422527D01*
Y1435022D02*
Y1435187D01*
Y1436315D02*
Y1436440D01*
X2008100Y1420646D02*
Y1421258D01*
Y1421633D02*
Y1422327D01*
Y1435042D02*
Y1435178D01*
Y1436315D02*
Y1436440D01*
X2008200Y1420883D02*
Y1422127D01*
Y1435052D02*
Y1435178D01*
Y1436315D02*
Y1436440D01*
X2008300Y1435052D02*
Y1435178D01*
Y1436315D02*
Y1436440D01*
X2008400Y1435052D02*
Y1435178D01*
Y1436315D02*
Y1436440D01*
X2008500Y1435045D02*
Y1435185D01*
Y1436307D02*
Y1436440D01*
X2008600Y1426349D02*
Y1427283D01*
Y1433700D02*
Y1436439D01*
X2008700Y1425939D02*
Y1427589D01*
X2008800Y1425689D02*
Y1426181D01*
Y1427376D02*
Y1427819D01*
X2008900Y1425603D02*
Y1425802D01*
Y1427640D02*
Y1427919D01*
X2009000Y1425517D02*
Y1425682D01*
Y1427772D02*
Y1428019D01*
X2009100Y1425436D02*
Y1425562D01*
Y1427897D02*
Y1428085D01*
X2009200Y1425386D02*
Y1425511D01*
Y1427946D02*
Y1428125D01*
X2009300Y1425351D02*
Y1425481D01*
Y1427974D02*
Y1428145D01*
X2009400Y1425334D02*
Y1425461D01*
Y1428003D02*
Y1428145D01*
X2009500Y1425317D02*
Y1425441D01*
Y1428015D02*
Y1428139D01*
X2009600Y1425334D02*
Y1425457D01*
Y1427998D02*
Y1428122D01*
X2009700Y1425354D02*
Y1425477D01*
Y1427981D02*
Y1428105D01*
X2009800Y1425374D02*
Y1425511D01*
Y1427939D02*
Y1428082D01*
X2009900Y1425394D02*
Y1425561D01*
Y1427864D02*
Y1428055D01*
X2010000Y1425464D02*
Y1425681D01*
Y1427761D02*
Y1427980D01*
X2010100Y1425564D02*
Y1425905D01*
Y1427622D02*
Y1427882D01*
X2010200Y1425684D02*
Y1426211D01*
Y1427293D02*
Y1427735D01*
X2010300Y1425959D02*
Y1427485D01*
X2010400Y1426613D02*
Y1426809D01*
X2012800Y1528495D02*
Y1529789D01*
X2012900Y1528235D02*
Y1528938D01*
Y1528970D02*
Y1529170D01*
Y1529512D02*
Y1530139D01*
X2013000Y1528063D02*
Y1528382D01*
Y1528987D02*
Y1529106D01*
Y1529866D02*
Y1530246D01*
X2013100Y1527943D02*
Y1528182D01*
Y1528937D02*
Y1529063D01*
Y1530084D02*
Y1530333D01*
X2013200Y1527847D02*
Y1528059D01*
Y1528887D02*
Y1529021D01*
Y1530209D02*
Y1530393D01*
X2013300Y1527790D02*
Y1527976D01*
Y1528863D02*
Y1528993D01*
Y1530314D02*
Y1530445D01*
X2013400Y1527733D02*
Y1527892D01*
Y1528852D02*
Y1528980D01*
Y1530331D02*
Y1530459D01*
X2013500Y1527694D02*
Y1527837D01*
Y1528841D02*
Y1528968D01*
Y1530347D02*
Y1530473D01*
X2013600Y1527683D02*
Y1527787D01*
Y1528830D02*
Y1528955D01*
Y1530357D02*
Y1530479D01*
X2013700Y1527672D02*
Y1527780D01*
Y1528836D02*
Y1528964D01*
Y1530343D02*
Y1530457D01*
X2013800Y1527661D02*
Y1527780D01*
Y1528847D02*
Y1528981D01*
Y1530329D02*
Y1530435D01*
X2013900Y1527655D02*
Y1527780D01*
Y1528858D02*
Y1528998D01*
Y1530315D02*
Y1530413D01*
X2014000Y1527655D02*
Y1527780D01*
Y1528869D02*
Y1529064D01*
Y1530231D02*
Y1530368D01*
X2014100Y1527681D02*
Y1527801D01*
Y1528929D02*
Y1529139D01*
Y1530131D02*
Y1530284D01*
X2014200Y1527714D02*
Y1527837D01*
Y1528995D02*
Y1529320D01*
Y1529908D02*
Y1530201D01*
X2014300Y1527745D02*
Y1527870D01*
Y1529113D02*
Y1530063D01*
X2014400Y1529374D02*
Y1529835D01*
X2014600Y1428561D02*
Y1431300D01*
X2014700Y1428560D02*
Y1428693D01*
Y1429815D02*
Y1429955D01*
X2014800Y1428560D02*
Y1428685D01*
Y1429822D02*
Y1429948D01*
X2014900Y1428560D02*
Y1428685D01*
Y1429822D02*
Y1429948D01*
Y1528376D02*
Y1528502D01*
X2015000Y1428560D02*
Y1428685D01*
Y1429822D02*
Y1429948D01*
Y1528376D02*
Y1528502D01*
X2015100Y1428560D02*
Y1428685D01*
Y1429822D02*
Y1429958D01*
Y1528376D02*
Y1528502D01*
X2015200Y1428560D02*
Y1428685D01*
Y1429813D02*
Y1429978D01*
Y1528376D02*
Y1528502D01*
X2015300Y1428560D02*
Y1428685D01*
Y1429799D02*
Y1430004D01*
Y1527713D02*
Y1530427D01*
X2015400Y1428560D02*
Y1428712D01*
Y1429784D02*
Y1430064D01*
Y1527700D02*
Y1530440D01*
X2015500Y1428592D02*
Y1428742D01*
Y1429760D02*
Y1429875D01*
Y1429940D02*
Y1430124D01*
Y1528373D02*
Y1528505D01*
Y1530311D02*
Y1530440D01*
X2015600Y1428642D02*
Y1428767D01*
Y1429720D02*
Y1429829D01*
Y1430009D02*
Y1430238D01*
Y1528376D02*
Y1528502D01*
Y1530226D02*
Y1530428D01*
X2015700Y1428693D02*
Y1428843D01*
Y1429679D02*
Y1429789D01*
Y1430128D02*
Y1430404D01*
Y1528376D02*
Y1528502D01*
Y1530061D02*
Y1530272D01*
X2015800Y1428753D02*
Y1429066D01*
Y1429495D02*
Y1429727D01*
Y1430278D02*
Y1430654D01*
Y1528376D02*
Y1528502D01*
Y1529895D02*
Y1530108D01*
X2015900Y1428813D02*
Y1429652D01*
Y1430519D02*
Y1430904D01*
Y1528376D02*
Y1528502D01*
Y1529730D02*
Y1529944D01*
X2016000Y1429093D02*
Y1429399D01*
Y1430752D02*
Y1431154D01*
Y1528376D02*
Y1528502D01*
Y1529565D02*
Y1529780D01*
X2016100Y1430986D02*
Y1431300D01*
Y1528376D02*
Y1528502D01*
Y1529400D02*
Y1529616D01*
X2016200Y1431241D02*
Y1431293D01*
Y1528376D02*
Y1528502D01*
Y1529235D02*
Y1529452D01*
X2016300Y1528376D02*
Y1528502D01*
Y1529069D02*
Y1529288D01*
X2016400Y1528376D02*
Y1528502D01*
Y1528904D02*
Y1529124D01*
X2016500Y1528376D02*
Y1528502D01*
Y1528739D02*
Y1528960D01*
X2016600Y1528376D02*
Y1528530D01*
Y1528573D02*
Y1528796D01*
X2016700Y1528376D02*
Y1528632D01*
X2016800Y1431087D02*
Y1431204D01*
X2016900Y1428647D02*
Y1429770D01*
Y1431120D02*
Y1431266D01*
X2017000Y1428560D02*
Y1429840D01*
Y1431147D02*
Y1431312D01*
X2017100Y1428560D02*
Y1428688D01*
Y1429684D02*
Y1429815D01*
Y1431172D02*
Y1431332D01*
X2017200Y1428560D02*
Y1428685D01*
Y1429687D02*
Y1429812D01*
Y1431187D02*
Y1431345D01*
Y1527707D02*
Y1527759D01*
X2017300Y1428560D02*
Y1428685D01*
Y1429687D02*
Y1429812D01*
Y1431201D02*
Y1431345D01*
Y1527700D02*
Y1528014D01*
X2017400Y1428560D02*
Y1428685D01*
Y1429687D02*
Y1429819D01*
Y1431216D02*
Y1431343D01*
Y1527846D02*
Y1528248D01*
Y1529601D02*
Y1529907D01*
X2017500Y1428560D02*
Y1428685D01*
Y1429690D02*
Y1429832D01*
Y1431209D02*
Y1431332D01*
Y1528096D02*
Y1528481D01*
Y1529348D02*
Y1530187D01*
X2017600Y1428560D02*
Y1428685D01*
Y1429701D02*
Y1429844D01*
Y1431192D02*
Y1431321D01*
Y1528346D02*
Y1528722D01*
Y1529273D02*
Y1529505D01*
Y1529934D02*
Y1530247D01*
X2017700Y1428560D02*
Y1428685D01*
Y1429712D02*
Y1429857D01*
Y1431176D02*
Y1431310D01*
Y1528596D02*
Y1528872D01*
Y1529211D02*
Y1529321D01*
Y1530157D02*
Y1530307D01*
X2017800Y1428560D02*
Y1428685D01*
Y1429723D02*
Y1429887D01*
Y1431139D02*
Y1431290D01*
Y1528762D02*
Y1528991D01*
Y1529171D02*
Y1529280D01*
Y1530233D02*
Y1530358D01*
X2017900Y1428560D02*
Y1428685D01*
Y1429750D02*
Y1429921D01*
Y1431099D02*
Y1431240D01*
Y1528876D02*
Y1529060D01*
Y1529125D02*
Y1529240D01*
Y1530258D02*
Y1530408D01*
X2018000Y1428560D02*
Y1428685D01*
Y1429807D02*
Y1429956D01*
Y1431023D02*
Y1431190D01*
Y1528936D02*
Y1529216D01*
Y1530288D02*
Y1530440D01*
X2018100Y1428560D02*
Y1428685D01*
Y1429864D02*
Y1430113D01*
Y1430898D02*
Y1431140D01*
Y1528996D02*
Y1529201D01*
Y1530315D02*
Y1530440D01*
X2018200Y1429956D02*
Y1430475D01*
Y1430514D02*
Y1430986D01*
Y1529022D02*
Y1529187D01*
Y1530315D02*
Y1530440D01*
X2018300Y1430106D02*
Y1430771D01*
Y1529042D02*
Y1529178D01*
Y1530315D02*
Y1530440D01*
X2018400Y1529052D02*
Y1529178D01*
Y1530315D02*
Y1530440D01*
X2018500Y1529052D02*
Y1529178D01*
Y1530315D02*
Y1530440D01*
X2018600Y1529052D02*
Y1529178D01*
Y1530315D02*
Y1530440D01*
X2018700Y1529045D02*
Y1529185D01*
Y1530307D02*
Y1530440D01*
X2018800Y1527700D02*
Y1530439D01*
X2019100Y1431023D02*
Y1431150D01*
X2019200Y1428718D02*
Y1428877D01*
Y1431087D02*
Y1431226D01*
X2019300Y1428661D02*
Y1428812D01*
Y1431135D02*
Y1431259D01*
X2019400Y1428600D02*
Y1428754D01*
Y1429857D02*
Y1429948D01*
Y1431155D02*
Y1431299D01*
X2019500Y1428580D02*
Y1428704D01*
Y1429822D02*
Y1429948D01*
Y1431174D02*
Y1431339D01*
X2019600Y1428560D02*
Y1428676D01*
Y1429822D02*
Y1429948D01*
Y1431189D02*
Y1431345D01*
X2019700Y1428540D02*
Y1428660D01*
Y1429813D02*
Y1429949D01*
Y1431203D02*
Y1431345D01*
X2019800Y1428520D02*
Y1428643D01*
Y1429796D02*
Y1429963D01*
Y1431217D02*
Y1431342D01*
X2019900Y1428525D02*
Y1428655D01*
Y1429780D02*
Y1429978D01*
Y1431207D02*
Y1431331D01*
X2020000Y1428538D02*
Y1428675D01*
Y1429732D02*
Y1429842D01*
Y1429882D02*
Y1429992D01*
Y1431190D02*
Y1431320D01*
X2020100Y1428550D02*
Y1428711D01*
Y1429672D02*
Y1429787D01*
Y1429933D02*
Y1430044D01*
Y1431174D02*
Y1431309D01*
X2020200Y1428579D02*
Y1428778D01*
Y1429590D02*
Y1429747D01*
Y1429966D02*
Y1430104D01*
Y1431105D02*
Y1431282D01*
X2020300Y1428639D02*
Y1428951D01*
Y1429457D02*
Y1429688D01*
Y1430001D02*
Y1430181D01*
Y1431030D02*
Y1431224D01*
X2020400Y1428731D02*
Y1429613D01*
Y1430061D02*
Y1430281D01*
Y1430901D02*
Y1431167D01*
X2020500Y1428924D02*
Y1429358D01*
Y1430121D02*
Y1430570D01*
Y1430597D02*
Y1431075D01*
X2020600Y1430282D02*
Y1430925D01*
X2027900Y1506187D02*
Y1506973D01*
Y1508655D02*
Y1509670D01*
X2028000Y1506037D02*
Y1506331D01*
Y1506865D02*
Y1507177D01*
Y1508531D02*
Y1508858D01*
Y1509498D02*
Y1509808D01*
X2028100Y1505954D02*
Y1506198D01*
Y1507095D02*
Y1507264D01*
Y1508417D02*
Y1508621D01*
Y1509713D02*
Y1509937D01*
X2028200Y1505894D02*
Y1506107D01*
Y1508303D02*
Y1508521D01*
Y1509830D02*
Y1510066D01*
X2028300Y1505863D02*
Y1506047D01*
Y1508252D02*
Y1508421D01*
Y1509946D02*
Y1510118D01*
X2028400Y1505846D02*
Y1506027D01*
Y1508202D02*
Y1508364D01*
Y1510005D02*
Y1510168D01*
X2028500Y1505831D02*
Y1506007D01*
Y1508152D02*
Y1508320D01*
Y1510050D02*
Y1510218D01*
X2028600Y1505831D02*
Y1506002D01*
Y1508102D02*
Y1508276D01*
Y1510094D02*
Y1510268D01*
X2028700Y1505831D02*
Y1506002D01*
Y1508074D02*
Y1508231D01*
Y1510139D02*
Y1510295D01*
X2028800Y1505854D02*
Y1506013D01*
Y1508058D02*
Y1508206D01*
Y1510164D02*
Y1510309D01*
X2028900Y1505897D02*
Y1506047D01*
Y1508043D02*
Y1508196D01*
Y1510174D02*
Y1510324D01*
X2029000Y1505940D02*
Y1506080D01*
Y1508028D02*
Y1508186D01*
Y1510184D02*
Y1510338D01*
X2029100Y1505993D02*
Y1506132D01*
Y1508012D02*
Y1508176D01*
Y1510194D02*
Y1510352D01*
X2029200Y1506055D02*
Y1506204D01*
Y1507997D02*
Y1508166D01*
Y1510204D02*
Y1510367D01*
X2029300Y1506118D02*
Y1506275D01*
Y1507995D02*
Y1508174D01*
Y1510196D02*
Y1510367D01*
X2029400Y1506180D02*
Y1506343D01*
Y1507995D02*
Y1508183D01*
Y1510187D02*
Y1510351D01*
X2029500Y1506240D02*
Y1506403D01*
Y1507995D02*
Y1508192D01*
Y1510178D02*
Y1510336D01*
X2029600Y1506300D02*
Y1506464D01*
Y1508019D02*
Y1508201D01*
Y1510169D02*
Y1510321D01*
X2029700Y1506390D02*
Y1506587D01*
Y1508048D02*
Y1508210D01*
Y1510160D02*
Y1510305D01*
X2029800Y1506490D02*
Y1506708D01*
Y1508076D02*
Y1508249D01*
Y1510121D02*
Y1510290D01*
X2029900Y1506590D02*
Y1506800D01*
Y1508108D02*
Y1508293D01*
Y1510076D02*
Y1510259D01*
X2030000Y1506690D02*
Y1506893D01*
Y1508142D02*
Y1508338D01*
Y1510032D02*
Y1510223D01*
X2030100Y1506790D02*
Y1506986D01*
Y1508182D02*
Y1508382D01*
Y1509987D02*
Y1510186D01*
X2030200Y1506890D02*
Y1507079D01*
Y1508262D02*
Y1508461D01*
Y1509908D02*
Y1510150D01*
X2030300Y1506990D02*
Y1507172D01*
Y1508342D02*
Y1508561D01*
Y1509808D02*
Y1510113D01*
X2030400Y1507087D02*
Y1507264D01*
Y1508300D02*
Y1508661D01*
Y1509708D02*
Y1509983D01*
X2030500Y1505696D02*
Y1507309D01*
Y1508160D02*
Y1508426D01*
Y1508579D02*
Y1508878D01*
Y1509492D02*
Y1509826D01*
X2030600Y1505712D02*
Y1507293D01*
Y1508020D02*
Y1508306D01*
Y1508812D02*
Y1509626D01*
X2030700Y1507780D02*
Y1508184D01*
X2030800Y1507610D02*
Y1507984D01*
X2030900Y1507589D02*
Y1507749D01*
X2032900Y1421535D02*
Y1421660D01*
X2033000Y1421535D02*
Y1421660D01*
X2033100Y1421535D02*
Y1421660D01*
Y1430761D02*
Y1433500D01*
X2033200Y1421535D02*
Y1421660D01*
Y1430760D02*
Y1430893D01*
Y1432015D02*
Y1432155D01*
X2033300Y1420859D02*
Y1423599D01*
Y1426061D02*
Y1428800D01*
Y1430760D02*
Y1430885D01*
Y1432022D02*
Y1432148D01*
X2033400Y1420859D02*
Y1423599D01*
Y1426060D02*
Y1426193D01*
Y1427315D02*
Y1427455D01*
Y1430760D02*
Y1430885D01*
Y1432022D02*
Y1432148D01*
X2033500Y1421535D02*
Y1421660D01*
Y1423472D02*
Y1423599D01*
Y1426060D02*
Y1426185D01*
Y1427322D02*
Y1427448D01*
Y1430760D02*
Y1430885D01*
Y1432022D02*
Y1432148D01*
X2033600Y1421535D02*
Y1421660D01*
Y1423338D02*
Y1423549D01*
Y1426060D02*
Y1426185D01*
Y1427322D02*
Y1427448D01*
Y1430760D02*
Y1430885D01*
Y1432022D02*
Y1432158D01*
X2033700Y1421535D02*
Y1421660D01*
Y1423173D02*
Y1423385D01*
Y1426060D02*
Y1426185D01*
Y1427322D02*
Y1427448D01*
Y1430760D02*
Y1430885D01*
Y1432013D02*
Y1432178D01*
X2033800Y1421535D02*
Y1421660D01*
Y1423008D02*
Y1423221D01*
Y1426060D02*
Y1426185D01*
Y1427322D02*
Y1427458D01*
Y1430760D02*
Y1430885D01*
Y1431999D02*
Y1432204D01*
X2033900Y1421535D02*
Y1421660D01*
Y1422843D02*
Y1423057D01*
Y1426060D02*
Y1426185D01*
Y1427313D02*
Y1427478D01*
Y1430760D02*
Y1430912D01*
Y1431984D02*
Y1432264D01*
X2034000Y1421535D02*
Y1421660D01*
Y1422678D02*
Y1422893D01*
Y1426060D02*
Y1426185D01*
Y1427299D02*
Y1427504D01*
Y1430792D02*
Y1430942D01*
Y1431960D02*
Y1432075D01*
Y1432140D02*
Y1432324D01*
X2034100Y1421535D02*
Y1421660D01*
Y1422512D02*
Y1422729D01*
Y1426060D02*
Y1426212D01*
Y1427284D02*
Y1427564D01*
Y1430842D02*
Y1430967D01*
Y1431920D02*
Y1432029D01*
Y1432209D02*
Y1432438D01*
X2034200Y1421535D02*
Y1421660D01*
Y1422347D02*
Y1422565D01*
Y1426092D02*
Y1426242D01*
Y1427260D02*
Y1427375D01*
Y1427440D02*
Y1427624D01*
Y1430893D02*
Y1431043D01*
Y1431879D02*
Y1431989D01*
Y1432328D02*
Y1432604D01*
X2034300Y1421535D02*
Y1421660D01*
Y1422182D02*
Y1422401D01*
Y1426142D02*
Y1426267D01*
Y1427220D02*
Y1427329D01*
Y1427509D02*
Y1427738D01*
Y1430953D02*
Y1431266D01*
Y1431695D02*
Y1431927D01*
Y1432478D02*
Y1432854D01*
X2034400Y1421535D02*
Y1421660D01*
Y1422017D02*
Y1422237D01*
Y1426193D02*
Y1426343D01*
Y1427179D02*
Y1427289D01*
Y1427628D02*
Y1427904D01*
Y1431013D02*
Y1431852D01*
Y1432719D02*
Y1433104D01*
X2034500Y1421535D02*
Y1421660D01*
Y1421851D02*
Y1422073D01*
Y1426253D02*
Y1426566D01*
Y1426995D02*
Y1427227D01*
Y1427778D02*
Y1428154D01*
Y1431293D02*
Y1431599D01*
Y1432952D02*
Y1433354D01*
X2034600Y1421535D02*
Y1421909D01*
Y1426313D02*
Y1427152D01*
Y1428019D02*
Y1428404D01*
Y1433186D02*
Y1433500D01*
X2034700Y1421535D02*
Y1421745D01*
Y1426593D02*
Y1426899D01*
Y1428252D02*
Y1428654D01*
Y1433441D02*
Y1433493D01*
X2034800Y1428486D02*
Y1428800D01*
X2034900Y1428741D02*
Y1428793D01*
X2035200Y1432568D02*
Y1432824D01*
X2035300Y1421610D02*
Y1421623D01*
Y1432404D02*
Y1432627D01*
Y1432670D02*
Y1432824D01*
X2035400Y1421190D02*
Y1421926D01*
Y1427868D02*
Y1428124D01*
Y1432240D02*
Y1432461D01*
Y1432698D02*
Y1432824D01*
X2035500Y1421040D02*
Y1421414D01*
Y1421736D02*
Y1422055D01*
Y1422703D02*
Y1423310D01*
Y1427704D02*
Y1427927D01*
Y1427970D02*
Y1428124D01*
Y1432076D02*
Y1432296D01*
Y1432698D02*
Y1432824D01*
X2035600Y1420974D02*
Y1421218D01*
Y1421907D02*
Y1422115D01*
Y1422523D02*
Y1423476D01*
Y1427540D02*
Y1427761D01*
Y1427998D02*
Y1428124D01*
Y1431912D02*
Y1432131D01*
Y1432698D02*
Y1432824D01*
X2035700Y1420917D02*
Y1421106D01*
Y1422007D02*
Y1422169D01*
Y1422448D02*
Y1422663D01*
Y1423266D02*
Y1423537D01*
Y1427376D02*
Y1427596D01*
Y1427998D02*
Y1428124D01*
Y1431748D02*
Y1431965D01*
Y1432698D02*
Y1432824D01*
X2035800Y1420860D02*
Y1421031D01*
Y1422072D02*
Y1422202D01*
Y1422400D02*
Y1422531D01*
Y1423400D02*
Y1423597D01*
Y1427212D02*
Y1427431D01*
Y1427998D02*
Y1428124D01*
Y1431584D02*
Y1431800D01*
Y1432698D02*
Y1432824D01*
X2035900Y1420847D02*
Y1420980D01*
Y1422132D02*
Y1422235D01*
Y1422360D02*
Y1422469D01*
Y1423467D02*
Y1423612D01*
Y1427048D02*
Y1427265D01*
Y1427998D02*
Y1428124D01*
Y1431420D02*
Y1431635D01*
Y1432698D02*
Y1432824D01*
X2036000Y1420836D02*
Y1420963D01*
Y1422171D02*
Y1422409D01*
Y1423489D02*
Y1423625D01*
Y1426884D02*
Y1427100D01*
Y1427998D02*
Y1428124D01*
Y1431256D02*
Y1431470D01*
Y1432698D02*
Y1432824D01*
X2036100Y1420824D02*
Y1420947D01*
Y1422185D02*
Y1422374D01*
Y1423509D02*
Y1423637D01*
Y1426720D02*
Y1426935D01*
Y1427998D02*
Y1428124D01*
Y1431092D02*
Y1431305D01*
Y1432698D02*
Y1432824D01*
X2036200Y1420814D02*
Y1420946D01*
Y1422199D02*
Y1422358D01*
Y1423511D02*
Y1423633D01*
Y1426556D02*
Y1426770D01*
Y1427998D02*
Y1428124D01*
Y1430928D02*
Y1431139D01*
Y1432698D02*
Y1432824D01*
X2036300Y1420814D02*
Y1420960D01*
Y1422211D02*
Y1422341D01*
Y1423494D02*
Y1423613D01*
Y1426392D02*
Y1426605D01*
Y1427998D02*
Y1428124D01*
Y1430772D02*
Y1430974D01*
Y1432698D02*
Y1432824D01*
X2036400Y1420814D02*
Y1420974D01*
Y1422211D02*
Y1422336D01*
Y1423477D02*
Y1423593D01*
Y1426228D02*
Y1426439D01*
Y1427998D02*
Y1428124D01*
Y1430760D02*
Y1430889D01*
Y1432695D02*
Y1432827D01*
X2036500Y1420831D02*
Y1420990D01*
Y1422211D02*
Y1422336D01*
Y1423440D02*
Y1423573D01*
Y1426072D02*
Y1426274D01*
Y1427998D02*
Y1428124D01*
Y1430760D02*
Y1433500D01*
X2036600Y1420871D02*
Y1421010D01*
Y1423390D02*
Y1423544D01*
Y1426060D02*
Y1426189D01*
Y1427995D02*
Y1428127D01*
Y1430773D02*
Y1433487D01*
X2036700Y1420909D02*
Y1421030D01*
Y1423327D02*
Y1423477D01*
Y1426060D02*
Y1428800D01*
Y1432698D02*
Y1432824D01*
X2036800Y1420943D02*
Y1421092D01*
Y1423267D02*
Y1423379D01*
Y1426073D02*
Y1428787D01*
Y1432698D02*
Y1432824D01*
X2036900Y1421036D02*
Y1421150D01*
Y1427998D02*
Y1428124D01*
Y1432698D02*
Y1432824D01*
X2037000Y1427998D02*
Y1428124D01*
Y1432698D02*
Y1432824D01*
X2037100Y1427998D02*
Y1428124D01*
X2037200Y1427998D02*
Y1428124D01*
X2037500Y1421024D02*
Y1421182D01*
Y1423275D02*
Y1423430D01*
X2037600Y1420974D02*
Y1421132D01*
Y1423325D02*
Y1423463D01*
Y1431877D02*
Y1432785D01*
X2037700Y1420924D02*
Y1421082D01*
Y1423375D02*
Y1423511D01*
Y1431368D02*
Y1433108D01*
X2037800Y1420890D02*
Y1421041D01*
Y1423416D02*
Y1423558D01*
Y1426060D02*
Y1426185D01*
Y1431160D02*
Y1431549D01*
Y1432063D02*
Y1432214D01*
Y1432891D02*
Y1433274D01*
X2037900Y1420870D02*
Y1421001D01*
Y1423456D02*
Y1423578D01*
Y1426060D02*
Y1426185D01*
Y1431040D02*
Y1431349D01*
Y1432030D02*
Y1432149D01*
Y1433136D02*
Y1433374D01*
X2038000Y1420852D02*
Y1420977D01*
Y1423481D02*
Y1423598D01*
Y1426060D02*
Y1426185D01*
Y1430925D02*
Y1431179D01*
Y1431985D02*
Y1432099D01*
Y1433255D02*
Y1433435D01*
X2038100Y1420838D02*
Y1420963D01*
Y1423495D02*
Y1423618D01*
Y1426060D02*
Y1426185D01*
Y1430868D02*
Y1431059D01*
Y1431935D02*
Y1432055D01*
Y1433355D02*
Y1433495D01*
X2038200Y1420824D02*
Y1420948D01*
Y1423509D02*
Y1423638D01*
Y1426060D02*
Y1426185D01*
Y1428688D02*
Y1428800D01*
Y1430811D02*
Y1430941D01*
Y1431907D02*
Y1432030D01*
Y1433385D02*
Y1433517D01*
X2038300Y1420814D02*
Y1420939D01*
Y1423512D02*
Y1423630D01*
Y1426060D02*
Y1426185D01*
Y1428455D02*
Y1428775D01*
Y1430757D02*
Y1430911D01*
Y1431887D02*
Y1432012D01*
Y1433402D02*
Y1433533D01*
X2038400Y1420814D02*
Y1420939D01*
Y1423487D02*
Y1423614D01*
Y1426060D02*
Y1426185D01*
Y1428221D02*
Y1428604D01*
Y1430745D02*
Y1430886D01*
Y1431887D02*
Y1432012D01*
Y1433419D02*
Y1433545D01*
X2038500Y1420814D02*
Y1420958D01*
Y1423462D02*
Y1423597D01*
Y1426060D02*
Y1426185D01*
Y1427988D02*
Y1428379D01*
Y1430732D02*
Y1430866D01*
Y1431888D02*
Y1432019D01*
Y1433405D02*
Y1433545D01*
X2038600Y1420842D02*
Y1421008D01*
Y1423437D02*
Y1423577D01*
Y1426060D02*
Y1426185D01*
Y1427755D02*
Y1428154D01*
Y1430720D02*
Y1430846D01*
Y1431913D02*
Y1432036D01*
Y1433389D02*
Y1433538D01*
X2038700Y1420882D02*
Y1421068D01*
Y1423385D02*
Y1423557D01*
Y1426060D02*
Y1426185D01*
Y1427521D02*
Y1427929D01*
Y1430715D02*
Y1430840D01*
Y1431938D02*
Y1432052D01*
Y1433371D02*
Y1433498D01*
X2038800Y1420943D02*
Y1421139D01*
Y1423301D02*
Y1423497D01*
Y1426060D02*
Y1426185D01*
Y1427288D02*
Y1427704D01*
Y1430715D02*
Y1430840D01*
Y1431963D02*
Y1432100D01*
Y1433294D02*
Y1433453D01*
X2038900Y1421018D02*
Y1421211D01*
Y1423218D02*
Y1423437D01*
Y1426060D02*
Y1426185D01*
Y1427055D02*
Y1427479D01*
Y1430745D02*
Y1430865D01*
Y1432002D02*
Y1432175D01*
Y1433214D02*
Y1433370D01*
X2039000Y1421093D02*
Y1421303D01*
Y1423051D02*
Y1423343D01*
Y1426060D02*
Y1426185D01*
Y1426821D02*
Y1427254D01*
Y1430779D02*
Y1430904D01*
Y1432052D02*
Y1432318D01*
Y1433045D02*
Y1433287D01*
X2039100Y1421179D02*
Y1421503D01*
Y1422826D02*
Y1423227D01*
Y1426060D02*
Y1426185D01*
Y1426588D02*
Y1427029D01*
Y1430805D02*
Y1430930D01*
Y1432110D02*
Y1433170D01*
X2039200Y1421346D02*
Y1421958D01*
Y1422333D02*
Y1423027D01*
Y1426060D02*
Y1426185D01*
Y1426355D02*
Y1426804D01*
Y1432310D02*
Y1433020D01*
X2039300Y1421583D02*
Y1422827D01*
Y1426060D02*
Y1426579D01*
X2039400Y1426060D02*
Y1426354D01*
X2042900Y1514800D02*
Y1514925D01*
X2043000Y1514800D02*
Y1514925D01*
Y1516568D02*
Y1517131D01*
X2043100Y1514800D02*
Y1514925D01*
Y1516340D02*
Y1517324D01*
X2043200Y1514800D02*
Y1514925D01*
Y1516180D02*
Y1516436D01*
Y1517141D02*
Y1517421D01*
X2043300Y1514800D02*
Y1514925D01*
Y1516020D02*
Y1516250D01*
Y1517278D02*
Y1517487D01*
X2043400Y1514800D02*
Y1514925D01*
Y1515854D02*
Y1516110D01*
Y1517353D02*
Y1517544D01*
X2043500Y1514800D02*
Y1514925D01*
Y1515722D02*
Y1515959D01*
Y1517416D02*
Y1517557D01*
X2043600Y1514800D02*
Y1514925D01*
Y1515622D02*
Y1515796D01*
Y1517436D02*
Y1517569D01*
X2043700Y1514800D02*
Y1514925D01*
Y1515522D02*
Y1515715D01*
Y1517456D02*
Y1517582D01*
X2043800Y1514800D02*
Y1514925D01*
Y1515422D02*
Y1515635D01*
Y1517446D02*
Y1517569D01*
X2043900Y1514800D02*
Y1514925D01*
Y1515322D02*
Y1515535D01*
Y1517426D02*
Y1517549D01*
X2044000Y1514800D02*
Y1514925D01*
Y1515222D02*
Y1515427D01*
Y1517399D02*
Y1517526D01*
X2044100Y1514800D02*
Y1514925D01*
Y1515122D02*
Y1515320D01*
Y1517359D02*
Y1517501D01*
X2044200Y1514800D02*
Y1514932D01*
Y1515022D02*
Y1515212D01*
Y1517318D02*
Y1517454D01*
X2044300Y1514800D02*
Y1515104D01*
Y1517252D02*
Y1517404D01*
X2044400Y1514800D02*
Y1514956D01*
X2045000Y1515476D02*
Y1515602D01*
X2045100Y1515476D02*
Y1515602D01*
X2045200Y1515476D02*
Y1515602D01*
X2045300Y1515476D02*
Y1515602D01*
X2045400Y1514813D02*
Y1517527D01*
X2045500Y1514800D02*
Y1517540D01*
X2045600Y1515473D02*
Y1515605D01*
Y1517411D02*
Y1517540D01*
X2045700Y1515476D02*
Y1515602D01*
Y1517326D02*
Y1517528D01*
X2045800Y1515476D02*
Y1515602D01*
Y1517161D02*
Y1517372D01*
X2045900Y1515476D02*
Y1515602D01*
Y1516995D02*
Y1517208D01*
X2046000Y1515476D02*
Y1515602D01*
Y1516830D02*
Y1517044D01*
X2046100Y1515476D02*
Y1515602D01*
Y1516665D02*
Y1516880D01*
X2046200Y1515476D02*
Y1515602D01*
Y1516500D02*
Y1516716D01*
X2046300Y1515476D02*
Y1515602D01*
Y1516335D02*
Y1516552D01*
X2046400Y1515476D02*
Y1515602D01*
Y1516169D02*
Y1516388D01*
X2046500Y1515476D02*
Y1515602D01*
Y1516004D02*
Y1516224D01*
X2046600Y1515476D02*
Y1515602D01*
Y1515839D02*
Y1516060D01*
X2046700Y1515476D02*
Y1515630D01*
Y1515673D02*
Y1515896D01*
X2046800Y1515476D02*
Y1515732D01*
X2047300Y1514807D02*
Y1514859D01*
X2047400Y1514800D02*
Y1515114D01*
X2047500Y1514946D02*
Y1515348D01*
Y1516701D02*
Y1517007D01*
X2047600Y1515196D02*
Y1515581D01*
Y1516448D02*
Y1517287D01*
X2047700Y1515446D02*
Y1515822D01*
Y1516373D02*
Y1516605D01*
Y1517034D02*
Y1517347D01*
X2047800Y1515696D02*
Y1515972D01*
Y1516311D02*
Y1516421D01*
Y1517257D02*
Y1517407D01*
X2047900Y1515862D02*
Y1516091D01*
Y1516271D02*
Y1516380D01*
Y1517333D02*
Y1517458D01*
X2048000Y1515976D02*
Y1516160D01*
Y1516225D02*
Y1516340D01*
Y1517358D02*
Y1517508D01*
X2048100Y1516036D02*
Y1516316D01*
Y1517388D02*
Y1517540D01*
X2048200Y1516096D02*
Y1516301D01*
Y1517415D02*
Y1517540D01*
X2048300Y1516122D02*
Y1516287D01*
Y1517415D02*
Y1517540D01*
X2048400Y1516142D02*
Y1516278D01*
Y1517415D02*
Y1517540D01*
X2048500Y1516152D02*
Y1516278D01*
Y1517415D02*
Y1517540D01*
X2048600Y1516152D02*
Y1516278D01*
Y1517415D02*
Y1517540D01*
X2048700Y1516152D02*
Y1516278D01*
Y1517415D02*
Y1517540D01*
X2048800Y1516145D02*
Y1516285D01*
Y1517407D02*
Y1517540D01*
X2048900Y1514800D02*
Y1517539D01*
X2054400Y1532061D02*
Y1534800D01*
X2054500Y1532060D02*
Y1532193D01*
Y1533315D02*
Y1533455D01*
X2054600Y1532060D02*
Y1532185D01*
Y1533322D02*
Y1533448D01*
X2054700Y1470436D02*
Y1470964D01*
Y1532060D02*
Y1532185D01*
Y1533322D02*
Y1533448D01*
X2054800Y1469902D02*
Y1471492D01*
Y1532060D02*
Y1532185D01*
Y1533322D02*
Y1533448D01*
X2054900Y1469652D02*
Y1470058D01*
Y1471250D02*
Y1471765D01*
Y1532060D02*
Y1532185D01*
Y1533322D02*
Y1533458D01*
X2055000Y1469519D02*
Y1469773D01*
Y1471543D02*
Y1471865D01*
Y1532060D02*
Y1532185D01*
Y1533313D02*
Y1533478D01*
X2055100Y1469428D02*
Y1469640D01*
Y1471761D02*
Y1471965D01*
Y1532060D02*
Y1532185D01*
Y1533299D02*
Y1533504D01*
X2055200Y1469357D02*
Y1469544D01*
Y1471862D02*
Y1472026D01*
Y1532060D02*
Y1532212D01*
Y1533284D02*
Y1533564D01*
X2055300Y1469332D02*
Y1469469D01*
Y1471912D02*
Y1472046D01*
Y1532092D02*
Y1532242D01*
Y1533260D02*
Y1533375D01*
Y1533440D02*
Y1533624D01*
X2055400Y1469310D02*
Y1469434D01*
Y1471943D02*
Y1472066D01*
Y1532142D02*
Y1532267D01*
Y1533220D02*
Y1533329D01*
Y1533509D02*
Y1533738D01*
X2055500Y1469293D02*
Y1469417D01*
Y1471963D02*
Y1472086D01*
Y1532193D02*
Y1532343D01*
Y1533179D02*
Y1533289D01*
Y1533628D02*
Y1533904D01*
X2055600Y1469277D02*
Y1469401D01*
Y1471973D02*
Y1472098D01*
Y1532253D02*
Y1532566D01*
Y1532995D02*
Y1533227D01*
Y1533778D02*
Y1534154D01*
X2055700Y1469272D02*
Y1469418D01*
Y1471953D02*
Y1472081D01*
Y1532313D02*
Y1533152D01*
Y1534019D02*
Y1534404D01*
X2055800Y1469272D02*
Y1469446D01*
Y1471933D02*
Y1472065D01*
Y1532593D02*
Y1532899D01*
Y1534252D02*
Y1534654D01*
X2055900Y1469297D02*
Y1469475D01*
Y1471902D02*
Y1472025D01*
Y1534486D02*
Y1534800D01*
X2056000Y1469337D02*
Y1469536D01*
Y1471840D02*
Y1471975D01*
Y1534741D02*
Y1534793D01*
X2056100Y1469410D02*
Y1469661D01*
Y1471720D02*
Y1471890D01*
X2056200Y1469510D02*
Y1469796D01*
Y1471600D02*
Y1471804D01*
X2056300Y1469610D02*
Y1470102D01*
Y1471181D02*
Y1471718D01*
X2056400Y1469859D02*
Y1471445D01*
X2056500Y1470221D02*
Y1470908D01*
Y1533868D02*
Y1534124D01*
X2056600Y1533704D02*
Y1533927D01*
Y1533970D02*
Y1534124D01*
X2056700Y1533540D02*
Y1533761D01*
Y1533998D02*
Y1534124D01*
X2056800Y1533376D02*
Y1533596D01*
Y1533998D02*
Y1534124D01*
X2056900Y1533212D02*
Y1533431D01*
Y1533998D02*
Y1534124D01*
X2057000Y1533048D02*
Y1533265D01*
Y1533998D02*
Y1534124D01*
X2057100Y1469317D02*
Y1469443D01*
Y1532884D02*
Y1533100D01*
Y1533998D02*
Y1534124D01*
X2057200Y1469317D02*
Y1469443D01*
Y1532720D02*
Y1532935D01*
Y1533998D02*
Y1534124D01*
X2057300Y1469317D02*
Y1469443D01*
Y1532556D02*
Y1532770D01*
Y1533998D02*
Y1534124D01*
X2057400Y1469317D02*
Y1469443D01*
Y1532392D02*
Y1532605D01*
Y1533998D02*
Y1534124D01*
X2057500Y1469317D02*
Y1469443D01*
Y1532228D02*
Y1532439D01*
Y1533998D02*
Y1534124D01*
X2057600Y1469317D02*
Y1469443D01*
Y1532072D02*
Y1532274D01*
Y1533998D02*
Y1534124D01*
X2057700Y1469317D02*
Y1469484D01*
Y1532060D02*
Y1532189D01*
Y1533995D02*
Y1534127D01*
X2057800Y1469317D02*
Y1472057D01*
Y1532060D02*
Y1534800D01*
X2057900Y1469317D02*
Y1469447D01*
Y1471837D02*
Y1472017D01*
Y1532073D02*
Y1534787D01*
X2058000Y1469317D02*
Y1469443D01*
Y1471802D02*
Y1471957D01*
Y1533998D02*
Y1534124D01*
X2058100Y1469317D02*
Y1469443D01*
Y1471741D02*
Y1471897D01*
Y1533998D02*
Y1534124D01*
X2058200Y1469317D02*
Y1469443D01*
Y1471679D02*
Y1471837D01*
Y1533998D02*
Y1534124D01*
X2058300Y1469317D02*
Y1469443D01*
Y1471617D02*
Y1471777D01*
Y1533998D02*
Y1534124D01*
X2058400Y1469317D02*
Y1469443D01*
Y1471556D02*
Y1471717D01*
X2058500Y1469317D02*
Y1469443D01*
Y1471494D02*
Y1471657D01*
X2058900Y1534523D02*
Y1534650D01*
X2059000Y1532218D02*
Y1532377D01*
Y1534587D02*
Y1534726D01*
X2059100Y1532161D02*
Y1532312D01*
Y1534635D02*
Y1534759D01*
X2059200Y1532100D02*
Y1532254D01*
Y1533357D02*
Y1533448D01*
Y1534655D02*
Y1534799D01*
X2059300Y1532080D02*
Y1532204D01*
Y1533322D02*
Y1533448D01*
Y1534674D02*
Y1534839D01*
X2059400Y1470292D02*
Y1470908D01*
Y1532060D02*
Y1532176D01*
Y1533322D02*
Y1533448D01*
Y1534689D02*
Y1534845D01*
X2059500Y1469986D02*
Y1471366D01*
Y1532040D02*
Y1532160D01*
Y1533313D02*
Y1533449D01*
Y1534703D02*
Y1534845D01*
X2059600Y1469807D02*
Y1470128D01*
Y1471202D02*
Y1471566D01*
Y1532020D02*
Y1532143D01*
Y1533296D02*
Y1533463D01*
Y1534717D02*
Y1534842D01*
X2059700Y1469682D02*
Y1469948D01*
Y1471382D02*
Y1471728D01*
Y1532025D02*
Y1532155D01*
Y1533280D02*
Y1533478D01*
Y1534707D02*
Y1534831D01*
X2059800Y1469600D02*
Y1469768D01*
Y1471562D02*
Y1471788D01*
Y1532038D02*
Y1532175D01*
Y1533232D02*
Y1533342D01*
Y1533382D02*
Y1533492D01*
Y1534690D02*
Y1534820D01*
X2059900Y1469527D02*
Y1469676D01*
Y1471657D02*
Y1471848D01*
Y1532050D02*
Y1532211D01*
Y1533172D02*
Y1533287D01*
Y1533433D02*
Y1533544D01*
Y1534674D02*
Y1534809D01*
X2060000Y1469467D02*
Y1469615D01*
Y1471728D02*
Y1471908D01*
Y1532079D02*
Y1532278D01*
Y1533090D02*
Y1533247D01*
Y1533466D02*
Y1533604D01*
Y1534605D02*
Y1534782D01*
X2060100Y1469407D02*
Y1469565D01*
Y1471799D02*
Y1471968D01*
Y1532139D02*
Y1532451D01*
Y1532957D02*
Y1533188D01*
Y1533501D02*
Y1533681D01*
Y1534530D02*
Y1534724D01*
X2060200Y1469377D02*
Y1469519D01*
Y1471848D02*
Y1471986D01*
Y1532231D02*
Y1533113D01*
Y1533561D02*
Y1533781D01*
Y1534401D02*
Y1534667D01*
X2060300Y1469348D02*
Y1469479D01*
Y1471868D02*
Y1472002D01*
Y1532424D02*
Y1532858D01*
Y1533621D02*
Y1534070D01*
Y1534097D02*
Y1534575D01*
X2060400Y1469319D02*
Y1469443D01*
Y1471887D02*
Y1472018D01*
Y1533782D02*
Y1534425D01*
X2060500Y1469317D02*
Y1469443D01*
Y1471904D02*
Y1472032D01*
X2060600Y1469317D02*
Y1469443D01*
Y1471921D02*
Y1472047D01*
X2060700Y1469317D02*
Y1469443D01*
Y1471932D02*
Y1472057D01*
X2060800Y1469317D02*
Y1469443D01*
Y1471932D02*
Y1472057D01*
X2060900Y1469317D02*
Y1469443D01*
Y1471932D02*
Y1472057D01*
X2061000Y1469317D02*
Y1469443D01*
Y1471932D02*
Y1472057D01*
X2061100Y1469317D02*
Y1469443D01*
Y1471932D02*
Y1472057D01*
X2061200Y1469317D02*
Y1472057D01*
X2061300Y1469344D02*
Y1472030D01*
*
G04 PC Custom Flashes*
G04 Layer Name Eago tracker.pcb - flashes*
%LPD*%
*
*
G04 PC Circuitry*
G04 Layer Name Eago tracker.pcb - circuitry*
%LPD*%
*
G54D10*
G54D11*
X2042839Y1511831D03*
X2049139D03*
X1995446Y1426592D03*
X2001746D03*
X2010829Y1431466D03*
X2004530D03*
X1994508Y1421644D03*
X1988209D03*
X1995395Y1431539D03*
X1989095D03*
X2051513Y1533338D03*
X2045214D03*
X2027861Y1528700D03*
X2021562D03*
X2009200Y1522350D03*
X2015500D03*
X2010916Y1421543D03*
X2017216D03*
X2030455Y1432109D03*
X2024155D03*
X2024178Y1427407D03*
X2030477D03*
X2011000Y1426250D03*
X2017300D03*
X2030477Y1422090D03*
X2024178D03*
G54D16*
X2034258Y1470684D03*
X2050006D03*
X2025467D03*
X2009719D03*
G54D21*
X2040220Y1451056D03*
X2030378D03*
X2020535D03*
X2010693D03*
X2000850D03*
X1991007D03*
X1981165D03*
X1971322D03*
X1961480D03*
X2040220Y1439245D03*
X2030378D03*
X2020535D03*
X2010693D03*
X2000850D03*
X1991007D03*
X1981165D03*
X1971322D03*
X1961480D03*
G54D22*
X1939826Y1433340D03*
X2061874D03*
G54D28*
X2084050Y1522760D03*
G54D29*
Y1536540D03*
G54D41*
X1903561Y1782550D02*
G75*
G03X1891750Y1770739I0J-11811D01*
G01Y1429261*
G03X1903561Y1417450I11811J0*
G01X2096439*
G03X2108250Y1429261I-0J11811*
G01Y1770739*
G03X2096439Y1782550I-11811J-0*
G01X1903561*
G54D42*
X2100970Y1655556D03*
G54D43*
X2090970D03*
G54D44*
X2094350Y1588350D03*
G54D45*
Y1580476D03*
Y1572602D03*
G54D46*
X2097850Y1603050D03*
G54D47*
Y1613050D03*
Y1623050D03*
Y1633050D03*
Y1643050D03*
G54D68*
X2079450Y1759950D03*
G54D69*
X2069450Y1749950D03*
Y1769950D03*
X2089450D03*
Y1749950D03*
G54D96*
X2010531Y1503205D03*
X2015531D03*
X2020531D03*
X2025531D03*
Y1481850D03*
X2020531D03*
X2015531D03*
X2010531D03*
X2033466Y1503205D03*
X2038466D03*
X2043466D03*
X2048466D03*
Y1481850D03*
X2043466D03*
X2038466D03*
X2033466D03*
G54D97*
X2045087Y1527118D03*
X2052568D03*
X2048828Y1518457D03*
X2021811Y1522035D03*
X2029291D03*
X2025551Y1513373D03*
G54D98*
X2024771Y1460389D03*
X2031463D03*
G54D168*
X2059332Y1521169D02*
X2059105Y1521325D01*
X2058877Y1521637*
X2058764Y1521950*
X2058650Y1522419*
Y1523200*
X2058764Y1523669*
X2058877Y1523981*
X2059105Y1524294*
X2059332Y1524450*
X2059786*
X2060014Y1524294*
X2060241Y1523981*
X2060355Y1523669*
X2060468Y1523200*
Y1522419*
X2060355Y1521950*
X2060241Y1521637*
X2060014Y1521325*
X2059786Y1521169*
X2059332*
X2059673Y1523825D02*
X2060355Y1524762D01*
X2061718Y1521169D02*
X2062968D01*
X2062286Y1522419*
X2062627*
X2062855Y1522575*
X2062968Y1522731*
X2063082Y1523200*
Y1523512*
X2062968Y1523981*
X2062741Y1524294*
X2062400Y1524450*
X2062059*
X2061718Y1524294*
X2061605Y1524137*
X2061491Y1523825*
G54D169*
X2054428Y1520187D02*
Y1525387D01*
X2043228*
Y1520187*
X2054428*
X2031151Y1515104D02*
Y1520304D01*
X2019951*
Y1515104*
X2031151*
G54D170*
X2042839Y1510256D02*
X2049139D01*
Y1513406*
X2042839*
Y1510256*
X2008385Y1500205D02*
Y1484850D01*
X2027676*
Y1500205*
X2008385*
X2013385D02*
X2008385Y1495205D01*
X1995446Y1425017D02*
X2001746D01*
Y1428166*
X1995446*
Y1425017*
X2010829Y1433040D02*
X2004530D01*
Y1429891*
X2010829*
Y1433040*
X1994508Y1420069D02*
X1988209D01*
Y1423218*
X1994508*
Y1420069*
X1995395Y1433114D02*
X1989095D01*
Y1429965*
X1995395*
Y1433114*
X2051513Y1534913D02*
X2045214D01*
Y1531763*
X2051513*
Y1534913*
X2027861Y1530275D02*
X2021562D01*
Y1527126*
X2027861*
Y1530275*
X2009200Y1520775D02*
X2015500D01*
Y1523925*
X2009200*
Y1520775*
X2031321Y1500205D02*
Y1484850D01*
X2050612*
Y1500205*
X2031321*
X2036321D02*
X2031321Y1495205D01*
X2010916Y1423118D02*
X2017216D01*
Y1419968*
X2010916*
Y1423118*
X2030455Y1433684D02*
X2024155D01*
Y1430534*
X2030455*
Y1433684*
X2024178Y1425832D02*
X2030477D01*
Y1428982*
X2024178*
Y1425832*
X2011000Y1424675D02*
X2017300D01*
Y1427825*
X2011000*
Y1424675*
X2030477Y1420515D02*
X2024178D01*
Y1423665*
X2030477*
Y1420515*
X2024771Y1458617D02*
X2031463D01*
Y1462161*
X2024771*
Y1458617*
Y1460094D02*
X2026247Y1458617D01*
G54D171*
G74*
X0Y0D02*
M02*
