*
*
G04 PADS VX.2.11 Build Number: 20124196 generated Gerber (RS-274-X) file*
G04 PC Version=2.1*
*
%IN "Eago tracker.pcb"*%
*
%MOIN*%
*
%FSLAX35Y35*%
*
*
*
*
G04 PC Standard Apertures*
*
*
G04 Thermal Relief Aperture macro.*
%AMTER*
1,1,$1,0,0*
1,0,$1-$2,0,0*
21,0,$3,$4,0,0,45*
21,0,$3,$4,0,0,135*
%
*
*
G04 Annular Aperture macro.*
%AMANN*
1,1,$1,0,0*
1,0,$2,0,0*
%
*
*
G04 Odd Aperture macro.*
%AMODD*
1,1,$1,0,0*
1,0,$1-0.005,0,0*
%
*
*
G04 PC Custom Aperture Macros*
*
*
*
*
*
*
G04 PC Aperture Table*
*
%ADD010C,0.001*%
%ADD041C,0.01*%
*
*
*
*
G04 PC Circuitry*
G04 Layer Name Eago tracker.pcb - circuitry*
%LPD*%
*
*
G04 PC Custom Flashes*
G04 Layer Name Eago tracker.pcb - flashes*
%LPD*%
*
*
G04 PC Circuitry*
G04 Layer Name Eago tracker.pcb - circuitry*
%LPD*%
*
G54D10*
G01X1743385Y1486350D02*
X1743387D01*
X1959885Y1486550D02*
X1959887D01*
X1915585Y1479250D02*
X1915587D01*
X1909285Y1844350D02*
X1909287D01*
G54D41*
X1838794Y1363463D02*
X1836521D01*
X1836521D02*
X1836294Y1360650D01*
X1836521Y1360963*
X1836521D02*
X1837203Y1361275D01*
X1837885*
X1838566Y1360963*
X1838566D02*
X1839021Y1360338D01*
X1839021D02*
X1839248Y1359400D01*
X1839021Y1358775*
X1838794Y1357838*
X1838794D02*
X1838339Y1357213D01*
X1838339D02*
X1837657Y1356900D01*
X1836976*
X1836294Y1357213*
X1836294D02*
X1836066Y1357525D01*
X1835839Y1358150*
X1844248Y1363463D02*
X1841976D01*
X1841976D02*
X1841748Y1360650D01*
X1841976Y1360963*
X1841976D02*
X1842657Y1361275D01*
X1843339*
X1844021Y1360963*
X1844021D02*
X1844476Y1360338D01*
X1844476D02*
X1844703Y1359400D01*
X1844476Y1358775*
X1844248Y1357838*
X1844248D02*
X1843794Y1357213D01*
X1843794D02*
X1843112Y1356900D01*
X1842430*
X1841748Y1357213*
X1841748D02*
X1841521Y1357525D01*
X1841294Y1358150*
X1846976Y1357525D02*
X1846748Y1357213D01*
X1846748D02*
X1846976Y1356900D01*
X1847203Y1357213*
X1847203D02*
X1846976Y1357525D01*
X1850612Y1363463D02*
X1849930Y1363150D01*
X1849476Y1362213*
X1849476D02*
X1849248Y1360650D01*
Y1359713*
X1849248D02*
X1849476Y1358150D01*
X1849930Y1357213*
X1849930D02*
X1850612Y1356900D01*
X1851066*
X1851748Y1357213*
X1851748D02*
X1852203Y1358150D01*
X1852430Y1359713*
X1852430D02*
Y1360650D01*
X1852203Y1362213*
X1852203D02*
X1851748Y1363150D01*
X1851066Y1363463*
X1851066D02*
X1850612D01*
X1854476Y1361275D02*
Y1356900D01*
Y1360025D02*
X1855157Y1360963D01*
X1855157D02*
X1855612Y1361275D01*
X1856294*
X1856748Y1360963*
X1856748D02*
X1856976Y1360025D01*
Y1356900*
Y1360025D02*
X1857657Y1360963D01*
X1857657D02*
X1858112Y1361275D01*
X1858794*
X1859248Y1360963*
X1859248D02*
X1859476Y1360025D01*
Y1356900*
X1861521Y1361275D02*
Y1356900D01*
Y1360025D02*
X1862203Y1360963D01*
X1862203D02*
X1862657Y1361275D01*
X1863339*
X1863794Y1360963*
X1863794D02*
X1864021Y1360025D01*
Y1356900*
Y1360025D02*
X1864703Y1360963D01*
X1864703D02*
X1865157Y1361275D01*
X1865839*
X1866294Y1360963*
X1866294D02*
X1866521Y1360025D01*
Y1356900*
X2227685Y1662425D02*
X2227457Y1661488D01*
X2227457D02*
X2227003Y1660863D01*
X2227003D02*
X2226321Y1660550D01*
X2226094*
X2225412Y1660863*
X2225412D02*
X2224957Y1661488D01*
X2224957D02*
X2224730Y1662425D01*
Y1662738*
X2224730D02*
X2224957Y1663675D01*
X2225412Y1664300*
X2226094Y1664613*
X2226094D02*
X2226321D01*
X2226321D02*
X2227003Y1664300D01*
X2227457Y1663675*
X2227685Y1662425*
Y1660863*
X2227685D02*
X2227457Y1659300D01*
X2227003Y1658363*
X2227003D02*
X2226321Y1658050D01*
X2225866*
X2225185Y1658363*
X2225185D02*
X2224957Y1658988D01*
X2229957Y1663050D02*
Y1663363D01*
X2229957D02*
X2230185Y1663988D01*
X2230185D02*
X2230412Y1664300D01*
X2230866Y1664613*
X2230866D02*
X2231776D01*
X2231776D02*
X2232230Y1664300D01*
X2232457Y1663988*
X2232457D02*
X2232685Y1663363D01*
X2232685D02*
Y1662738D01*
X2232685D02*
X2232457Y1662113D01*
X2232457D02*
X2232003Y1661175D01*
X2229730Y1658050*
X2232912*
X2235185Y1658675D02*
X2234957Y1658363D01*
X2234957D02*
X2235185Y1658050D01*
X2235412Y1658363*
X2235412D02*
X2235185Y1658675D01*
X2240639Y1664613D02*
X2238366Y1658050D01*
X2237457Y1664613D02*
X2240639D01*
X2242685Y1662425D02*
Y1658050D01*
Y1661175D02*
X2243366Y1662113D01*
X2243366D02*
X2243821Y1662425D01*
X2244503*
X2244957Y1662113*
X2244957D02*
X2245185Y1661175D01*
Y1658050*
Y1661175D02*
X2245866Y1662113D01*
X2245866D02*
X2246321Y1662425D01*
X2247003*
X2247457Y1662113*
X2247457D02*
X2247685Y1661175D01*
Y1658050*
X2249730Y1662425D02*
Y1658050D01*
Y1661175D02*
X2250412Y1662113D01*
X2250412D02*
X2250866Y1662425D01*
X2251548*
X2252003Y1662113*
X2252003D02*
X2252230Y1661175D01*
Y1658050*
Y1661175D02*
X2252912Y1662113D01*
X2252912D02*
X2253366Y1662425D01*
X2254048*
X2254503Y1662113*
X2254503D02*
X2254730Y1661175D01*
Y1658050*
X1887855Y1508856D02*
X1895855D01*
Y1516856*
X1887855*
Y1508856*
X1891855Y1512856D02*
Y1516856D01*
X1878012Y1508856D02*
X1886012D01*
Y1516856*
X1878012*
Y1508856*
X1882012Y1512856D02*
Y1516856D01*
X1868170Y1508856D02*
X1876170D01*
Y1516856*
X1868170*
Y1508856*
X1872170Y1512856D02*
Y1516856D01*
X1858327Y1508856D02*
X1866327D01*
Y1516856*
X1858327*
Y1508856*
X1862327Y1512856D02*
Y1516856D01*
X1848485Y1508856D02*
X1856485D01*
Y1516856*
X1848485*
Y1508856*
X1852485Y1512856D02*
Y1516856D01*
X1838642Y1508856D02*
X1846642D01*
Y1516856*
X1838642*
Y1508856*
X1842642Y1512856D02*
Y1516856D01*
X1828800Y1508856D02*
X1836800D01*
Y1516856*
X1828800*
Y1508856*
X1832800Y1512856D02*
Y1516856D01*
X1818957Y1508856D02*
X1826957D01*
Y1516856*
X1818957*
Y1508856*
X1822957Y1512856D02*
Y1516856D01*
X1809115Y1508856D02*
X1817115D01*
Y1516856*
X1809115*
Y1508856*
X1813115Y1512856D02*
Y1516856D01*
X1887855Y1497045D02*
X1895855D01*
Y1505045*
X1887855*
Y1497045*
X1891855Y1501045D02*
Y1505045D01*
X1878012Y1497045D02*
X1886012D01*
Y1505045*
X1878012*
Y1497045*
X1882012Y1501045D02*
Y1505045D01*
X1868170Y1497045D02*
X1876170D01*
Y1505045*
X1868170*
Y1497045*
X1872170Y1501045D02*
Y1505045D01*
X1858327Y1497045D02*
X1866327D01*
Y1505045*
X1858327*
Y1497045*
X1862327Y1501045D02*
Y1505045D01*
X1848485Y1497045D02*
X1856485D01*
Y1505045*
X1848485*
Y1497045*
X1852485Y1501045D02*
Y1505045D01*
X1838642Y1497045D02*
X1846642D01*
Y1505045*
X1838642*
Y1497045*
X1842642Y1501045D02*
Y1505045D01*
X1828800Y1497045D02*
X1836800D01*
Y1505045*
X1828800*
Y1497045*
X1832800Y1501045D02*
Y1505045D01*
X1818957Y1497045D02*
X1826957D01*
Y1505045*
X1818957*
Y1497045*
X1822957Y1501045D02*
Y1505045D01*
X1809115Y1497045D02*
X1817115D01*
Y1505045*
X1809115*
Y1497045*
X1813115Y1501045D02*
Y1505045D01*
X1787461Y1491140D02*
X1795461Y1499140D01*
X1787461D02*
X1795461Y1491140D01*
X1909508D02*
X1917508Y1499140D01*
X1909508D02*
X1917508Y1491140D01*
X1931685Y1580560D02*
X1939685D01*
X1931685Y1588560*
X1939685*
X1931685Y1580560*
Y1594340D02*
X1939685D01*
X1931685Y1602340*
X1939685*
X1931685Y1594340*
X1948605Y1717356D02*
X1956605D01*
X1952605Y1713356D02*
Y1721356D01*
X1954605Y1722638D02*
Y1719356D01*
Y1722638D02*
X1955627D01*
X1955968Y1722481*
X1956082Y1722325*
X1956196Y1722013*
Y1721700*
X1956082Y1721388*
X1955968Y1721231*
X1955627Y1721075*
X1954605D02*
X1955627D01*
X1955968Y1720919*
X1956082Y1720763*
X1956196Y1720450*
Y1719981*
X1956082Y1719669*
X1955968Y1719513*
X1955627Y1719356*
X1954605*
X1938605Y1717356D02*
X1946605D01*
X1942605Y1713356D02*
Y1721356D01*
X1944605Y1722638D02*
Y1719356D01*
Y1722638D02*
X1945627D01*
X1945968Y1722481*
X1946082Y1722325*
X1946196Y1722013*
Y1721700*
X1946082Y1721388*
X1945968Y1721231*
X1945627Y1721075*
X1944605D02*
X1945627D01*
X1945968Y1720919*
X1946082Y1720763*
X1946196Y1720450*
Y1719981*
X1946082Y1719669*
X1945968Y1719513*
X1945627Y1719356*
X1944605*
X1941985Y1646150D02*
X1949985Y1654150D01*
Y1646150*
X1941985Y1654150*
Y1646150*
Y1638276D02*
X1949985Y1646276D01*
Y1638276*
X1941985Y1646276*
Y1638276*
Y1630402D02*
X1949985Y1638402D01*
Y1630402*
X1941985Y1638402*
Y1630402*
X1945485Y1664850D02*
X1953485D01*
X1949485Y1660850D02*
Y1668850D01*
X1952394Y1670131D02*
X1951485Y1666850D01*
X1952394Y1670131D02*
X1953303Y1666850D01*
X1951826Y1667944D02*
X1952962D01*
X1945485Y1674850D02*
X1953485D01*
X1949485Y1670850D02*
Y1678850D01*
X1952394Y1680131D02*
X1951485Y1676850D01*
X1952394Y1680131D02*
X1953303Y1676850D01*
X1951826Y1677944D02*
X1952962D01*
X1945485Y1684850D02*
X1953485D01*
X1949485Y1680850D02*
Y1688850D01*
X1952394Y1690131D02*
X1951485Y1686850D01*
X1952394Y1690131D02*
X1953303Y1686850D01*
X1951826Y1687944D02*
X1952962D01*
X1945485Y1694850D02*
X1953485D01*
X1949485Y1690850D02*
Y1698850D01*
X1952394Y1700131D02*
X1951485Y1696850D01*
X1952394Y1700131D02*
X1953303Y1696850D01*
X1951826Y1697944D02*
X1952962D01*
X1945485Y1704850D02*
X1953485D01*
X1949485Y1700850D02*
Y1708850D01*
X1952394Y1710131D02*
X1951485Y1706850D01*
X1952394Y1710131D02*
X1953303Y1706850D01*
X1951826Y1707944D02*
X1952962D01*
X1927085Y1821750D02*
X1935085D01*
X1931085Y1817750D02*
Y1825750D01*
X1933085Y1827031D02*
Y1823750D01*
Y1827031D02*
X1933880D01*
X1934221Y1826875*
X1934448Y1826563*
X1934448D02*
X1934562Y1826250D01*
X1934676Y1825781*
Y1825000*
X1934562Y1824531*
X1934448Y1824219*
X1934221Y1823906*
X1933880Y1823750*
X1933085*
X1917085Y1811750D02*
X1925085D01*
X1921085Y1807750D02*
Y1815750D01*
X1924789Y1816250D02*
X1924676Y1816563D01*
X1924676D02*
X1924448Y1816875D01*
X1924221Y1817031*
X1923766*
X1923539Y1816875*
X1923312Y1816563*
X1923312D02*
X1923198Y1816250D01*
X1923085Y1815781*
Y1815000*
X1923198Y1814531*
X1923312Y1814219*
X1923539Y1813906*
X1923766Y1813750*
X1924221*
X1924448Y1813906*
X1924676Y1814219*
X1924789Y1814531*
X1917085Y1831750D02*
X1925085D01*
X1921085Y1827750D02*
Y1835750D01*
X1924789Y1836250D02*
X1924676Y1836563D01*
X1924676D02*
X1924448Y1836875D01*
X1924221Y1837031*
X1923766*
X1923539Y1836875*
X1923312Y1836563*
X1923312D02*
X1923198Y1836250D01*
X1923085Y1835781*
Y1835000*
X1923198Y1834531*
X1923312Y1834219*
X1923539Y1833906*
X1923766Y1833750*
X1924221*
X1924448Y1833906*
X1924676Y1834219*
X1924789Y1834531*
X1937085Y1831750D02*
X1945085D01*
X1941085Y1827750D02*
Y1835750D01*
X1944789Y1836250D02*
X1944676Y1836563D01*
X1944676D02*
X1944448Y1836875D01*
X1944221Y1837031*
X1943766*
X1943539Y1836875*
X1943312Y1836563*
X1943312D02*
X1943198Y1836250D01*
X1943085Y1835781*
Y1835000*
X1943198Y1834531*
X1943312Y1834219*
X1943539Y1833906*
X1943766Y1833750*
X1944221*
X1944448Y1833906*
X1944676Y1834219*
X1944789Y1834531*
X1937085Y1811750D02*
X1945085D01*
X1941085Y1807750D02*
Y1815750D01*
X1944789Y1816250D02*
X1944676Y1816563D01*
X1944676D02*
X1944448Y1816875D01*
X1944221Y1817031*
X1943766*
X1943539Y1816875*
X1943312Y1816563*
X1943312D02*
X1943198Y1816250D01*
X1943085Y1815781*
Y1815000*
X1943198Y1814531*
X1943312Y1814219*
X1943539Y1813906*
X1943766Y1813750*
X1944221*
X1944448Y1813906*
X1944676Y1814219*
X1944789Y1814531*
X1741745Y1489563D02*
X1749745D01*
X1745745Y1485563D02*
Y1493563D01*
X1765367Y1489563D02*
X1773367D01*
X1769367Y1485563D02*
Y1493563D01*
X1765367Y1481689D02*
X1773367D01*
X1769367Y1477689D02*
Y1485689D01*
X1749619Y1489563D02*
X1757619D01*
X1753619Y1485563D02*
Y1493563D01*
X1749619Y1481689D02*
X1757619D01*
X1753619Y1477689D02*
Y1485689D01*
X1757493Y1489563D02*
X1765493D01*
X1761493Y1485563D02*
Y1493563D01*
X1757493Y1481689D02*
X1765493D01*
X1761493Y1477689D02*
Y1485689D01*
X1781115Y1481689D02*
X1789115D01*
X1785115Y1477689D02*
Y1485689D01*
X1773241Y1481689D02*
X1781241D01*
X1777241Y1477689D02*
Y1485689D01*
X1773241Y1489563D02*
X1781241D01*
X1777241Y1485563D02*
Y1493563D01*
X1796863Y1481689D02*
X1804863D01*
X1800863Y1477689D02*
Y1485689D01*
X1804737Y1481689D02*
X1812737D01*
X1808737Y1477689D02*
Y1485689D01*
X1788989Y1481689D02*
X1796989D01*
X1792989Y1477689D02*
Y1485689D01*
X1812611Y1481689D02*
X1820611D01*
X1816611Y1477689D02*
Y1485689D01*
X1820485Y1481689D02*
X1828485D01*
X1824485Y1477689D02*
Y1485689D01*
X1828359Y1481689D02*
X1836359D01*
X1832359Y1477689D02*
Y1485689D01*
X1851981Y1481689D02*
X1859981D01*
X1855981Y1477689D02*
Y1485689D01*
X1883478Y1493893D02*
X1891478D01*
X1887478Y1489893D02*
Y1497893D01*
X1883478Y1481689D02*
X1891478D01*
X1887478Y1477689D02*
Y1485689D01*
X1888785Y1488050D02*
X1896785D01*
X1892785Y1484050D02*
Y1492050D01*
X1889383Y1494287D02*
X1897383D01*
X1893383Y1490287D02*
Y1498287D01*
X1897257Y1491531D02*
X1905257D01*
X1901257Y1487531D02*
Y1495531D01*
X1922848Y1481689D02*
X1930848D01*
X1926848Y1477689D02*
Y1485689D01*
X1930722Y1489563D02*
X1938722D01*
X1934722Y1485563D02*
Y1493563D01*
X1938596Y1489563D02*
X1946596D01*
X1942596Y1485563D02*
Y1493563D01*
X1930722Y1481689D02*
X1938722D01*
X1934722Y1477689D02*
Y1485689D01*
X1938596Y1481689D02*
X1946596D01*
X1942596Y1477689D02*
Y1485689D01*
X1946470Y1481689D02*
X1954470D01*
X1950470Y1477689D02*
Y1485689D01*
X1946470Y1489563D02*
X1954470D01*
X1950470Y1485563D02*
Y1493563D01*
X1741745Y1505311D02*
X1749745D01*
X1745745Y1501311D02*
Y1509311D01*
X1741745Y1513185D02*
X1749745D01*
X1745745Y1509185D02*
Y1517185D01*
X1741745Y1497437D02*
X1749745D01*
X1745745Y1493437D02*
Y1501437D01*
X1749619Y1513185D02*
X1757619D01*
X1753619Y1509185D02*
Y1517185D01*
X1749619Y1497437D02*
X1757619D01*
X1753619Y1493437D02*
Y1501437D01*
X1765367Y1513185D02*
X1773367D01*
X1769367Y1509185D02*
Y1517185D01*
X1765367Y1505311D02*
X1773367D01*
X1769367Y1501311D02*
Y1509311D01*
X1749619Y1505311D02*
X1757619D01*
X1753619Y1501311D02*
Y1509311D01*
X1765367Y1497437D02*
X1773367D01*
X1769367Y1493437D02*
Y1501437D01*
X1757493Y1497437D02*
X1765493D01*
X1761493Y1493437D02*
Y1501437D01*
X1757493Y1513185D02*
X1765493D01*
X1761493Y1509185D02*
Y1517185D01*
X1757493Y1505311D02*
X1765493D01*
X1761493Y1501311D02*
Y1509311D01*
X1781115Y1505311D02*
X1789115D01*
X1785115Y1501311D02*
Y1509311D01*
X1773241Y1513185D02*
X1781241D01*
X1777241Y1509185D02*
Y1517185D01*
X1773241Y1505311D02*
X1781241D01*
X1777241Y1501311D02*
Y1509311D01*
X1781115Y1513185D02*
X1789115D01*
X1785115Y1509185D02*
Y1517185D01*
X1773241Y1497437D02*
X1781241D01*
X1777241Y1493437D02*
Y1501437D01*
X1796863Y1513185D02*
X1804863D01*
X1800863Y1509185D02*
Y1517185D01*
X1788989Y1513185D02*
X1796989D01*
X1792989Y1509185D02*
Y1517185D01*
X1810643Y1507279D02*
X1818643D01*
X1814643Y1503279D02*
Y1511279D01*
X1834265Y1507279D02*
X1842265D01*
X1838265Y1503279D02*
Y1511279D01*
X1850013Y1507279D02*
X1858013D01*
X1854013Y1503279D02*
Y1511279D01*
X1873085Y1505650D02*
X1881085D01*
X1877085Y1501650D02*
Y1509650D01*
X1883478Y1505311D02*
X1891478D01*
X1887478Y1501311D02*
Y1509311D01*
X1899226Y1513185D02*
X1907226D01*
X1903226Y1509185D02*
Y1517185D01*
X1897257Y1499405D02*
X1905257D01*
X1901257Y1495405D02*
Y1503405D01*
X1914974Y1513185D02*
X1922974D01*
X1918974Y1509185D02*
Y1517185D01*
X1907100Y1513185D02*
X1915100D01*
X1911100Y1509185D02*
Y1517185D01*
X1930722Y1497437D02*
X1938722D01*
X1934722Y1493437D02*
Y1501437D01*
X1938596Y1505311D02*
X1946596D01*
X1942596Y1501311D02*
Y1509311D01*
X1938596Y1497437D02*
X1946596D01*
X1942596Y1493437D02*
Y1501437D01*
X1930722Y1513185D02*
X1938722D01*
X1934722Y1509185D02*
Y1517185D01*
X1946470Y1505311D02*
X1954470D01*
X1950470Y1501311D02*
Y1509311D01*
X1946470Y1497437D02*
X1954470D01*
X1950470Y1493437D02*
Y1501437D01*
X1946470Y1513185D02*
X1954470D01*
X1950470Y1509185D02*
Y1517185D01*
X1741745Y1528933D02*
X1749745D01*
X1745745Y1524933D02*
Y1532933D01*
X1741745Y1521059D02*
X1749745D01*
X1745745Y1517059D02*
Y1525059D01*
X1765367Y1528933D02*
X1773367D01*
X1769367Y1524933D02*
Y1532933D01*
X1749619Y1521059D02*
X1757619D01*
X1753619Y1517059D02*
Y1525059D01*
X1749619Y1528933D02*
X1757619D01*
X1753619Y1524933D02*
Y1532933D01*
X1757493Y1528933D02*
X1765493D01*
X1761493Y1524933D02*
Y1532933D01*
X1757493Y1521059D02*
X1765493D01*
X1761493Y1517059D02*
Y1525059D01*
X1765367Y1521059D02*
X1773367D01*
X1769367Y1517059D02*
Y1525059D01*
X1788989Y1528933D02*
X1796989D01*
X1792989Y1524933D02*
Y1532933D01*
X1812611Y1528933D02*
X1820611D01*
X1816611Y1524933D02*
Y1532933D01*
X1829285Y1528450D02*
X1837285D01*
X1833285Y1524450D02*
Y1532450D01*
X1834265Y1523027D02*
X1842265D01*
X1838265Y1519027D02*
Y1527027D01*
X1847257Y1530901D02*
X1855257D01*
X1851257Y1526901D02*
Y1534901D01*
X1853556Y1519484D02*
X1861556D01*
X1857556Y1515484D02*
Y1523484D01*
X1877966Y1526177D02*
X1885966D01*
X1881966Y1522177D02*
Y1530177D01*
X1883084Y1524996D02*
X1891084D01*
X1887084Y1520996D02*
Y1528996D01*
X1868911Y1526177D02*
X1876911D01*
X1872911Y1522177D02*
Y1530177D01*
X1903556Y1517122D02*
X1911556D01*
X1907556Y1513122D02*
Y1521122D01*
X1888989Y1519090D02*
X1896989D01*
X1892989Y1515090D02*
Y1523090D01*
X1902769Y1521846D02*
X1910769D01*
X1906769Y1517846D02*
Y1525846D01*
X1916785Y1522450D02*
X1924785D01*
X1920785Y1518450D02*
Y1526450D01*
X1915761Y1517909D02*
X1923761D01*
X1919761Y1513909D02*
Y1521909D01*
X1910249Y1521059D02*
X1918249D01*
X1914249Y1517059D02*
Y1525059D01*
X1926785Y1517909D02*
X1934785D01*
X1930785Y1513909D02*
Y1521909D01*
X1936627Y1523027D02*
X1944627D01*
X1940627Y1519027D02*
Y1527027D01*
X1936627Y1530901D02*
X1944627D01*
X1940627Y1526901D02*
Y1534901D01*
X1946470Y1521059D02*
X1954470D01*
X1950470Y1517059D02*
Y1525059D01*
X1946470Y1528933D02*
X1954470D01*
X1950470Y1524933D02*
Y1532933D01*
X1741745Y1544681D02*
X1749745D01*
X1745745Y1540681D02*
Y1548681D01*
X1741745Y1552555D02*
X1749745D01*
X1745745Y1548555D02*
Y1556555D01*
X1741745Y1536807D02*
X1749745D01*
X1745745Y1532807D02*
Y1540807D01*
X1753163Y1545468D02*
X1761163D01*
X1757163Y1541468D02*
Y1549468D01*
X1749619Y1536807D02*
X1757619D01*
X1753619Y1532807D02*
Y1540807D01*
X1757493Y1536807D02*
X1765493D01*
X1761493Y1532807D02*
Y1540807D01*
X1781115Y1552555D02*
X1789115D01*
X1785115Y1548555D02*
Y1556555D01*
X1771273Y1546649D02*
X1779273D01*
X1775273Y1542649D02*
Y1550649D01*
X1781115Y1544681D02*
X1789115D01*
X1785115Y1540681D02*
Y1548681D01*
X1793285Y1554250D02*
X1801285D01*
X1797285Y1550250D02*
Y1558250D01*
X1796185Y1542950D02*
X1800185Y1546950D01*
X1796185Y1550950*
X1792185Y1546950*
X1796185Y1542950*
Y1546950D02*
Y1550950D01*
X1788989Y1552555D02*
X1796989D01*
X1792989Y1548555D02*
Y1556555D01*
X1800407Y1545468D02*
X1808407D01*
X1804407Y1541468D02*
Y1549468D01*
X1823185Y1544650D02*
X1831185D01*
X1827185Y1540650D02*
Y1548650D01*
X1824285Y1550650D02*
X1828285Y1554650D01*
X1824285Y1558650*
X1820285Y1554650*
X1824285Y1550650*
Y1554650D02*
Y1558650D01*
X1812611Y1544681D02*
X1820611D01*
X1816611Y1540681D02*
Y1548681D01*
X1835485Y1547450D02*
X1843485D01*
X1839485Y1543450D02*
Y1551450D01*
X1845185Y1546550D02*
X1853185D01*
X1849185Y1542550D02*
Y1550550D01*
X1826185Y1544650D02*
X1834185D01*
X1830185Y1540650D02*
Y1548650D01*
X1846385Y1541150D02*
X1854385D01*
X1850385Y1537150D02*
Y1545150D01*
X1847257Y1536807D02*
X1855257D01*
X1851257Y1532807D02*
Y1540807D01*
X1851981Y1552555D02*
X1859981D01*
X1855981Y1548555D02*
Y1556555D01*
X1859856Y1552555D02*
X1867856D01*
X1863856Y1548555D02*
Y1556555D01*
X1875997Y1549011D02*
X1883997D01*
X1879997Y1545011D02*
Y1553011D01*
X1865761Y1538775D02*
X1873761D01*
X1869761Y1534775D02*
Y1542775D01*
X1890585Y1547450D02*
X1894585Y1551450D01*
X1890585Y1555450*
X1886585Y1551450*
X1890585Y1547450*
Y1551450D02*
Y1555450D01*
X1911037Y1540744D02*
X1919037D01*
X1915037Y1536744D02*
Y1544744D01*
X1911037Y1552555D02*
X1919037D01*
X1915037Y1548555D02*
Y1556555D01*
X1914385Y1547850D02*
X1922385D01*
X1918385Y1543850D02*
Y1551850D01*
X1926391Y1537594D02*
X1934391D01*
X1930391Y1533594D02*
Y1541594D01*
X1936627Y1538775D02*
X1944627D01*
X1940627Y1534775D02*
Y1542775D01*
X1936627Y1546649D02*
X1944627D01*
X1940627Y1542649D02*
Y1550649D01*
X1946470Y1536807D02*
X1954470D01*
X1950470Y1532807D02*
Y1540807D01*
X1946470Y1552555D02*
X1954470D01*
X1950470Y1548555D02*
Y1556555D01*
X1946470Y1544681D02*
X1954470D01*
X1950470Y1540681D02*
Y1548681D01*
X1741745Y1568303D02*
X1749745D01*
X1745745Y1564303D02*
Y1572303D01*
X1741745Y1560429D02*
X1749745D01*
X1745745Y1556429D02*
Y1564429D01*
X1758685Y1555550D02*
X1766685D01*
X1762685Y1551550D02*
Y1559550D01*
X1769485Y1568650D02*
X1777485D01*
X1773485Y1564650D02*
Y1572650D01*
X1801981Y1570665D02*
X1809981D01*
X1805981Y1566665D02*
Y1574665D01*
X1826785Y1570950D02*
X1834785D01*
X1830785Y1566950D02*
Y1574950D01*
X1851981Y1568303D02*
X1859981D01*
X1855981Y1564303D02*
Y1572303D01*
X1884659Y1571059D02*
X1892659D01*
X1888659Y1567059D02*
Y1575059D01*
X1875604Y1560429D02*
X1883604D01*
X1879604Y1556429D02*
Y1564429D01*
X1865761Y1560429D02*
X1873761D01*
X1869761Y1556429D02*
Y1564429D01*
X1922848Y1568303D02*
X1930848D01*
X1926848Y1564303D02*
Y1572303D01*
X1922848Y1560429D02*
X1930848D01*
X1926848Y1556429D02*
Y1564429D01*
X1914974Y1568303D02*
X1922974D01*
X1918974Y1564303D02*
Y1572303D01*
X1930722Y1568303D02*
X1938722D01*
X1934722Y1564303D02*
Y1572303D01*
X1930722Y1560429D02*
X1938722D01*
X1934722Y1556429D02*
Y1564429D01*
X1946470Y1568303D02*
X1954470D01*
X1950470Y1564303D02*
Y1572303D01*
X1946470Y1560429D02*
X1954470D01*
X1950470Y1556429D02*
Y1564429D01*
X1741745Y1591925D02*
X1749745D01*
X1745745Y1587925D02*
Y1595925D01*
X1741745Y1576177D02*
X1749745D01*
X1745745Y1572177D02*
Y1580177D01*
X1741745Y1584051D02*
X1749745D01*
X1745745Y1580051D02*
Y1588051D01*
X1753185Y1590950D02*
X1761185D01*
X1757185Y1586950D02*
Y1594950D01*
X1761037Y1592712D02*
X1769037D01*
X1765037Y1588712D02*
Y1596712D01*
X1779541Y1583263D02*
X1787541D01*
X1783541Y1579263D02*
Y1587263D01*
X1768911Y1576964D02*
X1776911D01*
X1772911Y1572964D02*
Y1580964D01*
X1788989Y1576177D02*
X1796989D01*
X1792989Y1572177D02*
Y1580177D01*
X1806312Y1582870D02*
X1814312D01*
X1810312Y1578870D02*
Y1586870D01*
X1831285Y1587850D02*
X1839285D01*
X1835285Y1583850D02*
Y1591850D01*
X1832296Y1584444D02*
X1840296D01*
X1836296Y1580444D02*
Y1588444D01*
X1832296Y1591925D02*
X1840296D01*
X1836296Y1587925D02*
Y1595925D01*
X1851981Y1584051D02*
X1859981D01*
X1855981Y1580051D02*
Y1588051D01*
X1851981Y1576177D02*
X1859981D01*
X1855981Y1572177D02*
Y1580177D01*
X1859856Y1576177D02*
X1867856D01*
X1863856Y1572177D02*
Y1580177D01*
X1881509Y1578145D02*
X1889509D01*
X1885509Y1574145D02*
Y1582145D01*
X1900385Y1578050D02*
X1908385D01*
X1904385Y1574050D02*
Y1582050D01*
X1907885Y1579150D02*
X1915885D01*
X1911885Y1575150D02*
Y1583150D01*
X1918985Y1585250D02*
X1926985D01*
X1922985Y1581250D02*
Y1589250D01*
X1922848Y1576177D02*
X1930848D01*
X1926848Y1572177D02*
Y1580177D01*
X1922848Y1591925D02*
X1930848D01*
X1926848Y1587925D02*
Y1595925D01*
X1914974Y1576177D02*
X1922974D01*
X1918974Y1572177D02*
Y1580177D01*
X1930722Y1591925D02*
X1938722D01*
X1934722Y1587925D02*
Y1595925D01*
X1930722Y1576177D02*
X1938722D01*
X1934722Y1572177D02*
Y1580177D01*
X1946470Y1576177D02*
X1954470D01*
X1950470Y1572177D02*
Y1580177D01*
X1946470Y1591925D02*
X1954470D01*
X1950470Y1587925D02*
Y1595925D01*
X1946470Y1584051D02*
X1954470D01*
X1950470Y1580051D02*
Y1588051D01*
X1741745Y1599799D02*
X1749745D01*
X1745745Y1595799D02*
Y1603799D01*
X1741745Y1607673D02*
X1749745D01*
X1745745Y1603673D02*
Y1611673D01*
X1762585Y1601750D02*
X1770585D01*
X1766585Y1597750D02*
Y1605750D01*
X1761037Y1597830D02*
X1769037D01*
X1765037Y1593830D02*
Y1601830D01*
X1773241Y1607673D02*
X1781241D01*
X1777241Y1603673D02*
Y1611673D01*
X1793714Y1604523D02*
X1801714D01*
X1797714Y1600523D02*
Y1608523D01*
X1804737Y1599799D02*
X1812737D01*
X1808737Y1595799D02*
Y1603799D01*
X1788989Y1599799D02*
X1796989D01*
X1792989Y1595799D02*
Y1603799D01*
X1814985Y1614350D02*
X1822985D01*
X1818985Y1610350D02*
Y1618350D01*
X1832296Y1607673D02*
X1840296D01*
X1836296Y1603673D02*
Y1611673D01*
X1852285Y1611550D02*
X1860285D01*
X1856285Y1607550D02*
Y1615550D01*
X1854344Y1607279D02*
X1862344D01*
X1858344Y1603279D02*
Y1611279D01*
X1859856Y1607673D02*
X1867856D01*
X1863856Y1603673D02*
Y1611673D01*
X1850013Y1599799D02*
X1858013D01*
X1854013Y1595799D02*
Y1603799D01*
X1874485Y1596850D02*
X1882485D01*
X1878485Y1592850D02*
Y1600850D01*
X1875604Y1607673D02*
X1883604D01*
X1879604Y1603673D02*
Y1611673D01*
X1883478Y1607673D02*
X1891478D01*
X1887478Y1603673D02*
Y1611673D01*
X1867730Y1607673D02*
X1875730D01*
X1871730Y1603673D02*
Y1611673D01*
X1891385Y1601550D02*
X1899385D01*
X1895385Y1597550D02*
Y1605550D01*
X1889085Y1610450D02*
X1897085D01*
X1893085Y1606450D02*
Y1614450D01*
X1908885Y1603450D02*
X1916885D01*
X1912885Y1599450D02*
Y1607450D01*
X1911785Y1612850D02*
X1919785D01*
X1915785Y1608850D02*
Y1616850D01*
X1914974Y1599799D02*
X1922974D01*
X1918974Y1595799D02*
Y1603799D01*
X1922848Y1599799D02*
X1930848D01*
X1926848Y1595799D02*
Y1603799D01*
X1936627Y1601767D02*
X1944627D01*
X1940627Y1597767D02*
Y1605767D01*
X1946470Y1607673D02*
X1954470D01*
X1950470Y1603673D02*
Y1611673D01*
X1946470Y1599799D02*
X1954470D01*
X1950470Y1595799D02*
Y1603799D01*
X1741745Y1615547D02*
X1749745D01*
X1745745Y1611547D02*
Y1619547D01*
X1757493Y1631295D02*
X1765493D01*
X1761493Y1627295D02*
Y1635295D01*
X1757493Y1623421D02*
X1765493D01*
X1761493Y1619421D02*
Y1627421D01*
X1765367Y1631295D02*
X1773367D01*
X1769367Y1627295D02*
Y1635295D01*
X1765367Y1623421D02*
X1773367D01*
X1769367Y1619421D02*
Y1627421D01*
X1773241Y1631295D02*
X1781241D01*
X1777241Y1627295D02*
Y1635295D01*
X1773241Y1623421D02*
X1781241D01*
X1777241Y1619421D02*
Y1627421D01*
X1803185Y1612150D02*
X1807185Y1616150D01*
X1803185Y1620150*
X1799185Y1616150*
X1803185Y1612150*
Y1616150D02*
Y1620150D01*
X1804737Y1615547D02*
X1812737D01*
X1808737Y1611547D02*
Y1619547D01*
X1804737Y1631295D02*
X1812737D01*
X1808737Y1627295D02*
Y1635295D01*
X1788989Y1631295D02*
X1796989D01*
X1792989Y1627295D02*
Y1635295D01*
X1788989Y1615547D02*
X1796989D01*
X1792989Y1611547D02*
Y1619547D01*
X1820785Y1625450D02*
X1828785D01*
X1824785Y1621450D02*
Y1629450D01*
X1820485Y1615547D02*
X1828485D01*
X1824485Y1611547D02*
Y1619547D01*
X1834265Y1623421D02*
X1842265D01*
X1838265Y1619421D02*
Y1627421D01*
X1828359Y1631295D02*
X1836359D01*
X1832359Y1627295D02*
Y1635295D01*
X1863485Y1623450D02*
X1871485D01*
X1867485Y1619450D02*
Y1627450D01*
X1847585Y1617650D02*
X1855585D01*
X1851585Y1613650D02*
Y1621650D01*
X1850685Y1620050D02*
X1858685D01*
X1854685Y1616050D02*
Y1624050D01*
X1851085D02*
X1859085D01*
X1855085Y1620050D02*
Y1628050D01*
X1858385Y1615750D02*
X1866385D01*
X1862385Y1611750D02*
Y1619750D01*
X1882185Y1626050D02*
X1890185D01*
X1886185Y1622050D02*
Y1630050D01*
X1873635Y1633263D02*
X1881635D01*
X1877635Y1629263D02*
Y1637263D01*
X1868911Y1624602D02*
X1876911D01*
X1872911Y1620602D02*
Y1628602D01*
X1899685Y1634150D02*
X1907685D01*
X1903685Y1630150D02*
Y1638150D01*
X1900185Y1614450D02*
X1904185Y1618450D01*
X1900185Y1622450*
X1896185Y1618450*
X1900185Y1614450*
Y1618450D02*
Y1622450D01*
X1891352Y1631295D02*
X1899352D01*
X1895352Y1627295D02*
Y1635295D01*
X1911785Y1633850D02*
X1919785D01*
X1915785Y1629850D02*
Y1637850D01*
X1918517Y1624208D02*
X1926517D01*
X1922517Y1620208D02*
Y1628208D01*
X1938596Y1631295D02*
X1946596D01*
X1942596Y1627295D02*
Y1635295D01*
X1930722Y1615547D02*
X1938722D01*
X1934722Y1611547D02*
Y1619547D01*
X1946470Y1623421D02*
X1954470D01*
X1950470Y1619421D02*
Y1627421D01*
X1946470Y1631295D02*
X1954470D01*
X1950470Y1627295D02*
Y1635295D01*
X1946470Y1615547D02*
X1954470D01*
X1950470Y1611547D02*
Y1619547D01*
X1765367Y1639169D02*
X1773367D01*
X1769367Y1635169D02*
Y1643169D01*
X1757493Y1647043D02*
X1765493D01*
X1761493Y1643043D02*
Y1651043D01*
X1757493Y1639169D02*
X1765493D01*
X1761493Y1635169D02*
Y1643169D01*
X1773241Y1639169D02*
X1781241D01*
X1777241Y1635169D02*
Y1643169D01*
X1792265Y1643450D02*
X1800265D01*
X1796265Y1639450D02*
Y1647450D01*
X1786585Y1638250D02*
X1794585D01*
X1790585Y1634250D02*
Y1642250D01*
X1804737Y1647043D02*
X1812737D01*
X1808737Y1643043D02*
Y1651043D01*
X1822454Y1637988D02*
X1830454D01*
X1826454Y1633988D02*
Y1641988D01*
X1836985Y1649550D02*
X1844985D01*
X1840985Y1645550D02*
Y1653550D01*
X1836233Y1654917D02*
X1844233D01*
X1840233Y1650917D02*
Y1658917D01*
X1844107Y1654917D02*
X1852107D01*
X1848107Y1650917D02*
Y1658917D01*
X1849285Y1636950D02*
X1857285D01*
X1853285Y1632950D02*
Y1640950D01*
X1853185Y1640250D02*
X1861185D01*
X1857185Y1636250D02*
Y1644250D01*
X1848285Y1643950D02*
X1856285D01*
X1852285Y1639950D02*
Y1647950D01*
X1859856Y1654917D02*
X1867856D01*
X1863856Y1650917D02*
Y1658917D01*
X1882485Y1637850D02*
X1890485D01*
X1886485Y1633850D02*
Y1641850D01*
X1868485Y1645950D02*
X1876485D01*
X1872485Y1641950D02*
Y1649950D01*
X1866185Y1643750D02*
X1874185D01*
X1870185Y1639750D02*
Y1647750D01*
X1880585D02*
X1888585D01*
X1884585Y1643750D02*
Y1651750D01*
X1868185Y1641150D02*
X1876185D01*
X1872185Y1637150D02*
Y1645150D01*
X1881509Y1641137D02*
X1889509D01*
X1885509Y1637137D02*
Y1645137D01*
X1867730Y1654917D02*
X1875730D01*
X1871730Y1650917D02*
Y1658917D01*
X1900085Y1651750D02*
X1908085D01*
X1904085Y1647750D02*
Y1655750D01*
X1899226Y1639169D02*
X1907226D01*
X1903226Y1635169D02*
Y1643169D01*
X1889383Y1649011D02*
X1897383D01*
X1893383Y1645011D02*
Y1653011D01*
X1924816Y1645862D02*
X1932816D01*
X1928816Y1641862D02*
Y1649862D01*
X1920092Y1644681D02*
X1928092D01*
X1924092Y1640681D02*
Y1648681D01*
X1938596Y1654917D02*
X1946596D01*
X1942596Y1650917D02*
Y1658917D01*
X1930722Y1639169D02*
X1938722D01*
X1934722Y1635169D02*
Y1643169D01*
X1946470Y1639169D02*
X1954470D01*
X1950470Y1635169D02*
Y1643169D01*
X1946470Y1647043D02*
X1954470D01*
X1950470Y1643043D02*
Y1651043D01*
X1946470Y1654917D02*
X1954470D01*
X1950470Y1650917D02*
Y1658917D01*
X1741745Y1670665D02*
X1749745D01*
X1745745Y1666665D02*
Y1674665D01*
X1775210Y1659248D02*
X1783210D01*
X1779210Y1655248D02*
Y1663248D01*
X1774422Y1665547D02*
X1782422D01*
X1778422Y1661547D02*
Y1669547D01*
X1767336Y1667122D02*
X1775336D01*
X1771336Y1663122D02*
Y1671122D01*
X1767336Y1657673D02*
X1775336D01*
X1771336Y1653673D02*
Y1661673D01*
X1796863Y1670665D02*
X1804863D01*
X1800863Y1666665D02*
Y1674665D01*
X1804737Y1670665D02*
X1812737D01*
X1808737Y1666665D02*
Y1674665D01*
X1834265Y1670665D02*
X1842265D01*
X1838265Y1666665D02*
Y1674665D01*
X1880185Y1657550D02*
X1888185D01*
X1884185Y1653550D02*
Y1661550D01*
X1882690Y1663972D02*
X1890690D01*
X1886690Y1659972D02*
Y1667972D01*
X1867730Y1662791D02*
X1875730D01*
X1871730Y1658791D02*
Y1666791D01*
X1875604Y1670665D02*
X1883604D01*
X1879604Y1666665D02*
Y1674665D01*
X1891885Y1660050D02*
X1899885D01*
X1895885Y1656050D02*
Y1664050D01*
X1899226Y1662791D02*
X1907226D01*
X1903226Y1658791D02*
Y1666791D01*
X1913285Y1671250D02*
X1921285D01*
X1917285Y1667250D02*
Y1675250D01*
X1922848Y1670665D02*
X1930848D01*
X1926848Y1666665D02*
Y1674665D01*
X1936627Y1672633D02*
X1944627D01*
X1940627Y1668633D02*
Y1676633D01*
X1952375Y1664759D02*
X1960375D01*
X1956375Y1660759D02*
Y1668759D01*
X1741745Y1686413D02*
X1749745D01*
X1745745Y1682413D02*
Y1690413D01*
X1741745Y1694287D02*
X1749745D01*
X1745745Y1690287D02*
Y1698287D01*
X1741745Y1678539D02*
X1749745D01*
X1745745Y1674539D02*
Y1682539D01*
X1757493Y1694287D02*
X1765493D01*
X1761493Y1690287D02*
Y1698287D01*
X1765367Y1694287D02*
X1773367D01*
X1769367Y1690287D02*
Y1698287D01*
X1749619Y1694287D02*
X1757619D01*
X1753619Y1690287D02*
Y1698287D01*
X1749619Y1678539D02*
X1757619D01*
X1753619Y1674539D02*
Y1682539D01*
X1749619Y1686413D02*
X1757619D01*
X1753619Y1682413D02*
Y1690413D01*
X1757493Y1686413D02*
X1765493D01*
X1761493Y1682413D02*
Y1690413D01*
X1781115Y1678539D02*
X1789115D01*
X1785115Y1674539D02*
Y1682539D01*
X1773241Y1678539D02*
X1781241D01*
X1777241Y1674539D02*
Y1682539D01*
X1781115Y1686413D02*
X1789115D01*
X1785115Y1682413D02*
Y1690413D01*
X1796863Y1678539D02*
X1804863D01*
X1800863Y1674539D02*
Y1682539D01*
X1804737Y1686413D02*
X1812737D01*
X1808737Y1682413D02*
Y1690413D01*
X1824185Y1679250D02*
X1832185D01*
X1828185Y1675250D02*
Y1683250D01*
X1812611Y1686413D02*
X1820611D01*
X1816611Y1682413D02*
Y1690413D01*
X1820485Y1694287D02*
X1828485D01*
X1824485Y1690287D02*
Y1698287D01*
X1812611Y1678539D02*
X1820611D01*
X1816611Y1674539D02*
Y1682539D01*
X1820485Y1686413D02*
X1828485D01*
X1824485Y1682413D02*
Y1690413D01*
X1812611Y1694287D02*
X1820611D01*
X1816611Y1690287D02*
Y1698287D01*
X1828359Y1694287D02*
X1836359D01*
X1832359Y1690287D02*
Y1698287D01*
X1828359Y1678539D02*
X1836359D01*
X1832359Y1674539D02*
Y1682539D01*
X1844895Y1689563D02*
X1852895D01*
X1848895Y1685563D02*
Y1693563D01*
X1853685Y1681250D02*
X1861685D01*
X1857685Y1677250D02*
Y1685250D01*
X1883478Y1694287D02*
X1891478D01*
X1887478Y1690287D02*
Y1698287D01*
X1867730Y1686413D02*
X1875730D01*
X1871730Y1682413D02*
Y1690413D01*
X1875604Y1678539D02*
X1883604D01*
X1879604Y1674539D02*
Y1682539D01*
X1883478Y1678539D02*
X1891478D01*
X1887478Y1674539D02*
Y1682539D01*
X1891352Y1678539D02*
X1899352D01*
X1895352Y1674539D02*
Y1682539D01*
X1914974Y1678539D02*
X1922974D01*
X1918974Y1674539D02*
Y1682539D01*
X1922848Y1678539D02*
X1930848D01*
X1926848Y1674539D02*
Y1682539D01*
X1907100Y1678539D02*
X1915100D01*
X1911100Y1674539D02*
Y1682539D01*
X1930722Y1686413D02*
X1938722D01*
X1934722Y1682413D02*
Y1690413D01*
X1938596Y1694287D02*
X1946596D01*
X1942596Y1690287D02*
Y1698287D01*
X1938596Y1686413D02*
X1946596D01*
X1942596Y1682413D02*
Y1690413D01*
X1930722Y1694287D02*
X1938722D01*
X1934722Y1690287D02*
Y1698287D01*
X1741745Y1702161D02*
X1749745D01*
X1745745Y1698161D02*
Y1706161D01*
X1741745Y1710035D02*
X1749745D01*
X1745745Y1706035D02*
Y1714035D01*
X1757493Y1702161D02*
X1765493D01*
X1761493Y1698161D02*
Y1706161D01*
X1757493Y1710035D02*
X1765493D01*
X1761493Y1706035D02*
Y1714035D01*
X1765367Y1702161D02*
X1773367D01*
X1769367Y1698161D02*
Y1706161D01*
X1749619Y1710035D02*
X1757619D01*
X1753619Y1706035D02*
Y1714035D01*
X1765367Y1710035D02*
X1773367D01*
X1769367Y1706035D02*
Y1714035D01*
X1749619Y1702161D02*
X1757619D01*
X1753619Y1698161D02*
Y1706161D01*
X1781115Y1702161D02*
X1789115D01*
X1785115Y1698161D02*
Y1706161D01*
X1773241Y1710035D02*
X1781241D01*
X1777241Y1706035D02*
Y1714035D01*
X1773241Y1702161D02*
X1781241D01*
X1777241Y1698161D02*
Y1706161D01*
X1781115Y1710035D02*
X1789115D01*
X1785115Y1706035D02*
Y1714035D01*
X1820385Y1708850D02*
X1828385D01*
X1824385Y1704850D02*
Y1712850D01*
X1812611Y1710035D02*
X1820611D01*
X1816611Y1706035D02*
Y1714035D01*
X1820485Y1702161D02*
X1828485D01*
X1824485Y1698161D02*
Y1706161D01*
X1812611Y1702161D02*
X1820611D01*
X1816611Y1698161D02*
Y1706161D01*
X1834885Y1698350D02*
X1842885D01*
X1838885Y1694350D02*
Y1702350D01*
X1828359Y1702161D02*
X1836359D01*
X1832359Y1698161D02*
Y1706161D01*
X1859856Y1702161D02*
X1867856D01*
X1863856Y1698161D02*
Y1706161D01*
X1850013Y1704130D02*
X1858013D01*
X1854013Y1700130D02*
Y1708130D01*
X1890085Y1704750D02*
X1898085D01*
X1894085Y1700750D02*
Y1708750D01*
X1899226Y1710035D02*
X1907226D01*
X1903226Y1706035D02*
Y1714035D01*
X1910485Y1702750D02*
X1918485D01*
X1914485Y1698750D02*
Y1706750D01*
X1922848Y1710035D02*
X1930848D01*
X1926848Y1706035D02*
Y1714035D01*
X1914974Y1710035D02*
X1922974D01*
X1918974Y1706035D02*
Y1714035D01*
X1907100Y1710035D02*
X1915100D01*
X1911100Y1706035D02*
Y1714035D01*
X1938596Y1702161D02*
X1946596D01*
X1942596Y1698161D02*
Y1706161D01*
X1938596Y1710035D02*
X1946596D01*
X1942596Y1706035D02*
Y1714035D01*
X1952375Y1712004D02*
X1960375D01*
X1956375Y1708004D02*
Y1716004D01*
X1741745Y1717909D02*
X1749745D01*
X1745745Y1713909D02*
Y1721909D01*
X1741745Y1733657D02*
X1749745D01*
X1745745Y1729657D02*
Y1737657D01*
X1741745Y1725783D02*
X1749745D01*
X1745745Y1721783D02*
Y1729783D01*
X1765367Y1733657D02*
X1773367D01*
X1769367Y1729657D02*
Y1737657D01*
X1757493Y1725783D02*
X1765493D01*
X1761493Y1721783D02*
Y1729783D01*
X1765367Y1717909D02*
X1773367D01*
X1769367Y1713909D02*
Y1721909D01*
X1749619Y1733657D02*
X1757619D01*
X1753619Y1729657D02*
Y1737657D01*
X1765367Y1725783D02*
X1773367D01*
X1769367Y1721783D02*
Y1729783D01*
X1749619Y1725783D02*
X1757619D01*
X1753619Y1721783D02*
Y1729783D01*
X1749619Y1717909D02*
X1757619D01*
X1753619Y1713909D02*
Y1721909D01*
X1757493Y1717909D02*
X1765493D01*
X1761493Y1713909D02*
Y1721909D01*
X1757493Y1733657D02*
X1765493D01*
X1761493Y1729657D02*
Y1737657D01*
X1773241Y1733657D02*
X1781241D01*
X1777241Y1729657D02*
Y1737657D01*
X1781115Y1717909D02*
X1789115D01*
X1785115Y1713909D02*
Y1721909D01*
X1773241Y1725783D02*
X1781241D01*
X1777241Y1721783D02*
Y1729783D01*
X1773241Y1717909D02*
X1781241D01*
X1777241Y1713909D02*
Y1721909D01*
X1781115Y1733657D02*
X1789115D01*
X1785115Y1729657D02*
Y1737657D01*
X1781115Y1725783D02*
X1789115D01*
X1785115Y1721783D02*
Y1729783D01*
X1795685Y1734150D02*
X1803685D01*
X1799685Y1730150D02*
Y1738150D01*
X1812611Y1733657D02*
X1820611D01*
X1816611Y1729657D02*
Y1737657D01*
X1836233Y1717909D02*
X1844233D01*
X1840233Y1713909D02*
Y1721909D01*
X1828359Y1733657D02*
X1836359D01*
X1832359Y1729657D02*
Y1737657D01*
X1836233Y1733657D02*
X1844233D01*
X1840233Y1729657D02*
Y1737657D01*
X1859856Y1733657D02*
X1867856D01*
X1863856Y1729657D02*
Y1737657D01*
X1875604Y1725783D02*
X1883604D01*
X1879604Y1721783D02*
Y1729783D01*
X1875604Y1717909D02*
X1883604D01*
X1879604Y1713909D02*
Y1721909D01*
X1867730Y1717909D02*
X1875730D01*
X1871730Y1713909D02*
Y1721909D01*
X1883478Y1725783D02*
X1891478D01*
X1887478Y1721783D02*
Y1729783D01*
X1899226Y1725783D02*
X1907226D01*
X1903226Y1721783D02*
Y1729783D01*
X1891352Y1733657D02*
X1899352D01*
X1895352Y1729657D02*
Y1737657D01*
X1907100Y1733657D02*
X1915100D01*
X1911100Y1729657D02*
Y1737657D01*
X1907100Y1725783D02*
X1915100D01*
X1911100Y1721783D02*
Y1729783D01*
X1922848Y1717909D02*
X1930848D01*
X1926848Y1713909D02*
Y1721909D01*
X1914974Y1733657D02*
X1922974D01*
X1918974Y1729657D02*
Y1737657D01*
X1914974Y1717909D02*
X1922974D01*
X1918974Y1713909D02*
Y1721909D01*
X1942139Y1734444D02*
X1950139D01*
X1946139Y1730444D02*
Y1738444D01*
X1938596Y1725783D02*
X1946596D01*
X1942596Y1721783D02*
Y1729783D01*
X1952375Y1727752D02*
X1960375D01*
X1956375Y1723752D02*
Y1731752D01*
X1741745Y1749405D02*
X1749745D01*
X1745745Y1745405D02*
Y1753405D01*
X1741745Y1741531D02*
X1749745D01*
X1745745Y1737531D02*
Y1745531D01*
X1757493Y1741531D02*
X1765493D01*
X1761493Y1737531D02*
Y1745531D01*
X1765367Y1749405D02*
X1773367D01*
X1769367Y1745405D02*
Y1753405D01*
X1765367Y1741531D02*
X1773367D01*
X1769367Y1737531D02*
Y1745531D01*
X1749619Y1749405D02*
X1757619D01*
X1753619Y1745405D02*
Y1753405D01*
X1749619Y1741531D02*
X1757619D01*
X1753619Y1737531D02*
Y1745531D01*
X1757493Y1749405D02*
X1765493D01*
X1761493Y1745405D02*
Y1753405D01*
X1773241Y1749405D02*
X1781241D01*
X1777241Y1745405D02*
Y1753405D01*
X1773241Y1741531D02*
X1781241D01*
X1777241Y1737531D02*
Y1745531D01*
X1781115Y1741531D02*
X1789115D01*
X1785115Y1737531D02*
Y1745531D01*
X1803685Y1752150D02*
X1811685D01*
X1807685Y1748150D02*
Y1756150D01*
X1804737Y1741531D02*
X1812737D01*
X1808737Y1737531D02*
Y1745531D01*
X1816085Y1738350D02*
X1824085D01*
X1820085Y1734350D02*
Y1742350D01*
X1812611Y1741531D02*
X1820611D01*
X1816611Y1737531D02*
Y1745531D01*
X1820485Y1741531D02*
X1828485D01*
X1824485Y1737531D02*
Y1745531D01*
X1828359Y1749405D02*
X1836359D01*
X1832359Y1745405D02*
Y1753405D01*
X1836233Y1749405D02*
X1844233D01*
X1840233Y1745405D02*
Y1753405D01*
X1836233Y1741531D02*
X1844233D01*
X1840233Y1737531D02*
Y1745531D01*
X1828359Y1741531D02*
X1836359D01*
X1832359Y1737531D02*
Y1745531D01*
X1859856Y1741531D02*
X1867856D01*
X1863856Y1737531D02*
Y1745531D01*
X1867730Y1741531D02*
X1875730D01*
X1871730Y1737531D02*
Y1745531D01*
X1891352Y1741531D02*
X1899352D01*
X1895352Y1737531D02*
Y1745531D01*
X1899226Y1741531D02*
X1907226D01*
X1903226Y1737531D02*
Y1745531D01*
X1922848Y1749405D02*
X1930848D01*
X1926848Y1745405D02*
Y1753405D01*
X1914974Y1741531D02*
X1922974D01*
X1918974Y1737531D02*
Y1745531D01*
X1935885Y1754150D02*
X1943885D01*
X1939885Y1750150D02*
Y1758150D01*
X1930722Y1749405D02*
X1938722D01*
X1934722Y1745405D02*
Y1753405D01*
X1946470Y1749405D02*
X1954470D01*
X1950470Y1745405D02*
Y1753405D01*
X1952375Y1735626D02*
X1960375D01*
X1956375Y1731626D02*
Y1739626D01*
X1741745Y1757279D02*
X1749745D01*
X1745745Y1753279D02*
Y1761279D01*
X1765367Y1773027D02*
X1773367D01*
X1769367Y1769027D02*
Y1777027D01*
X1765367Y1757279D02*
X1773367D01*
X1769367Y1753279D02*
Y1761279D01*
X1757493Y1773027D02*
X1765493D01*
X1761493Y1769027D02*
Y1777027D01*
X1773241Y1757279D02*
X1781241D01*
X1777241Y1753279D02*
Y1761279D01*
X1781115Y1773027D02*
X1789115D01*
X1785115Y1769027D02*
Y1777027D01*
X1773241Y1773027D02*
X1781241D01*
X1777241Y1769027D02*
Y1777027D01*
X1781115Y1757279D02*
X1789115D01*
X1785115Y1753279D02*
Y1761279D01*
X1804737Y1773027D02*
X1812737D01*
X1808737Y1769027D02*
Y1777027D01*
X1796863Y1757279D02*
X1804863D01*
X1800863Y1753279D02*
Y1761279D01*
X1788989Y1757279D02*
X1796989D01*
X1792989Y1753279D02*
Y1761279D01*
X1812611Y1773027D02*
X1820611D01*
X1816611Y1769027D02*
Y1777027D01*
X1820485Y1757279D02*
X1828485D01*
X1824485Y1753279D02*
Y1761279D01*
X1828359Y1757279D02*
X1836359D01*
X1832359Y1753279D02*
Y1761279D01*
X1842139Y1774996D02*
X1850139D01*
X1846139Y1770996D02*
Y1778996D01*
X1842139Y1767122D02*
X1850139D01*
X1846139Y1763122D02*
Y1771122D01*
X1836233Y1757279D02*
X1844233D01*
X1840233Y1753279D02*
Y1761279D01*
X1844107Y1757279D02*
X1852107D01*
X1848107Y1753279D02*
Y1761279D01*
X1902485Y1762450D02*
X1910485D01*
X1906485Y1758450D02*
Y1766450D01*
X1900085Y1765350D02*
X1908085D01*
X1904085Y1761350D02*
Y1769350D01*
X1899226Y1773027D02*
X1907226D01*
X1903226Y1769027D02*
Y1777027D01*
X1920085Y1772850D02*
X1928085D01*
X1924085Y1768850D02*
Y1776850D01*
X1907100Y1773027D02*
X1915100D01*
X1911100Y1769027D02*
Y1777027D01*
X1907100Y1765153D02*
X1915100D01*
X1911100Y1761153D02*
Y1769153D01*
X1939285Y1774750D02*
X1947285D01*
X1943285Y1770750D02*
Y1778750D01*
X1930722Y1757279D02*
X1938722D01*
X1934722Y1753279D02*
Y1761279D01*
X1946470Y1765153D02*
X1954470D01*
X1950470Y1761153D02*
Y1769153D01*
X1946470Y1773027D02*
X1954470D01*
X1950470Y1769027D02*
Y1777027D01*
X1946470Y1757279D02*
X1954470D01*
X1950470Y1753279D02*
Y1761279D01*
X1741745Y1788775D02*
X1749745D01*
X1745745Y1784775D02*
Y1792775D01*
X1757493Y1788775D02*
X1765493D01*
X1761493Y1784775D02*
Y1792775D01*
X1765367Y1780901D02*
X1773367D01*
X1769367Y1776901D02*
Y1784901D01*
X1749619Y1788775D02*
X1757619D01*
X1753619Y1784775D02*
Y1792775D01*
X1757493Y1780901D02*
X1765493D01*
X1761493Y1776901D02*
Y1784901D01*
X1765367Y1788775D02*
X1773367D01*
X1769367Y1784775D02*
Y1792775D01*
X1781115Y1788775D02*
X1789115D01*
X1785115Y1784775D02*
Y1792775D01*
X1773241Y1788775D02*
X1781241D01*
X1777241Y1784775D02*
Y1792775D01*
X1773241Y1780901D02*
X1781241D01*
X1777241Y1776901D02*
Y1784901D01*
X1781115Y1780901D02*
X1789115D01*
X1785115Y1776901D02*
Y1784901D01*
X1804737Y1788775D02*
X1812737D01*
X1808737Y1784775D02*
Y1792775D01*
X1788989Y1780901D02*
X1796989D01*
X1792989Y1776901D02*
Y1784901D01*
X1804737Y1780901D02*
X1812737D01*
X1808737Y1776901D02*
Y1784901D01*
X1796863Y1788775D02*
X1804863D01*
X1800863Y1784775D02*
Y1792775D01*
X1788989Y1788775D02*
X1796989D01*
X1792989Y1784775D02*
Y1792775D01*
X1812611Y1788775D02*
X1820611D01*
X1816611Y1784775D02*
Y1792775D01*
X1812611Y1780901D02*
X1820611D01*
X1816611Y1776901D02*
Y1784901D01*
X1820485Y1788775D02*
X1828485D01*
X1824485Y1784775D02*
Y1792775D01*
X1820485Y1780901D02*
X1828485D01*
X1824485Y1776901D02*
Y1784901D01*
X1837385Y1782050D02*
X1845385D01*
X1841385Y1778050D02*
Y1786050D01*
X1837185Y1787550D02*
X1845185D01*
X1841185Y1783550D02*
Y1791550D01*
X1899226Y1788775D02*
X1907226D01*
X1903226Y1784775D02*
Y1792775D01*
X1899226Y1780901D02*
X1907226D01*
X1903226Y1776901D02*
Y1784901D01*
X1914974Y1788775D02*
X1922974D01*
X1918974Y1784775D02*
Y1792775D01*
X1922848Y1780901D02*
X1930848D01*
X1926848Y1776901D02*
Y1784901D01*
X1907100Y1788775D02*
X1915100D01*
X1911100Y1784775D02*
Y1792775D01*
X1922848Y1788775D02*
X1930848D01*
X1926848Y1784775D02*
Y1792775D01*
X1907100Y1780901D02*
X1915100D01*
X1911100Y1776901D02*
Y1784901D01*
X1914974Y1780901D02*
X1922974D01*
X1918974Y1776901D02*
Y1784901D01*
X1936585Y1776250D02*
X1944585D01*
X1940585Y1772250D02*
Y1780250D01*
X1938596Y1780901D02*
X1946596D01*
X1942596Y1776901D02*
Y1784901D01*
X1938596Y1788775D02*
X1946596D01*
X1942596Y1784775D02*
Y1792775D01*
X1946470Y1788775D02*
X1954470D01*
X1950470Y1784775D02*
Y1792775D01*
X1946470Y1780901D02*
X1954470D01*
X1950470Y1776901D02*
Y1784901D01*
X1741745Y1812397D02*
X1749745D01*
X1745745Y1808397D02*
Y1816397D01*
X1741745Y1796649D02*
X1749745D01*
X1745745Y1792649D02*
Y1800649D01*
X1741745Y1804523D02*
X1749745D01*
X1745745Y1800523D02*
Y1808523D01*
X1749619Y1796649D02*
X1757619D01*
X1753619Y1792649D02*
Y1800649D01*
X1765367Y1812397D02*
X1773367D01*
X1769367Y1808397D02*
Y1816397D01*
X1749619Y1812397D02*
X1757619D01*
X1753619Y1808397D02*
Y1816397D01*
X1757493Y1796649D02*
X1765493D01*
X1761493Y1792649D02*
Y1800649D01*
X1749619Y1804523D02*
X1757619D01*
X1753619Y1800523D02*
Y1808523D01*
X1757493Y1812397D02*
X1765493D01*
X1761493Y1808397D02*
Y1816397D01*
X1757493Y1804523D02*
X1765493D01*
X1761493Y1800523D02*
Y1808523D01*
X1765367Y1804523D02*
X1773367D01*
X1769367Y1800523D02*
Y1808523D01*
X1765367Y1796649D02*
X1773367D01*
X1769367Y1792649D02*
Y1800649D01*
X1773241Y1812397D02*
X1781241D01*
X1777241Y1808397D02*
Y1816397D01*
X1773241Y1804523D02*
X1781241D01*
X1777241Y1800523D02*
Y1808523D01*
X1781115Y1796649D02*
X1789115D01*
X1785115Y1792649D02*
Y1800649D01*
X1781115Y1812397D02*
X1789115D01*
X1785115Y1808397D02*
Y1816397D01*
X1781115Y1804523D02*
X1789115D01*
X1785115Y1800523D02*
Y1808523D01*
X1773241Y1796649D02*
X1781241D01*
X1777241Y1792649D02*
Y1800649D01*
X1794785Y1811450D02*
X1802785D01*
X1798785Y1807450D02*
Y1815450D01*
X1788989Y1812397D02*
X1796989D01*
X1792989Y1808397D02*
Y1816397D01*
X1796863Y1804523D02*
X1804863D01*
X1800863Y1800523D02*
Y1808523D01*
X1788989Y1804523D02*
X1796989D01*
X1792989Y1800523D02*
Y1808523D01*
X1796863Y1796649D02*
X1804863D01*
X1800863Y1792649D02*
Y1800649D01*
X1788989Y1796649D02*
X1796989D01*
X1792989Y1792649D02*
Y1800649D01*
X1804737Y1796649D02*
X1812737D01*
X1808737Y1792649D02*
Y1800649D01*
X1823985Y1806250D02*
X1831985D01*
X1827985Y1802250D02*
Y1810250D01*
X1812611Y1796649D02*
X1820611D01*
X1816611Y1792649D02*
Y1800649D01*
X1820485Y1796649D02*
X1828485D01*
X1824485Y1792649D02*
Y1800649D01*
X1837485Y1798650D02*
X1845485D01*
X1841485Y1794650D02*
Y1802650D01*
X1836233Y1812397D02*
X1844233D01*
X1840233Y1808397D02*
Y1816397D01*
X1828359Y1812397D02*
X1836359D01*
X1832359Y1808397D02*
Y1816397D01*
X1883478Y1812397D02*
X1891478D01*
X1887478Y1808397D02*
Y1816397D01*
X1873635Y1814366D02*
X1881635D01*
X1877635Y1810366D02*
Y1818366D01*
X1899226Y1812397D02*
X1907226D01*
X1903226Y1808397D02*
Y1816397D01*
X1891352Y1812397D02*
X1899352D01*
X1895352Y1808397D02*
Y1816397D01*
X1899226Y1804523D02*
X1907226D01*
X1903226Y1800523D02*
Y1808523D01*
X1899226Y1796649D02*
X1907226D01*
X1903226Y1792649D02*
Y1800649D01*
X1907100Y1804523D02*
X1915100D01*
X1911100Y1800523D02*
Y1808523D01*
X1907100Y1796649D02*
X1915100D01*
X1911100Y1792649D02*
Y1800649D01*
X1922848Y1796649D02*
X1930848D01*
X1926848Y1792649D02*
Y1800649D01*
X1907100Y1812397D02*
X1915100D01*
X1911100Y1808397D02*
Y1816397D01*
X1914974Y1804523D02*
X1922974D01*
X1918974Y1800523D02*
Y1808523D01*
X1914974Y1796649D02*
X1922974D01*
X1918974Y1792649D02*
Y1800649D01*
X1922848Y1804523D02*
X1930848D01*
X1926848Y1800523D02*
Y1808523D01*
X1938596Y1804523D02*
X1946596D01*
X1942596Y1800523D02*
Y1808523D01*
X1938596Y1796649D02*
X1946596D01*
X1942596Y1792649D02*
Y1800649D01*
X1946470Y1804523D02*
X1954470D01*
X1950470Y1800523D02*
Y1808523D01*
X1946470Y1796649D02*
X1954470D01*
X1950470Y1792649D02*
Y1800649D01*
X1946470Y1812397D02*
X1954470D01*
X1950470Y1808397D02*
Y1816397D01*
X1741745Y1820271D02*
X1749745D01*
X1745745Y1816271D02*
Y1824271D01*
X1741745Y1828145D02*
X1749745D01*
X1745745Y1824145D02*
Y1832145D01*
X1749619Y1828145D02*
X1757619D01*
X1753619Y1824145D02*
Y1832145D01*
X1749619Y1820271D02*
X1757619D01*
X1753619Y1816271D02*
Y1824271D01*
X1757493Y1828145D02*
X1765493D01*
X1761493Y1824145D02*
Y1832145D01*
X1765367Y1820271D02*
X1773367D01*
X1769367Y1816271D02*
Y1824271D01*
X1765367Y1828145D02*
X1773367D01*
X1769367Y1824145D02*
Y1832145D01*
X1757493Y1820271D02*
X1765493D01*
X1761493Y1816271D02*
Y1824271D01*
X1773241Y1820271D02*
X1781241D01*
X1777241Y1816271D02*
Y1824271D01*
X1781115Y1828145D02*
X1789115D01*
X1785115Y1824145D02*
Y1832145D01*
X1773241Y1828145D02*
X1781241D01*
X1777241Y1824145D02*
Y1832145D01*
X1781115Y1820271D02*
X1789115D01*
X1785115Y1816271D02*
Y1824271D01*
X1796863Y1828145D02*
X1804863D01*
X1800863Y1824145D02*
Y1832145D01*
X1788989Y1828145D02*
X1796989D01*
X1792989Y1824145D02*
Y1832145D01*
X1788989Y1820271D02*
X1796989D01*
X1792989Y1816271D02*
Y1824271D01*
X1796863Y1820271D02*
X1804863D01*
X1800863Y1816271D02*
Y1824271D01*
X1812611Y1820271D02*
X1820611D01*
X1816611Y1816271D02*
Y1824271D01*
X1820485Y1820271D02*
X1828485D01*
X1824485Y1816271D02*
Y1824271D01*
X1825785Y1816150D02*
X1833785D01*
X1829785Y1812150D02*
Y1820150D01*
X1826391Y1830114D02*
X1834391D01*
X1830391Y1826114D02*
Y1834114D01*
X1836233Y1820271D02*
X1844233D01*
X1840233Y1816271D02*
Y1824271D01*
X1834265Y1830114D02*
X1842265D01*
X1838265Y1826114D02*
Y1834114D01*
X1859585Y1829250D02*
X1867585D01*
X1863585Y1825250D02*
Y1833250D01*
X1867185Y1827850D02*
X1875185D01*
X1871185Y1823850D02*
Y1831850D01*
X1883478Y1828145D02*
X1891478D01*
X1887478Y1824145D02*
Y1832145D01*
X1883478Y1820271D02*
X1891478D01*
X1887478Y1816271D02*
Y1824271D01*
X1891352Y1828145D02*
X1899352D01*
X1895352Y1824145D02*
Y1832145D01*
X1899226Y1828145D02*
X1907226D01*
X1903226Y1824145D02*
Y1832145D01*
X1899226Y1820271D02*
X1907226D01*
X1903226Y1816271D02*
Y1824271D01*
X1891352Y1820271D02*
X1899352D01*
X1895352Y1816271D02*
Y1824271D01*
X1914974Y1820271D02*
X1922974D01*
X1918974Y1816271D02*
Y1824271D01*
X1907100Y1820271D02*
X1915100D01*
X1911100Y1816271D02*
Y1824271D01*
X1907100Y1828145D02*
X1915100D01*
X1911100Y1824145D02*
Y1832145D01*
X1930722Y1828145D02*
X1938722D01*
X1934722Y1824145D02*
Y1832145D01*
X1946470Y1828145D02*
X1954470D01*
X1950470Y1824145D02*
Y1832145D01*
X1952375Y1820271D02*
X1960375D01*
X1956375Y1816271D02*
Y1824271D01*
X1765367Y1836019D02*
X1773367D01*
X1769367Y1832019D02*
Y1840019D01*
X1757493Y1836019D02*
X1765493D01*
X1761493Y1832019D02*
Y1840019D01*
X1781115Y1836019D02*
X1789115D01*
X1785115Y1832019D02*
Y1840019D01*
X1773241Y1836019D02*
X1781241D01*
X1777241Y1832019D02*
Y1840019D01*
X1788989Y1836019D02*
X1796989D01*
X1792989Y1832019D02*
Y1840019D01*
X1804737Y1836019D02*
X1812737D01*
X1808737Y1832019D02*
Y1840019D01*
X1812611Y1836019D02*
X1820611D01*
X1816611Y1832019D02*
Y1840019D01*
X1866285Y1835950D02*
X1874285D01*
X1870285Y1831950D02*
Y1839950D01*
X1883478Y1836019D02*
X1891478D01*
X1887478Y1832019D02*
Y1840019D01*
X1891352Y1836019D02*
X1899352D01*
X1895352Y1832019D02*
Y1840019D01*
X1899226Y1836019D02*
X1907226D01*
X1903226Y1832019D02*
Y1840019D01*
X1920879Y1837988D02*
X1928879D01*
X1924879Y1833988D02*
Y1841988D01*
X1907100Y1836019D02*
X1915100D01*
X1911100Y1832019D02*
Y1840019D01*
X1930722Y1836019D02*
X1938722D01*
X1934722Y1832019D02*
Y1840019D01*
X1946470Y1836019D02*
X1954470D01*
X1950470Y1832019D02*
Y1840019D01*
X1755196Y1844350D02*
G75*
G03X1743385Y1832539I-0J-11811D01*
G01Y1491061*
G03X1755196Y1479250I11811J0*
G01X1948074*
G03X1959885Y1491061I-0J11811*
G01Y1832539*
G03X1948074Y1844350I-11811J-0*
G01X1755196*
X1743385Y1360650D02*
X1832839D01*
X1743385D02*
X1753385Y1363150D01*
Y1358150*
X1743385Y1360650*
X1959885D02*
X1870430D01*
X1959885D02*
X1949885Y1358150D01*
Y1363150*
X1959885Y1360650*
X1743385Y1481350D02*
Y1355650D01*
X1959885Y1481550D02*
Y1355650D01*
X2240185Y1479250D02*
Y1655050D01*
Y1479250D02*
X2237685Y1489250D01*
X2242685*
X2240185Y1479250*
Y1844350D02*
Y1668550D01*
Y1844350D02*
X2242685Y1834350D01*
X2237685*
X2240185Y1844350*
X1920585Y1479250D02*
X2245185D01*
X1914285Y1844350D02*
X2245185D01*
X1999755Y1742750D02*
X2257755D01*
X1999755Y1718750D02*
X2257755D01*
X1999755Y1694750D02*
X2257755D01*
X1999755Y1670750D02*
X2257755D01*
X1999755Y1646750D02*
X2257755D01*
X1999755Y1622750D02*
X2257755D01*
X1999755Y1598750D02*
X2257755D01*
X1999755Y1574750D02*
X2257755D01*
X1999755Y1550750D02*
X2257755D01*
X1999755Y1526750D02*
X2257755D01*
X1999755Y1502750D02*
X2257755D01*
X1999755Y1478750D02*
X2257755D01*
X1999755Y1742750D02*
Y1478750D01*
X2083755Y1742750D02*
Y1478750D01*
X2119755Y1742750D02*
Y1478750D01*
X2155755Y1742750D02*
Y1478750D01*
X2209755Y1742750D02*
Y1478750D01*
X2257755Y1742750D02*
Y1478750D01*
X2035255Y1731500D02*
X2034709Y1732250D01*
X2033891Y1732625*
X2032800*
X2031982Y1732250*
X2031437Y1731500*
Y1730750*
X2031709Y1730000*
X2031982Y1729625*
X2032527Y1729250*
X2034164Y1728500*
X2034709Y1728125*
X2034982Y1727750*
X2035255Y1727000*
Y1725875*
X2034709Y1725125*
X2033891Y1724750*
X2032800*
X2031982Y1725125*
X2031437Y1725875*
X2037709Y1732625D02*
Y1724750D01*
X2043982Y1732625D02*
X2040164Y1724750D01*
Y1732625D02*
X2043982D01*
X2040164Y1724750D02*
X2043982D01*
X2046437Y1732625D02*
Y1724750D01*
Y1732625D02*
X2049982D01*
X2046437Y1728875D02*
X2048618D01*
X2046437Y1724750D02*
X2049982D01*
X2093618Y1732625D02*
X2093073Y1732250D01*
X2092527Y1731500*
X2092255Y1730750*
X2091982Y1729625*
Y1727750*
X2092255Y1726625*
X2092527Y1725875*
X2093073Y1725125*
X2093618Y1724750*
X2094709*
X2095255Y1725125*
X2095800Y1725875*
X2096073Y1726625*
X2096346Y1727750*
Y1729625*
X2096073Y1730750*
X2095800Y1731500*
X2095255Y1732250*
X2094709Y1732625*
X2093618*
X2094437Y1726250D02*
X2096073Y1724000D01*
X2100709Y1732625D02*
Y1724750D01*
X2098800Y1732625D02*
X2102618D01*
X2105073D02*
X2107255Y1728875D01*
Y1724750*
X2109437Y1732625D02*
X2107255Y1728875D01*
X2131800Y1731500D02*
X2131255Y1732250D01*
X2130437Y1732625*
X2129346*
X2128527Y1732250*
X2127982Y1731500*
Y1730750*
X2128255Y1730000*
X2128527Y1729625*
X2129073Y1729250*
X2130709Y1728500*
X2131255Y1728125*
X2131527Y1727750*
X2131800Y1727000*
Y1725875*
X2131255Y1725125*
X2130437Y1724750*
X2129346*
X2128527Y1725125*
X2127982Y1725875*
X2134255Y1732625D02*
X2136437Y1728875D01*
Y1724750*
X2138618Y1732625D02*
X2136437Y1728875D01*
X2141073Y1732625D02*
Y1724750D01*
Y1732625D02*
X2143255Y1724750D01*
X2145437Y1732625D02*
X2143255Y1724750D01*
X2145437Y1732625D02*
Y1724750D01*
X2167255Y1732625D02*
Y1724750D01*
Y1732625D02*
X2169709D01*
X2170527Y1732250*
X2170800Y1731875*
X2171073Y1731125*
Y1730000*
X2170800Y1729250*
X2170527Y1728875*
X2169709Y1728500*
X2167255*
X2173527Y1732625D02*
Y1724750D01*
X2176800*
X2181437Y1732625D02*
X2179255Y1724750D01*
X2181437Y1732625D02*
X2183618Y1724750D01*
X2180073Y1727375D02*
X2182800D01*
X2187982Y1732625D02*
Y1724750D01*
X2186073Y1732625D02*
X2189891D01*
X2192346D02*
Y1724750D01*
Y1732625D02*
X2195891D01*
X2192346Y1728875D02*
X2194527D01*
X2192346Y1724750D02*
X2195891D01*
X2198346Y1732625D02*
Y1724750D01*
Y1732625D02*
X2200255D01*
X2201073Y1732250*
X2201618Y1731500*
X2201891Y1730750*
X2202164Y1729625*
Y1727750*
X2201891Y1726625*
X2201618Y1725875*
X2201073Y1725125*
X2200255Y1724750*
X2198346*
X2226437Y1732625D02*
Y1724750D01*
X2224527Y1732625D02*
X2228346D01*
X2232437D02*
X2231891Y1732250D01*
X2231346Y1731500*
X2231073Y1730750*
X2230800Y1729625*
Y1727750*
X2231073Y1726625*
X2231346Y1725875*
X2231891Y1725125*
X2232437Y1724750*
X2233527*
X2234073Y1725125*
X2234618Y1725875*
X2234891Y1726625*
X2235164Y1727750*
Y1729625*
X2234891Y1730750*
X2234618Y1731500*
X2234073Y1732250*
X2233527Y1732625*
X2232437*
X2237618D02*
Y1724750D01*
X2240891*
X2005755Y1707125D02*
X2006300Y1707500D01*
X2007118Y1708625*
Y1700750*
X2009846Y1706750D02*
Y1707125D01*
X2010118Y1707875*
X2010391Y1708250*
X2010937Y1708625*
X2012027*
X2012573Y1708250*
X2012846Y1707875*
X2013118Y1707125*
Y1706375*
X2012846Y1705625*
X2012300Y1704500*
X2009573Y1700750*
X2013391*
X2016118Y1701500D02*
X2015846Y1701125D01*
X2016118Y1700750*
X2016391Y1701125*
X2016118Y1701500*
X2022118Y1707500D02*
X2021846Y1708250D01*
X2021027Y1708625*
X2020482*
X2019664Y1708250*
X2019118Y1707125*
X2018846Y1705250*
Y1703375*
X2019118Y1701875*
X2019664Y1701125*
X2020482Y1700750*
X2020755*
X2021573Y1701125*
X2022118Y1701875*
X2022391Y1703000*
Y1703375*
X2022118Y1704500*
X2021573Y1705250*
X2020755Y1705625*
X2020482*
X2019664Y1705250*
X2019118Y1704500*
X2018846Y1703375*
X2095937Y1708625D02*
X2093209D01*
X2092937Y1705250*
X2093209Y1705625*
X2094027Y1706000*
X2094846*
X2095664Y1705625*
X2096209Y1704875*
X2096482Y1703750*
X2096209Y1703000*
X2095937Y1701875*
X2095391Y1701125*
X2094573Y1700750*
X2093755*
X2092937Y1701125*
X2092664Y1701500*
X2092391Y1702250*
X2102755Y1708625D02*
X2100027Y1700750D01*
X2098937Y1708625D02*
X2102755D01*
X2105755D02*
X2108755D01*
X2107118Y1705625*
X2107937*
X2108482Y1705250*
X2108755Y1704875*
X2109027Y1703750*
Y1703000*
X2108755Y1701875*
X2108209Y1701125*
X2107391Y1700750*
X2106573*
X2105755Y1701125*
X2105482Y1701500*
X2105209Y1702250*
X2131755Y1706750D02*
X2143755D01*
X2137755Y1700750D02*
Y1712750D01*
X2164391Y1708625D02*
X2166573Y1704875D01*
Y1700750*
X2168755Y1708625D02*
X2166573Y1704875D01*
X2171209Y1708625D02*
Y1700750D01*
Y1708625D02*
X2174755D01*
X2171209Y1704875D02*
X2173391D01*
X2171209Y1700750D02*
X2174755D01*
X2181027Y1707500D02*
X2180482Y1708250D01*
X2179664Y1708625*
X2178573*
X2177755Y1708250*
X2177209Y1707500*
Y1706750*
X2177482Y1706000*
X2177755Y1705625*
X2178300Y1705250*
X2179937Y1704500*
X2180482Y1704125*
X2180755Y1703750*
X2181027Y1703000*
Y1701875*
X2180482Y1701125*
X2179664Y1700750*
X2178573*
X2177755Y1701125*
X2177209Y1701875*
X2217573Y1707500D02*
Y1700750D01*
X2215118Y1704125D02*
X2220027D01*
X2227391Y1710125D02*
X2222482Y1698125D01*
X2229846Y1704125D02*
X2234755D01*
X2238846Y1708625D02*
X2238027Y1708250D01*
X2237482Y1707125*
X2237209Y1705250*
Y1704125*
X2237482Y1702250*
X2238027Y1701125*
X2238846Y1700750*
X2239391*
X2240209Y1701125*
X2240755Y1702250*
X2241027Y1704125*
Y1705250*
X2240755Y1707125*
X2240209Y1708250*
X2239391Y1708625*
X2238846*
X2243755Y1701500D02*
X2243482Y1701125D01*
X2243755Y1700750*
X2244027Y1701125*
X2243755Y1701500*
X2248118Y1708625D02*
X2247300Y1708250D01*
X2246755Y1707125*
X2246482Y1705250*
Y1704125*
X2246755Y1702250*
X2247300Y1701125*
X2248118Y1700750*
X2248664*
X2249482Y1701125*
X2250027Y1702250*
X2250300Y1704125*
Y1705250*
X2250027Y1707125*
X2249482Y1708250*
X2248664Y1708625*
X2248118*
X2005755Y1683125D02*
X2006300Y1683500D01*
X2007118Y1684625*
Y1676750*
X2009846Y1682750D02*
Y1683125D01*
X2010118Y1683875*
X2010391Y1684250*
X2010937Y1684625*
X2012027*
X2012573Y1684250*
X2012846Y1683875*
X2013118Y1683125*
Y1682375*
X2012846Y1681625*
X2012300Y1680500*
X2009573Y1676750*
X2013391*
X2019664Y1684625D02*
X2016937Y1676750D01*
X2015846Y1684625D02*
X2019664D01*
X2022391Y1677500D02*
X2022118Y1677125D01*
X2022391Y1676750*
X2022664Y1677125*
X2022391Y1677500*
X2028664Y1682000D02*
X2028391Y1680875D01*
X2027846Y1680125*
X2027027Y1679750*
X2026755*
X2025937Y1680125*
X2025391Y1680875*
X2025118Y1682000*
Y1682375*
X2025391Y1683500*
X2025937Y1684250*
X2026755Y1684625*
X2027027*
X2027846Y1684250*
X2028391Y1683500*
X2028664Y1682000*
Y1680125*
X2028391Y1678250*
X2027846Y1677125*
X2027027Y1676750*
X2026482*
X2025664Y1677125*
X2025391Y1677875*
X2034664Y1684625D02*
X2031937D01*
X2031664Y1681250*
X2031937Y1681625*
X2032755Y1682000*
X2033573*
X2034391Y1681625*
X2034937Y1680875*
X2035209Y1679750*
X2034937Y1679000*
X2034664Y1677875*
X2034118Y1677125*
X2033300Y1676750*
X2032482*
X2031664Y1677125*
X2031391Y1677500*
X2031118Y1678250*
X2099073Y1682750D02*
Y1683125D01*
X2099346Y1683875*
X2099618Y1684250*
X2100164Y1684625*
X2101255*
X2101800Y1684250*
X2102073Y1683875*
X2102346Y1683125*
Y1682375*
X2102073Y1681625*
X2101527Y1680500*
X2098800Y1676750*
X2102618*
X2131755D02*
X2143755Y1688750D01*
X2131755D02*
X2143755Y1676750D01*
X2164391Y1684625D02*
X2166573Y1680875D01*
Y1676750*
X2168755Y1684625D02*
X2166573Y1680875D01*
X2171209Y1684625D02*
Y1676750D01*
Y1684625D02*
X2174755D01*
X2171209Y1680875D02*
X2173391D01*
X2171209Y1676750D02*
X2174755D01*
X2181027Y1683500D02*
X2180482Y1684250D01*
X2179664Y1684625*
X2178573*
X2177755Y1684250*
X2177209Y1683500*
Y1682750*
X2177482Y1682000*
X2177755Y1681625*
X2178300Y1681250*
X2179937Y1680500*
X2180482Y1680125*
X2180755Y1679750*
X2181027Y1679000*
Y1677875*
X2180482Y1677125*
X2179664Y1676750*
X2178573*
X2177755Y1677125*
X2177209Y1677875*
X2217573Y1683500D02*
Y1676750D01*
X2215118Y1680125D02*
X2220027D01*
X2227391Y1686125D02*
X2222482Y1674125D01*
X2229846Y1680125D02*
X2234755D01*
X2238846Y1684625D02*
X2238027Y1684250D01*
X2237482Y1683125*
X2237209Y1681250*
Y1680125*
X2237482Y1678250*
X2238027Y1677125*
X2238846Y1676750*
X2239391*
X2240209Y1677125*
X2240755Y1678250*
X2241027Y1680125*
Y1681250*
X2240755Y1683125*
X2240209Y1684250*
X2239391Y1684625*
X2238846*
X2243755Y1677500D02*
X2243482Y1677125D01*
X2243755Y1676750*
X2244027Y1677125*
X2243755Y1677500*
X2248118Y1684625D02*
X2247300Y1684250D01*
X2246755Y1683125*
X2246482Y1681250*
Y1680125*
X2246755Y1678250*
X2247300Y1677125*
X2248118Y1676750*
X2248664*
X2249482Y1677125*
X2250027Y1678250*
X2250300Y1680125*
Y1681250*
X2250027Y1683125*
X2249482Y1684250*
X2248664Y1684625*
X2248118*
X2008482Y1660625D02*
X2005755Y1655375D01*
X2009846*
X2008482Y1660625D02*
Y1652750D01*
X2016118Y1660625D02*
X2013391Y1652750D01*
X2012300Y1660625D02*
X2016118D01*
X2018846Y1653500D02*
X2018573Y1653125D01*
X2018846Y1652750*
X2019118Y1653125*
X2018846Y1653500*
X2021846Y1658750D02*
Y1659125D01*
X2022118Y1659875*
X2022391Y1660250*
X2022937Y1660625*
X2024027*
X2024573Y1660250*
X2024846Y1659875*
X2025118Y1659125*
Y1658375*
X2024846Y1657625*
X2024300Y1656500*
X2021573Y1652750*
X2025391*
X2030573Y1660625D02*
X2027846Y1655375D01*
X2031937*
X2030573Y1660625D02*
Y1652750D01*
X2096891Y1659125D02*
X2097437Y1659500D01*
X2098255Y1660625*
Y1652750*
X2102073Y1660625D02*
X2101255Y1660250D01*
X2100982Y1659500*
Y1658750*
X2101255Y1658000*
X2101800Y1657625*
X2102891Y1657250*
X2103709Y1656875*
X2104255Y1656125*
X2104527Y1655375*
Y1654250*
X2104255Y1653500*
X2103982Y1653125*
X2103164Y1652750*
X2102073*
X2101255Y1653125*
X2100982Y1653500*
X2100709Y1654250*
Y1655375*
X2100982Y1656125*
X2101527Y1656875*
X2102346Y1657250*
X2103437Y1657625*
X2103982Y1658000*
X2104255Y1658750*
Y1659500*
X2103982Y1660250*
X2103164Y1660625*
X2102073*
X2131755Y1652750D02*
X2143755D01*
Y1664750*
X2131755*
Y1652750*
X2137755Y1658750D02*
Y1664750D01*
X2164391Y1660625D02*
X2166573Y1656875D01*
Y1652750*
X2168755Y1660625D02*
X2166573Y1656875D01*
X2171209Y1660625D02*
Y1652750D01*
Y1660625D02*
X2174755D01*
X2171209Y1656875D02*
X2173391D01*
X2171209Y1652750D02*
X2174755D01*
X2181027Y1659500D02*
X2180482Y1660250D01*
X2179664Y1660625*
X2178573*
X2177755Y1660250*
X2177209Y1659500*
Y1658750*
X2177482Y1658000*
X2177755Y1657625*
X2178300Y1657250*
X2179937Y1656500*
X2180482Y1656125*
X2180755Y1655750*
X2181027Y1655000*
Y1653875*
X2180482Y1653125*
X2179664Y1652750*
X2178573*
X2177755Y1653125*
X2177209Y1653875*
X2217573Y1659500D02*
Y1652750D01*
X2215118Y1656125D02*
X2220027D01*
X2227391Y1662125D02*
X2222482Y1650125D01*
X2229846Y1656125D02*
X2234755D01*
X2238846Y1660625D02*
X2238027Y1660250D01*
X2237482Y1659125*
X2237209Y1657250*
Y1656125*
X2237482Y1654250*
X2238027Y1653125*
X2238846Y1652750*
X2239391*
X2240209Y1653125*
X2240755Y1654250*
X2241027Y1656125*
Y1657250*
X2240755Y1659125*
X2240209Y1660250*
X2239391Y1660625*
X2238846*
X2243755Y1653500D02*
X2243482Y1653125D01*
X2243755Y1652750*
X2244027Y1653125*
X2243755Y1653500*
X2248118Y1660625D02*
X2247300Y1660250D01*
X2246755Y1659125*
X2246482Y1657250*
Y1656125*
X2246755Y1654250*
X2247300Y1653125*
X2248118Y1652750*
X2248664*
X2249482Y1653125*
X2250027Y1654250*
X2250300Y1656125*
Y1657250*
X2250027Y1659125*
X2249482Y1660250*
X2248664Y1660625*
X2248118*
X2005755Y1635125D02*
X2006300Y1635500D01*
X2007118Y1636625*
Y1628750*
X2013118Y1636625D02*
X2010391D01*
X2010118Y1633250*
X2010391Y1633625*
X2011209Y1634000*
X2012027*
X2012846Y1633625*
X2013391Y1632875*
X2013664Y1631750*
X2013391Y1631000*
X2013118Y1629875*
X2012573Y1629125*
X2011755Y1628750*
X2010937*
X2010118Y1629125*
X2009846Y1629500*
X2009573Y1630250*
X2016391Y1629500D02*
X2016118Y1629125D01*
X2016391Y1628750*
X2016664Y1629125*
X2016391Y1629500*
X2022937Y1636625D02*
X2020209Y1628750D01*
X2019118Y1636625D02*
X2022937D01*
X2028937D02*
X2026209D01*
X2025937Y1633250*
X2026209Y1633625*
X2027027Y1634000*
X2027846*
X2028664Y1633625*
X2029209Y1632875*
X2029482Y1631750*
X2029209Y1631000*
X2028937Y1629875*
X2028391Y1629125*
X2027573Y1628750*
X2026755*
X2025937Y1629125*
X2025664Y1629500*
X2025391Y1630250*
X2102209Y1636625D02*
X2099482D01*
X2099209Y1633250*
X2099482Y1633625*
X2100300Y1634000*
X2101118*
X2101937Y1633625*
X2102482Y1632875*
X2102755Y1631750*
X2102482Y1631000*
X2102209Y1629875*
X2101664Y1629125*
X2100846Y1628750*
X2100027*
X2099209Y1629125*
X2098937Y1629500*
X2098664Y1630250*
X2137755Y1628750D02*
X2143755Y1634750D01*
X2137755Y1640750*
X2131755Y1634750*
X2137755Y1628750*
Y1634750D02*
Y1640750D01*
X2164391Y1636625D02*
X2166573Y1632875D01*
Y1628750*
X2168755Y1636625D02*
X2166573Y1632875D01*
X2171209Y1636625D02*
Y1628750D01*
Y1636625D02*
X2174755D01*
X2171209Y1632875D02*
X2173391D01*
X2171209Y1628750D02*
X2174755D01*
X2181027Y1635500D02*
X2180482Y1636250D01*
X2179664Y1636625*
X2178573*
X2177755Y1636250*
X2177209Y1635500*
Y1634750*
X2177482Y1634000*
X2177755Y1633625*
X2178300Y1633250*
X2179937Y1632500*
X2180482Y1632125*
X2180755Y1631750*
X2181027Y1631000*
Y1629875*
X2180482Y1629125*
X2179664Y1628750*
X2178573*
X2177755Y1629125*
X2177209Y1629875*
X2217573Y1635500D02*
Y1628750D01*
X2215118Y1632125D02*
X2220027D01*
X2227391Y1638125D02*
X2222482Y1626125D01*
X2229846Y1632125D02*
X2234755D01*
X2238846Y1636625D02*
X2238027Y1636250D01*
X2237482Y1635125*
X2237209Y1633250*
Y1632125*
X2237482Y1630250*
X2238027Y1629125*
X2238846Y1628750*
X2239391*
X2240209Y1629125*
X2240755Y1630250*
X2241027Y1632125*
Y1633250*
X2240755Y1635125*
X2240209Y1636250*
X2239391Y1636625*
X2238846*
X2243755Y1629500D02*
X2243482Y1629125D01*
X2243755Y1628750*
X2244027Y1629125*
X2243755Y1629500*
X2248118Y1636625D02*
X2247300Y1636250D01*
X2246755Y1635125*
X2246482Y1633250*
Y1632125*
X2246755Y1630250*
X2247300Y1629125*
X2248118Y1628750*
X2248664*
X2249482Y1629125*
X2250027Y1630250*
X2250300Y1632125*
Y1633250*
X2250027Y1635125*
X2249482Y1636250*
X2248664Y1636625*
X2248118*
X2008482Y1612625D02*
X2005755Y1607375D01*
X2009846*
X2008482Y1612625D02*
Y1604750D01*
X2012846Y1612625D02*
X2015846D01*
X2014209Y1609625*
X2015027*
X2015573Y1609250*
X2015846Y1608875*
X2016118Y1607750*
Y1607000*
X2015846Y1605875*
X2015300Y1605125*
X2014482Y1604750*
X2013664*
X2012846Y1605125*
X2012573Y1605500*
X2012300Y1606250*
X2018846Y1605500D02*
X2018573Y1605125D01*
X2018846Y1604750*
X2019118Y1605125*
X2018846Y1605500*
X2022118Y1612625D02*
X2025118D01*
X2023482Y1609625*
X2024300*
X2024846Y1609250*
X2025118Y1608875*
X2025391Y1607750*
Y1607000*
X2025118Y1605875*
X2024573Y1605125*
X2023755Y1604750*
X2022937*
X2022118Y1605125*
X2021846Y1605500*
X2021573Y1606250*
X2027846Y1611125D02*
X2028391Y1611500D01*
X2029209Y1612625*
Y1604750*
X2099073Y1610750D02*
Y1611125D01*
X2099346Y1611875*
X2099618Y1612250*
X2100164Y1612625*
X2101255*
X2101800Y1612250*
X2102073Y1611875*
X2102346Y1611125*
Y1610375*
X2102073Y1609625*
X2101527Y1608500*
X2098800Y1604750*
X2102618*
X2131755D02*
X2143755D01*
X2131755Y1616750*
X2143755*
X2131755Y1604750*
X2164391Y1612625D02*
X2166573Y1608875D01*
Y1604750*
X2168755Y1612625D02*
X2166573Y1608875D01*
X2171209Y1612625D02*
Y1604750D01*
Y1612625D02*
X2174755D01*
X2171209Y1608875D02*
X2173391D01*
X2171209Y1604750D02*
X2174755D01*
X2181027Y1611500D02*
X2180482Y1612250D01*
X2179664Y1612625*
X2178573*
X2177755Y1612250*
X2177209Y1611500*
Y1610750*
X2177482Y1610000*
X2177755Y1609625*
X2178300Y1609250*
X2179937Y1608500*
X2180482Y1608125*
X2180755Y1607750*
X2181027Y1607000*
Y1605875*
X2180482Y1605125*
X2179664Y1604750*
X2178573*
X2177755Y1605125*
X2177209Y1605875*
X2217573Y1611500D02*
Y1604750D01*
X2215118Y1608125D02*
X2220027D01*
X2227391Y1614125D02*
X2222482Y1602125D01*
X2229846Y1608125D02*
X2234755D01*
X2238846Y1612625D02*
X2238027Y1612250D01*
X2237482Y1611125*
X2237209Y1609250*
Y1608125*
X2237482Y1606250*
X2238027Y1605125*
X2238846Y1604750*
X2239391*
X2240209Y1605125*
X2240755Y1606250*
X2241027Y1608125*
Y1609250*
X2240755Y1611125*
X2240209Y1612250*
X2239391Y1612625*
X2238846*
X2243755Y1605500D02*
X2243482Y1605125D01*
X2243755Y1604750*
X2244027Y1605125*
X2243755Y1605500*
X2248118Y1612625D02*
X2247300Y1612250D01*
X2246755Y1611125*
X2246482Y1609250*
Y1608125*
X2246755Y1606250*
X2247300Y1605125*
X2248118Y1604750*
X2248664*
X2249482Y1605125*
X2250027Y1606250*
X2250300Y1608125*
Y1609250*
X2250027Y1611125*
X2249482Y1612250*
X2248664Y1612625*
X2248118*
X2006027Y1586750D02*
Y1587125D01*
X2006300Y1587875*
X2006573Y1588250*
X2007118Y1588625*
X2008209*
X2008755Y1588250*
X2009027Y1587875*
X2009300Y1587125*
Y1586375*
X2009027Y1585625*
X2008482Y1584500*
X2005755Y1580750*
X2009573*
X2015846Y1588625D02*
X2013118Y1580750D01*
X2012027Y1588625D02*
X2015846D01*
X2018573Y1581500D02*
X2018300Y1581125D01*
X2018573Y1580750*
X2018846Y1581125*
X2018573Y1581500*
X2024846Y1588625D02*
X2022118D01*
X2021846Y1585250*
X2022118Y1585625*
X2022937Y1586000*
X2023755*
X2024573Y1585625*
X2025118Y1584875*
X2025391Y1583750*
X2025118Y1583000*
X2024846Y1581875*
X2024300Y1581125*
X2023482Y1580750*
X2022664*
X2021846Y1581125*
X2021573Y1581500*
X2021300Y1582250*
X2031118Y1587500D02*
X2030846Y1588250D01*
X2030027Y1588625*
X2029482*
X2028664Y1588250*
X2028118Y1587125*
X2027846Y1585250*
Y1583375*
X2028118Y1581875*
X2028664Y1581125*
X2029482Y1580750*
X2029755*
X2030573Y1581125*
X2031118Y1581875*
X2031391Y1583000*
Y1583375*
X2031118Y1584500*
X2030573Y1585250*
X2029755Y1585625*
X2029482*
X2028664Y1585250*
X2028118Y1584500*
X2027846Y1583375*
X2099346Y1588625D02*
X2102346D01*
X2100709Y1585625*
X2101527*
X2102073Y1585250*
X2102346Y1584875*
X2102618Y1583750*
Y1583000*
X2102346Y1581875*
X2101800Y1581125*
X2100982Y1580750*
X2100164*
X2099346Y1581125*
X2099073Y1581500*
X2098800Y1582250*
X2131755Y1580750D02*
X2143755Y1592750D01*
Y1580750*
X2131755Y1592750*
Y1580750*
X2164391Y1588625D02*
X2166573Y1584875D01*
Y1580750*
X2168755Y1588625D02*
X2166573Y1584875D01*
X2171209Y1588625D02*
Y1580750D01*
Y1588625D02*
X2174755D01*
X2171209Y1584875D02*
X2173391D01*
X2171209Y1580750D02*
X2174755D01*
X2181027Y1587500D02*
X2180482Y1588250D01*
X2179664Y1588625*
X2178573*
X2177755Y1588250*
X2177209Y1587500*
Y1586750*
X2177482Y1586000*
X2177755Y1585625*
X2178300Y1585250*
X2179937Y1584500*
X2180482Y1584125*
X2180755Y1583750*
X2181027Y1583000*
Y1581875*
X2180482Y1581125*
X2179664Y1580750*
X2178573*
X2177755Y1581125*
X2177209Y1581875*
X2217573Y1587500D02*
Y1580750D01*
X2215118Y1584125D02*
X2220027D01*
X2227391Y1590125D02*
X2222482Y1578125D01*
X2229846Y1584125D02*
X2234755D01*
X2238846Y1588625D02*
X2238027Y1588250D01*
X2237482Y1587125*
X2237209Y1585250*
Y1584125*
X2237482Y1582250*
X2238027Y1581125*
X2238846Y1580750*
X2239391*
X2240209Y1581125*
X2240755Y1582250*
X2241027Y1584125*
Y1585250*
X2240755Y1587125*
X2240209Y1588250*
X2239391Y1588625*
X2238846*
X2243755Y1581500D02*
X2243482Y1581125D01*
X2243755Y1580750*
X2244027Y1581125*
X2243755Y1581500*
X2248118Y1588625D02*
X2247300Y1588250D01*
X2246755Y1587125*
X2246482Y1585250*
Y1584125*
X2246755Y1582250*
X2247300Y1581125*
X2248118Y1580750*
X2248664*
X2249482Y1581125*
X2250027Y1582250*
X2250300Y1584125*
Y1585250*
X2250027Y1587125*
X2249482Y1588250*
X2248664Y1588625*
X2248118*
X2008482Y1564625D02*
X2005755Y1559375D01*
X2009846*
X2008482Y1564625D02*
Y1556750D01*
X2015846Y1564625D02*
X2013118D01*
X2012846Y1561250*
X2013118Y1561625*
X2013937Y1562000*
X2014755*
X2015573Y1561625*
X2016118Y1560875*
X2016391Y1559750*
X2016118Y1559000*
X2015846Y1557875*
X2015300Y1557125*
X2014482Y1556750*
X2013664*
X2012846Y1557125*
X2012573Y1557500*
X2012300Y1558250*
X2019118Y1557500D02*
X2018846Y1557125D01*
X2019118Y1556750*
X2019391Y1557125*
X2019118Y1557500*
X2022118Y1562750D02*
Y1563125D01*
X2022391Y1563875*
X2022664Y1564250*
X2023209Y1564625*
X2024300*
X2024846Y1564250*
X2025118Y1563875*
X2025391Y1563125*
Y1562375*
X2025118Y1561625*
X2024573Y1560500*
X2021846Y1556750*
X2025664*
X2029482Y1564625D02*
X2028664Y1564250D01*
X2028391Y1563500*
Y1562750*
X2028664Y1562000*
X2029209Y1561625*
X2030300Y1561250*
X2031118Y1560875*
X2031664Y1560125*
X2031937Y1559375*
Y1558250*
X2031664Y1557500*
X2031391Y1557125*
X2030573Y1556750*
X2029482*
X2028664Y1557125*
X2028391Y1557500*
X2028118Y1558250*
Y1559375*
X2028391Y1560125*
X2028937Y1560875*
X2029755Y1561250*
X2030846Y1561625*
X2031391Y1562000*
X2031664Y1562750*
Y1563500*
X2031391Y1564250*
X2030573Y1564625*
X2029482*
X2102209D02*
X2099482D01*
X2099209Y1561250*
X2099482Y1561625*
X2100300Y1562000*
X2101118*
X2101937Y1561625*
X2102482Y1560875*
X2102755Y1559750*
X2102482Y1559000*
X2102209Y1557875*
X2101664Y1557125*
X2100846Y1556750*
X2100027*
X2099209Y1557125*
X2098937Y1557500*
X2098664Y1558250*
X2131755Y1562750D02*
X2143755D01*
X2137755Y1556750D02*
Y1568750D01*
X2142500Y1572050D02*
X2140755Y1565750D01*
X2142500Y1572050D02*
X2144246Y1565750D01*
X2141409Y1567850D02*
X2143591D01*
X2164391Y1564625D02*
X2166573Y1560875D01*
Y1556750*
X2168755Y1564625D02*
X2166573Y1560875D01*
X2171209Y1564625D02*
Y1556750D01*
Y1564625D02*
X2174755D01*
X2171209Y1560875D02*
X2173391D01*
X2171209Y1556750D02*
X2174755D01*
X2181027Y1563500D02*
X2180482Y1564250D01*
X2179664Y1564625*
X2178573*
X2177755Y1564250*
X2177209Y1563500*
Y1562750*
X2177482Y1562000*
X2177755Y1561625*
X2178300Y1561250*
X2179937Y1560500*
X2180482Y1560125*
X2180755Y1559750*
X2181027Y1559000*
Y1557875*
X2180482Y1557125*
X2179664Y1556750*
X2178573*
X2177755Y1557125*
X2177209Y1557875*
X2217573Y1563500D02*
Y1556750D01*
X2215118Y1560125D02*
X2220027D01*
X2227391Y1566125D02*
X2222482Y1554125D01*
X2229846Y1560125D02*
X2234755D01*
X2238846Y1564625D02*
X2238027Y1564250D01*
X2237482Y1563125*
X2237209Y1561250*
Y1560125*
X2237482Y1558250*
X2238027Y1557125*
X2238846Y1556750*
X2239391*
X2240209Y1557125*
X2240755Y1558250*
X2241027Y1560125*
Y1561250*
X2240755Y1563125*
X2240209Y1564250*
X2239391Y1564625*
X2238846*
X2243755Y1557500D02*
X2243482Y1557125D01*
X2243755Y1556750*
X2244027Y1557125*
X2243755Y1557500*
X2248118Y1564625D02*
X2247300Y1564250D01*
X2246755Y1563125*
X2246482Y1561250*
Y1560125*
X2246755Y1558250*
X2247300Y1557125*
X2248118Y1556750*
X2248664*
X2249482Y1557125*
X2250027Y1558250*
X2250300Y1560125*
Y1561250*
X2250027Y1563125*
X2249482Y1564250*
X2248664Y1564625*
X2248118*
X2006300Y1540625D02*
X2009300D01*
X2007664Y1537625*
X2008482*
X2009027Y1537250*
X2009300Y1536875*
X2009573Y1535750*
Y1535000*
X2009300Y1533875*
X2008755Y1533125*
X2007937Y1532750*
X2007118*
X2006300Y1533125*
X2006027Y1533500*
X2005755Y1534250*
X2015573Y1538000D02*
X2015300Y1536875D01*
X2014755Y1536125*
X2013937Y1535750*
X2013664*
X2012846Y1536125*
X2012300Y1536875*
X2012027Y1538000*
Y1538375*
X2012300Y1539500*
X2012846Y1540250*
X2013664Y1540625*
X2013937*
X2014755Y1540250*
X2015300Y1539500*
X2015573Y1538000*
Y1536125*
X2015300Y1534250*
X2014755Y1533125*
X2013937Y1532750*
X2013391*
X2012573Y1533125*
X2012300Y1533875*
X2018300Y1533500D02*
X2018027Y1533125D01*
X2018300Y1532750*
X2018573Y1533125*
X2018300Y1533500*
X2021573Y1540625D02*
X2024573D01*
X2022937Y1537625*
X2023755*
X2024300Y1537250*
X2024573Y1536875*
X2024846Y1535750*
Y1535000*
X2024573Y1533875*
X2024027Y1533125*
X2023209Y1532750*
X2022391*
X2021573Y1533125*
X2021300Y1533500*
X2021027Y1534250*
X2031118Y1540625D02*
X2028391Y1532750D01*
X2027300Y1540625D02*
X2031118D01*
X2099073Y1538750D02*
Y1539125D01*
X2099346Y1539875*
X2099618Y1540250*
X2100164Y1540625*
X2101255*
X2101800Y1540250*
X2102073Y1539875*
X2102346Y1539125*
Y1538375*
X2102073Y1537625*
X2101527Y1536500*
X2098800Y1532750*
X2102618*
X2131755Y1538750D02*
X2143755D01*
X2137755Y1532750D02*
Y1544750D01*
X2140755Y1548050D02*
Y1541750D01*
Y1548050D02*
X2142718D01*
X2143373Y1547750*
X2143591Y1547450*
X2143809Y1546850*
Y1546250*
X2143591Y1545650*
X2143373Y1545350*
X2142718Y1545050*
X2140755D02*
X2142718D01*
X2143373Y1544750*
X2143591Y1544450*
X2143809Y1543850*
Y1542950*
X2143591Y1542350*
X2143373Y1542050*
X2142718Y1541750*
X2140755*
X2164391Y1540625D02*
X2166573Y1536875D01*
Y1532750*
X2168755Y1540625D02*
X2166573Y1536875D01*
X2171209Y1540625D02*
Y1532750D01*
Y1540625D02*
X2174755D01*
X2171209Y1536875D02*
X2173391D01*
X2171209Y1532750D02*
X2174755D01*
X2181027Y1539500D02*
X2180482Y1540250D01*
X2179664Y1540625*
X2178573*
X2177755Y1540250*
X2177209Y1539500*
Y1538750*
X2177482Y1538000*
X2177755Y1537625*
X2178300Y1537250*
X2179937Y1536500*
X2180482Y1536125*
X2180755Y1535750*
X2181027Y1535000*
Y1533875*
X2180482Y1533125*
X2179664Y1532750*
X2178573*
X2177755Y1533125*
X2177209Y1533875*
X2217573Y1539500D02*
Y1532750D01*
X2215118Y1536125D02*
X2220027D01*
X2227391Y1542125D02*
X2222482Y1530125D01*
X2229846Y1536125D02*
X2234755D01*
X2238846Y1540625D02*
X2238027Y1540250D01*
X2237482Y1539125*
X2237209Y1537250*
Y1536125*
X2237482Y1534250*
X2238027Y1533125*
X2238846Y1532750*
X2239391*
X2240209Y1533125*
X2240755Y1534250*
X2241027Y1536125*
Y1537250*
X2240755Y1539125*
X2240209Y1540250*
X2239391Y1540625*
X2238846*
X2243755Y1533500D02*
X2243482Y1533125D01*
X2243755Y1532750*
X2244027Y1533125*
X2243755Y1533500*
X2248118Y1540625D02*
X2247300Y1540250D01*
X2246755Y1539125*
X2246482Y1537250*
Y1536125*
X2246755Y1534250*
X2247300Y1533125*
X2248118Y1532750*
X2248664*
X2249482Y1533125*
X2250027Y1534250*
X2250300Y1536125*
Y1537250*
X2250027Y1539125*
X2249482Y1540250*
X2248664Y1540625*
X2248118*
X2009027Y1515500D02*
X2008755Y1516250D01*
X2007937Y1516625*
X2007391*
X2006573Y1516250*
X2006027Y1515125*
X2005755Y1513250*
Y1511375*
X2006027Y1509875*
X2006573Y1509125*
X2007391Y1508750*
X2007664*
X2008482Y1509125*
X2009027Y1509875*
X2009300Y1511000*
Y1511375*
X2009027Y1512500*
X2008482Y1513250*
X2007664Y1513625*
X2007391*
X2006573Y1513250*
X2006027Y1512500*
X2005755Y1511375*
X2015027Y1515500D02*
X2014755Y1516250D01*
X2013937Y1516625*
X2013391*
X2012573Y1516250*
X2012027Y1515125*
X2011755Y1513250*
Y1511375*
X2012027Y1509875*
X2012573Y1509125*
X2013391Y1508750*
X2013664*
X2014482Y1509125*
X2015027Y1509875*
X2015300Y1511000*
Y1511375*
X2015027Y1512500*
X2014482Y1513250*
X2013664Y1513625*
X2013391*
X2012573Y1513250*
X2012027Y1512500*
X2011755Y1511375*
X2018027Y1509500D02*
X2017755Y1509125D01*
X2018027Y1508750*
X2018300Y1509125*
X2018027Y1509500*
X2024300Y1514000D02*
X2024027Y1512875D01*
X2023482Y1512125*
X2022664Y1511750*
X2022391*
X2021573Y1512125*
X2021027Y1512875*
X2020755Y1514000*
Y1514375*
X2021027Y1515500*
X2021573Y1516250*
X2022391Y1516625*
X2022664*
X2023482Y1516250*
X2024027Y1515500*
X2024300Y1514000*
Y1512125*
X2024027Y1510250*
X2023482Y1509125*
X2022664Y1508750*
X2022118*
X2021300Y1509125*
X2021027Y1509875*
X2027300Y1516625D02*
X2030300D01*
X2028664Y1513625*
X2029482*
X2030027Y1513250*
X2030300Y1512875*
X2030573Y1511750*
Y1511000*
X2030300Y1509875*
X2029755Y1509125*
X2028937Y1508750*
X2028118*
X2027300Y1509125*
X2027027Y1509500*
X2026755Y1510250*
X2101391Y1516625D02*
X2098664Y1511375D01*
X2102755*
X2101391Y1516625D02*
Y1508750D01*
X2131755Y1514750D02*
X2143755D01*
X2137755Y1508750D02*
Y1520750D01*
X2144027Y1522550D02*
X2143809Y1523150D01*
X2143373Y1523750*
X2142937Y1524050*
X2142064*
X2141627Y1523750*
X2141191Y1523150*
X2140973Y1522550*
X2140755Y1521650*
Y1520150*
X2140973Y1519250*
X2141191Y1518650*
X2141627Y1518050*
X2142064Y1517750*
X2142937*
X2143373Y1518050*
X2143809Y1518650*
X2144027Y1519250*
X2164391Y1516625D02*
X2166573Y1512875D01*
Y1508750*
X2168755Y1516625D02*
X2166573Y1512875D01*
X2171209Y1516625D02*
Y1508750D01*
Y1516625D02*
X2174755D01*
X2171209Y1512875D02*
X2173391D01*
X2171209Y1508750D02*
X2174755D01*
X2181027Y1515500D02*
X2180482Y1516250D01*
X2179664Y1516625*
X2178573*
X2177755Y1516250*
X2177209Y1515500*
Y1514750*
X2177482Y1514000*
X2177755Y1513625*
X2178300Y1513250*
X2179937Y1512500*
X2180482Y1512125*
X2180755Y1511750*
X2181027Y1511000*
Y1509875*
X2180482Y1509125*
X2179664Y1508750*
X2178573*
X2177755Y1509125*
X2177209Y1509875*
X2217573Y1515500D02*
Y1508750D01*
X2215118Y1512125D02*
X2220027D01*
X2227391Y1518125D02*
X2222482Y1506125D01*
X2229846Y1512125D02*
X2234755D01*
X2238846Y1516625D02*
X2238027Y1516250D01*
X2237482Y1515125*
X2237209Y1513250*
Y1512125*
X2237482Y1510250*
X2238027Y1509125*
X2238846Y1508750*
X2239391*
X2240209Y1509125*
X2240755Y1510250*
X2241027Y1512125*
Y1513250*
X2240755Y1515125*
X2240209Y1516250*
X2239391Y1516625*
X2238846*
X2243755Y1509500D02*
X2243482Y1509125D01*
X2243755Y1508750*
X2244027Y1509125*
X2243755Y1509500*
X2248118Y1516625D02*
X2247300Y1516250D01*
X2246755Y1515125*
X2246482Y1513250*
Y1512125*
X2246755Y1510250*
X2247300Y1509125*
X2248118Y1508750*
X2248664*
X2249482Y1509125*
X2250027Y1510250*
X2250300Y1512125*
Y1513250*
X2250027Y1515125*
X2249482Y1516250*
X2248664Y1516625*
X2248118*
X2009300Y1492625D02*
X2006573D01*
X2006300Y1489250*
X2006573Y1489625*
X2007391Y1490000*
X2008209*
X2009027Y1489625*
X2009573Y1488875*
X2009846Y1487750*
X2009573Y1487000*
X2009300Y1485875*
X2008755Y1485125*
X2007937Y1484750*
X2007118*
X2006300Y1485125*
X2006027Y1485500*
X2005755Y1486250*
X2015846Y1490000D02*
X2015573Y1488875D01*
X2015027Y1488125*
X2014209Y1487750*
X2013937*
X2013118Y1488125*
X2012573Y1488875*
X2012300Y1490000*
Y1490375*
X2012573Y1491500*
X2013118Y1492250*
X2013937Y1492625*
X2014209*
X2015027Y1492250*
X2015573Y1491500*
X2015846Y1490000*
Y1488125*
X2015573Y1486250*
X2015027Y1485125*
X2014209Y1484750*
X2013664*
X2012846Y1485125*
X2012573Y1485875*
X2018573Y1485500D02*
X2018300Y1485125D01*
X2018573Y1484750*
X2018846Y1485125*
X2018573Y1485500*
X2022937Y1492625D02*
X2022118Y1492250D01*
X2021573Y1491125*
X2021300Y1489250*
Y1488125*
X2021573Y1486250*
X2022118Y1485125*
X2022937Y1484750*
X2023482*
X2024300Y1485125*
X2024846Y1486250*
X2025118Y1488125*
Y1489250*
X2024846Y1491125*
X2024300Y1492250*
X2023482Y1492625*
X2022937*
X2030846Y1491500D02*
X2030573Y1492250D01*
X2029755Y1492625*
X2029209*
X2028391Y1492250*
X2027846Y1491125*
X2027573Y1489250*
Y1487375*
X2027846Y1485875*
X2028391Y1485125*
X2029209Y1484750*
X2029482*
X2030300Y1485125*
X2030846Y1485875*
X2031118Y1487000*
Y1487375*
X2030846Y1488500*
X2030300Y1489250*
X2029482Y1489625*
X2029209*
X2028391Y1489250*
X2027846Y1488500*
X2027573Y1487375*
X2100027Y1491125D02*
X2100573Y1491500D01*
X2101391Y1492625*
Y1484750*
X2131755Y1490750D02*
X2143755D01*
X2137755Y1484750D02*
Y1496750D01*
X2140755Y1500050D02*
Y1493750D01*
Y1500050D02*
X2142282D01*
X2142937Y1499750*
X2143373Y1499150*
X2143591Y1498550*
X2143809Y1497650*
Y1496150*
X2143591Y1495250*
X2143373Y1494650*
X2142937Y1494050*
X2142282Y1493750*
X2140755*
X2164391Y1492625D02*
X2166573Y1488875D01*
Y1484750*
X2168755Y1492625D02*
X2166573Y1488875D01*
X2171209Y1492625D02*
Y1484750D01*
Y1492625D02*
X2174755D01*
X2171209Y1488875D02*
X2173391D01*
X2171209Y1484750D02*
X2174755D01*
X2181027Y1491500D02*
X2180482Y1492250D01*
X2179664Y1492625*
X2178573*
X2177755Y1492250*
X2177209Y1491500*
Y1490750*
X2177482Y1490000*
X2177755Y1489625*
X2178300Y1489250*
X2179937Y1488500*
X2180482Y1488125*
X2180755Y1487750*
X2181027Y1487000*
Y1485875*
X2180482Y1485125*
X2179664Y1484750*
X2178573*
X2177755Y1485125*
X2177209Y1485875*
X2217573Y1491500D02*
Y1484750D01*
X2215118Y1488125D02*
X2220027D01*
X2227391Y1494125D02*
X2222482Y1482125D01*
X2229846Y1488125D02*
X2234755D01*
X2238846Y1492625D02*
X2238027Y1492250D01*
X2237482Y1491125*
X2237209Y1489250*
Y1488125*
X2237482Y1486250*
X2238027Y1485125*
X2238846Y1484750*
X2239391*
X2240209Y1485125*
X2240755Y1486250*
X2241027Y1488125*
Y1489250*
X2240755Y1491125*
X2240209Y1492250*
X2239391Y1492625*
X2238846*
X2243755Y1485500D02*
X2243482Y1485125D01*
X2243755Y1484750*
X2244027Y1485125*
X2243755Y1485500*
X2248118Y1492625D02*
X2247300Y1492250D01*
X2246755Y1491125*
X2246482Y1489250*
Y1488125*
X2246755Y1486250*
X2247300Y1485125*
X2248118Y1484750*
X2248664*
X2249482Y1485125*
X2250027Y1486250*
X2250300Y1488125*
Y1489250*
X2250027Y1491125*
X2249482Y1492250*
X2248664Y1492625*
X2248118*
G74*
X0Y0D02*
M02*
