M48
;FILE_FORMAT=2:4
INCH,LZ
FMAT,2
ICI,OFF
;TYPE=PLATED
T1C.0126
T2C.01575
T3C.02756
T4C.03937
T5C.04331
T6C.04528
T7C.04724
T8C.05906
T9C.06693
T10C.12795
%
M72
G90
G93X0Y0
T1C.0126F095S3
X-006142Y-010866
X-007717Y-010866
X-006929Y-010866
X-007717Y-010079
X-006142Y-010079
X-006929Y-010079
X-008504Y-010079
X-008504Y-009291
X-007717Y-009291
X-006142Y-009291
X-006929Y-009291
X-006142Y-008504
X-007717Y-008504
X-008504Y-008504
X-006929Y-008504
X-008504Y-007717
X-007717Y-007717
X-006929Y-007717
X-006142Y-007717
X-008504Y-006929
X-007717Y-006929
X-006929Y-006929
X-006142Y-006929
X-007717Y-006142
X-006929Y-006142
X-006142Y-006142
X-008504Y-006142
X-008504Y-005354
X-007717Y-005354
X-006929Y-005354
X-008504Y-004567
X-007362Y-004488
X-008504Y-00378
X-00681Y-00348
X-008504Y-002992
X-008504Y-002205
X-008504Y-001417
X-008504Y-00063
X-00736Y00006
X-008504Y000157
X-006575Y000236
X-006575Y000748
X-008504Y000945
X-00642Y00114
X-008504Y001732
X-008504Y00252
X-006929Y003307
X-006142Y003307
X-006142Y004094
X-006929Y004094
X-006142Y004882
X-006929Y004882
X-006929Y005669
X-008504Y008031
X-008504Y008819
X-007717Y008819
X-008504Y009606
X-007717Y009606
X-006929Y009606
X-007717Y010394
X-008504Y010394
X-006929Y010394
X-006142Y010394
X-008504Y011181
X-006929Y011181
X-006142Y011181
X-007717Y011181
X-008504Y011969
X-007717Y011969
X-006142Y011969
X-006929Y011969
X-008504Y012756
X-006142Y012756
X-007717Y012756
X-006929Y012756
X-006929Y013543
X-006142Y013543
X-007717Y013543
X-008504Y013543
X-007717Y014331
X-008504Y014331
X-006142Y014331
X-006929Y014331
X-008504Y015118
X-006929Y015118
X-006142Y015118
X-007717Y015118
X-008504Y015906
X-007717Y015906
X-006142Y015906
X-006929Y015906
X-008504Y016693
X-006142Y016693
X-006142Y018268
X-006929Y018268
X-006142Y019055
X-006929Y019055
X-008504Y019843
X-007717Y019843
X-006929Y019843
X-006142Y019843
X-008504Y02063
X-007717Y02063
X-006929Y02063
X-006142Y02063
X-008504Y021417
X-007717Y021417
X-006929Y021417
X-006142Y021417
X-006929Y022205
X-006142Y022205
X-007717Y022205
X-008504Y022205
X-008504Y022992
X-007717Y022992
X-006142Y022992
X-006929Y022992
X-006929Y02378
X-007717Y02378
X-006142Y02378
X-008504Y02378
X-006142Y024567
X-006929Y024567
X-004567Y024567
X-005354Y024567
X-00378Y024567
X-004567Y02378
X-005354Y02378
X-00378Y02378
X-005354Y022992
X-004567Y022992
X-00378Y022992
X-005354Y022205
X-004567Y022205
X-00378Y022205
X-005354Y021417
X-004567Y021417
X-00378Y021417
X-004567Y02063
X-005354Y02063
X-00378Y02063
X-004567Y019843
X-005354Y019843
X-00378Y019843
X-005354Y019055
X-004567Y019055
X-00378Y019055
X-004567Y018268
X-005354Y018268
X-005354Y016693
X-004567Y016693
X-00378Y016693
X-005354Y015906
X-005354Y015118
X-004567Y015118
X-004567Y014331
X-005354Y014331
X-004567Y013543
X-005354Y013543
X-005354Y012756
X-004567Y012756
X-004567Y011969
X-005354Y011969
X-004567Y011181
X-005354Y011181
X-004567Y009606
X-005354Y008819
X-004567Y008819
X-005945Y007677
X-005236Y00752
X-005157Y00689
X-005945Y006732
X-005354Y004882
X-00402Y00479
X-00378Y004094
X-005354Y004094
X-005354Y003307
X-00378Y00252
X-005354Y001732
X-00378Y000945
X-004724Y-000709
X-005787Y-001339
X-00378Y-001417
X-00573Y-00217
X-004567Y-00378
X-00378Y-00378
X-005551Y-00437
X-004567Y-004567
X-00378Y-006142
X-005354Y-007717
X-00378Y-007717
X-004567Y-007717
X-005354Y-008504
X-004567Y-008504
X-005354Y-009291
X-005354Y-010079
X-00378Y-010866
X-005354Y-010866
X-004567Y-010866
X-001417Y-010866
X-002205Y-010866
X-002992Y-010866
X-001614Y-008307
X-002992Y-007717
X-001417Y-006142
X-001417Y-004567
X-002638Y-004488
X-00335Y-00361
X-00248Y-001969
X-002047Y-000748
X-002205Y000945
X-003307Y001417
X-00118Y0024
X-002205Y00252
X-002205Y004094
X-003452Y00531
X-002205Y005669
X-002205Y008031
X-002992Y008031
X-001417Y008819
X-002992Y008819
X-002205Y009606
X-001417Y009606
X-001417Y010394
X-001417Y011181
X-001417Y011969
X-001417Y014331
X-00311Y01438
X-00107Y0148
X-002205Y015118
X-001417Y015118
X-00231Y01618
X-002992Y016693
X-002205Y018268
X-001417Y018268
X-001417Y019055
X-002205Y019055
X-001417Y019843
X-002205Y019843
X-002992Y019843
X-002992Y02063
X-002205Y02063
X-001417Y02063
X-002992Y021417
X-0032Y02211
X-001417Y022992
X-002992Y022992
X-002992Y02378
X-002205Y024567
X-001417Y024567
X-000039Y023976
X000748Y023976
X-00063Y022992
X000945Y022992
X-0001Y02258
X000945Y022205
X000157Y022205
X-00028Y02159
X00107Y02083
X-00063Y02063
X-00063Y019843
X00104Y01972
X00106Y01917
X-00063Y019055
X-00063Y016693
X000157Y016693
X000945Y016693
X000157Y015906
X000945Y015906
X-00063Y015118
X000945Y015118
X000157Y015118
X000945Y014331
X000157Y014331
X000945Y012756
X-00064Y01185
X000157Y011181
X-00063Y011181
X00081Y0108
X-00063Y010394
X000157Y010394
X-00063Y009606
X-00026Y00889
X000157Y008819
X000748Y008031
X000945Y006457
X00102Y00592
X-000433Y004764
X000157Y004094
X-0006Y00351
X000748Y003307
X-00063Y00252
X000551Y001732
X000551Y000157
X00045Y-00025
X000551Y-000591
X0Y-00194
X00087Y-00429
X-00036Y-00457
X-00006Y-00457
X00025Y-00619
X000748Y-006732
X000748Y-008307
X-00063Y-010866
X000157Y-010866
X00252Y-010866
X002323Y-008307
X002677Y-007087
X002047Y-005945
X002047Y-005354
X003898Y-005157
X00196Y-00492
X00184Y-00438
X00252Y-00378
X003307Y-00378
X003898Y-002992
X00252Y-002205
X003307Y-001417
X00252Y-001417
X00252Y-00063
X002323Y000945
X002756Y001693
X003307Y001732
X00255Y00212
X00316Y00254
X00208Y00273
X00239Y00297
X00367Y00331
X00243Y00337
X00225Y00466
X00264Y00499
X00394Y00534
X00215Y00536
X001732Y006457
X003307Y006457
X00269Y00909
X001811Y009921
X003307Y011181
X002323Y011378
X003307Y014331
X003307Y015118
X001732Y016693
X001535Y017677
X001535Y018465
X00328Y02389
X00395Y02456
X005669Y024567
X006457Y024567
X005669Y02378
X006457Y02378
X00404Y02375
X005669Y022992
X006457Y022992
X004685Y022402
X005669Y022205
X006457Y022205
X004094Y015118
X006457Y015118
X006457Y014331
X005669Y013543
X004882Y013543
X004882Y012756
X004094Y012756
X00633Y01144
X005669Y010394
X004094Y009606
X006457Y008819
X004882Y008819
X005669Y008819
X004882Y008031
X005591Y007362
X004094Y007244
X00534Y00672
X004094Y006457
X00626Y005866
X00538Y00574
X00417Y00556
X00414Y00508
X005472Y005079
X00557Y00475
X004685Y004291
X006457Y004094
X00554Y00357
X004213Y003425
X00623Y00201
X004882Y001732
X005669Y001732
X004094Y001732
X00646Y00112
X00477Y00065
X005472Y-00122
X005787Y-001929
X004882Y-002992
X004921Y-004134
X004213Y-006417
X005118Y-006417
X00563Y-006535
X00622Y-007126
X00463Y-00847
X005669Y-008504
X00626Y-009606
X005669Y-009646
X0062Y-01023
X005669Y-010866
X007047Y-009882
X007047Y-009094
X008031Y-007717
X007244Y-007717
X008819Y-007717
X007677Y-007323
X008898Y-007244
X008346Y-006929
X007598Y-00685
X008425Y-004961
X00876Y-00425
X008425Y-00378
X008819Y-002205
X008819Y-001417
X00736Y-00123
X00811Y-00112
X008819Y000945
X00821Y00131
X0085Y00225
X0085Y00435
X00729Y00438
X007244Y004882
X00733Y00614
X00651Y00697
X007244Y007244
X00865Y00809
X008031Y008819
X008819Y008819
X00837Y01124
X008819Y011969
X008031Y011969
X007244Y011969
X008819Y012756
X007244Y013543
X008031Y013543
X008819Y014331
X008031Y014331
X008819Y015118
X007244Y015118
X00757Y01721
X008031Y01748
X00733Y0175
X007244Y018268
X008031Y018268
X007244Y019055
X008819Y019055
X008031Y019055
X007244Y019843
X008819Y019843
X008031Y019843
X007244Y02063
X008031Y02063
X008819Y02063
X008031Y021417
X008819Y021417
X007244Y021417
X007244Y022205
X008031Y022205
X008031Y022992
X007244Y022992
X008819Y022992
X008031Y02378
X007244Y02378
X007244Y024567
X008031Y024567
X009409Y024764
X010394Y024567
X010394Y02378
X009606Y021417
X011181Y021417
X009606Y02063
X011181Y02063
X009606Y019843
X011181Y019843
X009606Y019055
X011181Y019055
X01098Y01859
X01125Y01844
X00933Y01825
X010394Y016693
X01091Y01638
X010394Y015906
X009606Y015906
X011181Y013543
X009606Y012756
X011181Y011969
X009606Y011969
X011181Y011181
X010394Y010394
X011181Y010394
X011181Y009606
X010394Y009606
X009606Y008819
X010984Y008228
X009606Y008031
X011181Y006457
X009803Y005551
X009331Y005433
X010394Y004882
X011181Y004094
X009173Y003386
X010394Y00252
X010984Y001142
X009606Y000945
X009606Y000157
X010394Y000157
X00922Y-00051
X009606Y-001417
X010394Y-001417
X010394Y-002205
X009606Y-002205
X009606Y-002992
X010394Y-002992
X010984Y-00437
X010984Y-005157
X009961Y-005276
X010984Y-005945
X010984Y-006732
X009Y-00679
X01Y-007244
X010394Y-007717
X011181Y-008504
X010394Y-009291
X011181Y-009291
X011181Y-010079
X010394Y-010079
X009606Y-010866
X011181Y-010866
X010394Y-010866
X011969Y-010866
X011969Y-010079
X011969Y-009291
X011969Y-008504
X011969Y-007717
X011969Y-006929
X011969Y-006142
X011969Y-005354
X011969Y-004567
X011969Y-00378
X011969Y-002992
X011969Y-002205
X011969Y-001417
X011969Y-00063
X011969Y000157
X011969Y000945
X011969Y001732
X011969Y00252
X011969Y003307
X011969Y004094
X011969Y004882
X011969Y005669
X011969Y006457
X012559Y007441
X012559Y012165
X012559Y01374
X011535Y014409
X012559Y014528
X011969Y015906
X011969Y016693
X011969Y01748
X011969Y018268
X011969Y019055
X011969Y019843
X011969Y02063
X011969Y021417
X011969Y022205
X012559Y022992
X011969Y02378
X011969Y024567
T2C.01575F095S3
X-00346Y-00434
X-00065Y-00357
X-00276Y00258
X00694Y00281
X00598Y-00389
T3C.02756F197S55
X01152Y004405
X01152Y005193
X01152Y00598
T4C.03937F197S55
X011182Y012701
X012182Y012701
T5C.04331F139S55
X01049Y-000579
X01049Y000799
T6C.04528F139S55
X01187Y00745
X01187Y00845
X01187Y00945
X01187Y01045
X01187Y01145
T7C.04724F139S55
X-001767Y-00893
X001186Y-00893
X000201Y-00893
X-000783Y-00893
X-000783Y-007749
X-001767Y-007749
X001186Y-007749
X000201Y-007749
X003154Y-007749
X00217Y-007749
X006107Y-007749
X004139Y-007749
X005123Y-007749
X006107Y-00893
X00217Y-00893
X005123Y-00893
X004139Y-00893
X003154Y-00893
T8C.05906F107S55
X01003Y02314
T9C.06693F089S55
X00903Y02214
X01103Y02214
X01103Y02414
X00903Y02414
T10C.12795F035S794
X-003932Y-009521
X008272Y-009521
M30
