*
*
G04 PADS VX.2.11 Build Number: 20124196 generated Gerber (RS-274-X) file*
G04 PC Version=2.1*
*
%IN "Eago tracker.pcb"*%
*
%MOIN*%
*
%FSLAX35Y35*%
*
*
*
*
G04 PC Standard Apertures*
*
*
G04 Thermal Relief Aperture macro.*
%AMTER*
1,1,$1,0,0*
1,0,$1-$2,0,0*
21,0,$3,$4,0,0,45*
21,0,$3,$4,0,0,135*
%
*
*
G04 Annular Aperture macro.*
%AMANN*
1,1,$1,0,0*
1,0,$2,0,0*
%
*
*
G04 Odd Aperture macro.*
%AMODD*
1,1,$1,0,0*
1,0,$1-0.005,0,0*
%
*
*
G04 PC Custom Aperture Macros*
*
*
*
*
*
*
G04 PC Aperture Table*
*
%ADD010C,0.001*%
%ADD011R,0.0374X0.03937*%
%ADD016R,0.07874X0.07874*%
%ADD041C,0.01*%
%ADD096R,0.02559X0.06004*%
%ADD097R,0.03937X0.05512*%
%ADD098R,0.04528X0.02953*%
*
*
*
*
G04 PC Circuitry*
G04 Layer Name Eago tracker.pcb - circuitry*
%LPD*%
*
*
G04 PC Custom Flashes*
G04 Layer Name Eago tracker.pcb - flashes*
%LPD*%
*
*
G04 PC Circuitry*
G04 Layer Name Eago tracker.pcb - circuitry*
%LPD*%
*
G54D10*
G54D11*
G01X2042839Y1511831D03*
X2049139D03*
X1995446Y1426592D03*
X2001746D03*
X2010829Y1431466D03*
X2004530D03*
X1995395Y1431539D03*
X1989095D03*
X2051513Y1533338D03*
X2045214D03*
X2027861Y1528700D03*
X2021562D03*
X2009200Y1522350D03*
X2015500D03*
X2030455Y1432109D03*
X2024155D03*
X2024178Y1427407D03*
X2030477D03*
X2011000Y1426250D03*
X2017300D03*
X1994508Y1421644D03*
X1988209D03*
X2010916Y1421543D03*
X2017216D03*
X2030477Y1422090D03*
X2024178D03*
G54D16*
X2034258Y1470684D03*
X2050006D03*
X2025467D03*
X2009719D03*
G54D41*
X1903561Y1782550D02*
G75*
G03X1891750Y1770739I0J-11811D01*
G01Y1429261*
G03X1903561Y1417450I11811J0*
G01X2096439*
G03X2108250Y1429261I-0J11811*
G01Y1770739*
G03X2096439Y1782550I-11811J-0*
G01X1903561*
G54D96*
X2010531Y1503205D03*
X2015531D03*
X2020531D03*
X2025531D03*
Y1481850D03*
X2020531D03*
X2015531D03*
X2010531D03*
X2033466Y1503205D03*
X2038466D03*
X2043466D03*
X2048466D03*
Y1481850D03*
X2043466D03*
X2038466D03*
X2033466D03*
G54D97*
X2045087Y1527118D03*
X2052568D03*
X2048828Y1518457D03*
X2021811Y1522035D03*
X2029291D03*
X2025551Y1513373D03*
G54D98*
X2024771Y1460389D03*
X2031463D03*
G74*
X0Y0D02*
M02*
