*
*
G04 PADS VX.2.11 Build Number: 20124196 generated Gerber (RS-274-X) file*
G04 PC Version=2.1*
*
%IN "Eago tracker.pcb"*%
*
%MOIN*%
*
%FSLAX35Y35*%
*
*
*
*
G04 PC Standard Apertures*
*
*
G04 Thermal Relief Aperture macro.*
%AMTER*
1,1,$1,0,0*
1,0,$1-$2,0,0*
21,0,$3,$4,0,0,45*
21,0,$3,$4,0,0,135*
%
*
*
G04 Annular Aperture macro.*
%AMANN*
1,1,$1,0,0*
1,0,$2,0,0*
%
*
*
G04 Odd Aperture macro.*
%AMODD*
1,1,$1,0,0*
1,0,$1-0.005,0,0*
%
*
*
G04 PC Custom Aperture Macros*
*
*
*
*
*
*
G04 PC Aperture Table*
*
%ADD010C,0.001*%
%ADD041C,0.01*%
%ADD099R,0.0474X0.04937*%
%ADD104C,0.08087*%
%ADD105C,0.19898*%
%ADD120R,0.06906X0.06906*%
%ADD121C,0.06906*%
%ADD122R,0.05331X0.05331*%
%ADD123C,0.05331*%
%ADD124R,0.07791X0.07791*%
%ADD125C,0.07791*%
%ADD145C,0.09858*%
%ADD146C,0.11039*%
%ADD156R,0.08874X0.08874*%
%ADD159R,0.07496X0.07496*%
%ADD160C,0.04248*%
%ADD180R,0.03559X0.07004*%
%ADD181R,0.05528X0.03953*%
%ADD182R,0.04937X0.06512*%
%ADD183C,0.03362*%
*
*
*
*
G04 PC Circuitry*
G04 Layer Name Eago tracker.pcb - circuitry*
%LPD*%
*
*
G04 PC Custom Flashes*
G04 Layer Name Eago tracker.pcb - flashes*
%LPD*%
*
*
G04 PC Circuitry*
G04 Layer Name Eago tracker.pcb - circuitry*
%LPD*%
*
G54D10*
G54D41*
G01X1903561Y1782550D02*
G75*
G03X1891750Y1770739I0J-11811D01*
G01Y1429261*
G03X1903561Y1417450I11811J0*
G01X2096439*
G03X2108250Y1429261I-0J11811*
G01Y1770739*
G03X2096439Y1782550I-11811J-0*
G01X1903561*
G54D99*
X2042839Y1511831D03*
X2049139D03*
X1995446Y1426592D03*
X2001746D03*
X2010829Y1431466D03*
X2004530D03*
X1995395Y1431539D03*
X1989095D03*
X2051513Y1533338D03*
X2045214D03*
X2027861Y1528700D03*
X2021562D03*
X2009200Y1522350D03*
X2015500D03*
X2030455Y1432109D03*
X2024155D03*
X2024178Y1427407D03*
X2030477D03*
X2011000Y1426250D03*
X2017300D03*
X1994508Y1421644D03*
X1988209D03*
X2010916Y1421543D03*
X2017216D03*
X2030477Y1422090D03*
X2024178D03*
G54D104*
X2040220Y1451056D03*
X2030378D03*
X2020535D03*
X2010693D03*
X2000850D03*
X1991007D03*
X1981165D03*
X1971322D03*
X1961480D03*
X2040220Y1439245D03*
X2030378D03*
X2020535D03*
X2010693D03*
X2000850D03*
X1991007D03*
X1981165D03*
X1971322D03*
X1961480D03*
G54D105*
X1939826Y1433340D03*
X2061874D03*
G54D120*
X2100970Y1655556D03*
G54D121*
X2090970D03*
G54D122*
X2094350Y1588350D03*
G54D123*
Y1580476D03*
Y1572602D03*
G54D124*
X2097850Y1603050D03*
G54D125*
Y1613050D03*
Y1623050D03*
Y1633050D03*
Y1643050D03*
G54D145*
X2079450Y1759950D03*
G54D146*
X2069450Y1749950D03*
Y1769950D03*
X2089450D03*
Y1749950D03*
G54D156*
X2034258Y1470684D03*
X2050006D03*
X2025467D03*
X2009719D03*
G54D159*
X2084050Y1522760D03*
G54D160*
Y1536540D03*
G54D180*
X2010531Y1503205D03*
X2015531D03*
X2020531D03*
X2025531D03*
Y1481850D03*
X2020531D03*
X2015531D03*
X2010531D03*
X2033466Y1503205D03*
X2038466D03*
X2043466D03*
X2048466D03*
Y1481850D03*
X2043466D03*
X2038466D03*
X2033466D03*
G54D181*
X2024771Y1460389D03*
X2031463D03*
G54D182*
X2045087Y1527118D03*
X2052568D03*
X2048828Y1518457D03*
X2021811Y1522035D03*
X2029291D03*
X2025551Y1513373D03*
G54D183*
X2021276Y1562802D03*
G74*
X0Y0D02*
M02*
